M48
;GenerationSoftware,Autodesk,EAGLE,9.6.1*%
;CreationDate,2020-05-27T02:10:25Z*%
FMAT,2
ICI,OFF
METRIC,TZ,000.000
T5C0.813
T4C0.900
T3C1.000
T2C1.016
T1C3.000
%
G90
M71
T1
X3200Y52000
X3200Y92000
X43200Y92000
X43200Y52000
X53100Y52000
X53100Y92000
X93100Y92000
X93100Y52000
T2
X52490Y39500
X70270Y39500
X67730Y39500
X65190Y39500
X77860Y6000
X62650Y39500
X60110Y39500
X57570Y39500
X55030Y39500
X47380Y6000
X49920Y6000
X52460Y6000
X55000Y6000
X57540Y6000
X60080Y6000
X62620Y6000
X65160Y6000
X67700Y6000
X70240Y6000
X72780Y6000
X75320Y6000
X80400Y6000
X82940Y6000
X85480Y6000
X88020Y6000
X85510Y39500
X82970Y39500
X80430Y39500
X77890Y39500
X75350Y39500
X72810Y39500
T3
X79450Y97400
X83260Y97400
X97230Y77080
X97230Y79620
X97230Y82160
X97230Y84700
X97230Y74540
X97230Y87240
X47330Y68190
X29550Y46600
X33360Y46600
X47330Y64380
X97230Y68190
X29550Y97400
X33360Y97400
X47330Y77080
X47330Y79620
X47330Y82160
X47330Y84700
X47330Y74540
X47330Y87240
X79450Y46600
X83260Y46600
X97230Y64380
T4
X44500Y10900
X47040Y10900
X49580Y10900
X52120Y10900
X57200Y10900
X59740Y10900
X62280Y10900
X64820Y10900
X59740Y33760
X69900Y10900
X67360Y10900
X44500Y33760
X47040Y33760
X49580Y33760
X52120Y33760
X54660Y33760
X57200Y33760
X62280Y33760
X64820Y33760
X67360Y33760
X69900Y33760
X72440Y33760
X74980Y33760
X77520Y33760
X80060Y33760
X82600Y33760
X85140Y33760
X54660Y10900
X87680Y33760
X90220Y33760
X90220Y10900
X87680Y10900
X85140Y10900
X82600Y10900
X80060Y10900
X77520Y10900
X74980Y10900
X72440Y10900
T5
X44422Y44100
X47978Y44100
M30