G04 EAGLE Gerber RS-274X export*
G75*
%MOMM*%
%FSLAX34Y34*%
%LPD*%
%INBottom Copper*%
%IPPOS*%
%AMOC8*
5,1,8,0,0,1.08239X$1,22.5*%
G01*
%ADD10C,1.676400*%
%ADD11P,1.924489X8X22.500000*%
%ADD12C,1.778000*%
%ADD13C,1.524000*%
%ADD14C,0.508000*%

G36*
X987335Y10164D02*
X987335Y10164D01*
X987369Y10162D01*
X987558Y10184D01*
X987749Y10201D01*
X987782Y10210D01*
X987816Y10214D01*
X987999Y10269D01*
X988183Y10319D01*
X988214Y10334D01*
X988247Y10344D01*
X988418Y10431D01*
X988590Y10513D01*
X988618Y10533D01*
X988649Y10548D01*
X988801Y10664D01*
X988956Y10775D01*
X988980Y10800D01*
X989007Y10820D01*
X989136Y10960D01*
X989270Y11097D01*
X989289Y11126D01*
X989313Y11152D01*
X989415Y11313D01*
X989522Y11470D01*
X989536Y11502D01*
X989554Y11531D01*
X989627Y11708D01*
X989704Y11882D01*
X989712Y11916D01*
X989725Y11948D01*
X989765Y12135D01*
X989811Y12320D01*
X989813Y12354D01*
X989820Y12388D01*
X989839Y12700D01*
X989839Y630804D01*
X989833Y630875D01*
X989835Y630946D01*
X989813Y631098D01*
X989799Y631252D01*
X989781Y631321D01*
X989770Y631391D01*
X989721Y631538D01*
X989681Y631687D01*
X989650Y631751D01*
X989628Y631818D01*
X989554Y631954D01*
X989487Y632093D01*
X989446Y632151D01*
X989412Y632213D01*
X989315Y632334D01*
X989225Y632459D01*
X989174Y632509D01*
X989130Y632564D01*
X989013Y632666D01*
X988903Y632773D01*
X988844Y632813D01*
X988790Y632860D01*
X988658Y632939D01*
X988530Y633025D01*
X988464Y633054D01*
X988403Y633091D01*
X988259Y633145D01*
X988118Y633208D01*
X988049Y633225D01*
X987982Y633250D01*
X987830Y633278D01*
X987680Y633314D01*
X987609Y633319D01*
X987539Y633332D01*
X987385Y633333D01*
X987231Y633342D01*
X987160Y633334D01*
X987089Y633334D01*
X986937Y633308D01*
X986784Y633290D01*
X986715Y633269D01*
X986646Y633257D01*
X986501Y633204D01*
X986353Y633160D01*
X986289Y633127D01*
X986222Y633103D01*
X986089Y633025D01*
X985951Y632955D01*
X985895Y632912D01*
X985833Y632877D01*
X985716Y632777D01*
X985593Y632683D01*
X985544Y632631D01*
X985490Y632585D01*
X985344Y632417D01*
X983713Y630786D01*
X981917Y629407D01*
X979956Y628275D01*
X977864Y627409D01*
X975677Y626823D01*
X974839Y626713D01*
X974839Y643800D01*
X974839Y660887D01*
X975677Y660777D01*
X977864Y660191D01*
X979956Y659325D01*
X981917Y658193D01*
X983713Y656814D01*
X985345Y655183D01*
X985375Y655141D01*
X985486Y655033D01*
X985590Y654919D01*
X985646Y654876D01*
X985697Y654827D01*
X985826Y654740D01*
X985948Y654647D01*
X986011Y654614D01*
X986070Y654575D01*
X986212Y654512D01*
X986349Y654442D01*
X986417Y654421D01*
X986482Y654392D01*
X986632Y654356D01*
X986780Y654311D01*
X986851Y654303D01*
X986920Y654286D01*
X987074Y654276D01*
X987227Y654258D01*
X987298Y654262D01*
X987369Y654258D01*
X987523Y654276D01*
X987677Y654285D01*
X987746Y654302D01*
X987816Y654310D01*
X987964Y654355D01*
X988114Y654391D01*
X988179Y654420D01*
X988247Y654440D01*
X988385Y654510D01*
X988526Y654573D01*
X988585Y654612D01*
X988649Y654645D01*
X988771Y654738D01*
X988900Y654824D01*
X988951Y654874D01*
X989007Y654917D01*
X989112Y655030D01*
X989223Y655138D01*
X989264Y655196D01*
X989313Y655248D01*
X989395Y655378D01*
X989486Y655503D01*
X989516Y655568D01*
X989554Y655628D01*
X989613Y655771D01*
X989679Y655910D01*
X989698Y655978D01*
X989725Y656044D01*
X989758Y656195D01*
X989799Y656344D01*
X989805Y656415D01*
X989820Y656484D01*
X989839Y656784D01*
X989839Y656792D01*
X989839Y656794D01*
X989839Y656796D01*
X989839Y673643D01*
X989824Y673820D01*
X989814Y673997D01*
X989804Y674044D01*
X989799Y674092D01*
X989753Y674263D01*
X989712Y674436D01*
X989693Y674480D01*
X989681Y674526D01*
X989605Y674686D01*
X989534Y674850D01*
X989508Y674890D01*
X989487Y674933D01*
X989384Y675077D01*
X989286Y675225D01*
X989253Y675260D01*
X989225Y675299D01*
X989098Y675423D01*
X988975Y675551D01*
X988937Y675579D01*
X988903Y675613D01*
X988755Y675712D01*
X988612Y675817D01*
X988569Y675838D01*
X988530Y675865D01*
X988367Y675937D01*
X988208Y676015D01*
X988162Y676028D01*
X988118Y676047D01*
X987945Y676089D01*
X987774Y676138D01*
X987727Y676142D01*
X987680Y676154D01*
X987503Y676165D01*
X987326Y676182D01*
X987279Y676179D01*
X987231Y676181D01*
X987054Y676161D01*
X986877Y676147D01*
X986831Y676135D01*
X986784Y676129D01*
X986613Y676078D01*
X986442Y676033D01*
X986399Y676013D01*
X986353Y675999D01*
X986195Y675919D01*
X986033Y675844D01*
X985994Y675816D01*
X985951Y675795D01*
X985810Y675688D01*
X985664Y675586D01*
X985631Y675552D01*
X985593Y675523D01*
X985472Y675392D01*
X985347Y675266D01*
X985320Y675227D01*
X985288Y675192D01*
X985192Y675042D01*
X985091Y674896D01*
X985065Y674843D01*
X985046Y674812D01*
X985022Y674753D01*
X984954Y674615D01*
X984574Y673698D01*
X980502Y669626D01*
X975180Y667421D01*
X969420Y667421D01*
X964098Y669626D01*
X961204Y672520D01*
X961079Y672625D01*
X960957Y672737D01*
X960906Y672769D01*
X960859Y672808D01*
X960717Y672890D01*
X960578Y672978D01*
X960521Y673002D01*
X960468Y673032D01*
X960313Y673087D01*
X960161Y673149D01*
X960101Y673162D01*
X960044Y673183D01*
X959882Y673209D01*
X959721Y673244D01*
X959644Y673249D01*
X959600Y673256D01*
X959539Y673255D01*
X959409Y673263D01*
X486191Y673263D01*
X486027Y673249D01*
X485863Y673242D01*
X485803Y673229D01*
X485743Y673223D01*
X485584Y673180D01*
X485423Y673144D01*
X485367Y673121D01*
X485308Y673105D01*
X485160Y673034D01*
X485008Y672971D01*
X484956Y672938D01*
X484902Y672911D01*
X484768Y672816D01*
X484630Y672726D01*
X484572Y672675D01*
X484535Y672649D01*
X484493Y672606D01*
X484396Y672520D01*
X481502Y669626D01*
X476180Y667421D01*
X470420Y667421D01*
X465098Y669626D01*
X462204Y672520D01*
X462078Y672625D01*
X461957Y672737D01*
X461906Y672769D01*
X461859Y672808D01*
X461716Y672890D01*
X461578Y672978D01*
X461521Y673002D01*
X461468Y673032D01*
X461313Y673087D01*
X461161Y673149D01*
X461101Y673162D01*
X461044Y673183D01*
X460882Y673209D01*
X460721Y673244D01*
X460644Y673249D01*
X460600Y673256D01*
X460539Y673255D01*
X460409Y673263D01*
X435529Y673263D01*
X435366Y673249D01*
X435201Y673242D01*
X435142Y673229D01*
X435081Y673223D01*
X434922Y673180D01*
X434762Y673144D01*
X434705Y673121D01*
X434646Y673105D01*
X434498Y673034D01*
X434346Y672971D01*
X434295Y672938D01*
X434240Y672911D01*
X434106Y672816D01*
X433968Y672726D01*
X433910Y672675D01*
X433874Y672649D01*
X433831Y672606D01*
X433734Y672520D01*
X394380Y633166D01*
X394275Y633040D01*
X394163Y632919D01*
X394131Y632868D01*
X394092Y632821D01*
X394010Y632678D01*
X393922Y632539D01*
X393898Y632483D01*
X393868Y632430D01*
X393813Y632275D01*
X393751Y632123D01*
X393738Y632063D01*
X393717Y632006D01*
X393691Y631843D01*
X393656Y631683D01*
X393651Y631606D01*
X393644Y631561D01*
X393645Y631500D01*
X393637Y631371D01*
X393637Y482629D01*
X393651Y482466D01*
X393658Y482301D01*
X393671Y482242D01*
X393677Y482181D01*
X393720Y482022D01*
X393756Y481862D01*
X393779Y481805D01*
X393795Y481746D01*
X393866Y481598D01*
X393929Y481446D01*
X393962Y481395D01*
X393989Y481340D01*
X394084Y481206D01*
X394174Y481068D01*
X394225Y481010D01*
X394251Y480974D01*
X394294Y480931D01*
X394380Y480834D01*
X424834Y450380D01*
X424960Y450275D01*
X425081Y450163D01*
X425132Y450131D01*
X425179Y450092D01*
X425322Y450010D01*
X425461Y449922D01*
X425517Y449898D01*
X425570Y449868D01*
X425725Y449813D01*
X425877Y449751D01*
X425937Y449738D01*
X425994Y449717D01*
X426157Y449691D01*
X426317Y449656D01*
X426394Y449651D01*
X426439Y449644D01*
X426500Y449645D01*
X426629Y449637D01*
X430610Y449637D01*
X430774Y449651D01*
X430939Y449658D01*
X430998Y449671D01*
X431059Y449677D01*
X431218Y449720D01*
X431378Y449756D01*
X431435Y449779D01*
X431493Y449795D01*
X431641Y449866D01*
X431794Y449929D01*
X431845Y449962D01*
X431900Y449989D01*
X432033Y450084D01*
X432172Y450174D01*
X432230Y450225D01*
X432266Y450251D01*
X432309Y450294D01*
X432406Y450380D01*
X435731Y453705D01*
X441239Y455987D01*
X447201Y455987D01*
X452709Y453705D01*
X456925Y449489D01*
X457286Y448617D01*
X457324Y448544D01*
X457354Y448467D01*
X457429Y448345D01*
X457495Y448218D01*
X457545Y448153D01*
X457588Y448083D01*
X457683Y447976D01*
X457771Y447862D01*
X457832Y447807D01*
X457886Y447745D01*
X457998Y447657D01*
X458105Y447561D01*
X458175Y447517D01*
X458239Y447466D01*
X458366Y447398D01*
X458487Y447323D01*
X458564Y447292D01*
X458636Y447253D01*
X458772Y447209D01*
X458905Y447156D01*
X458986Y447140D01*
X459064Y447114D01*
X459206Y447095D01*
X459347Y447066D01*
X459429Y447064D01*
X459511Y447053D01*
X459654Y447059D01*
X459797Y447055D01*
X459878Y447068D01*
X459960Y447071D01*
X460100Y447102D01*
X460242Y447124D01*
X460320Y447151D01*
X460400Y447169D01*
X460532Y447224D01*
X460667Y447270D01*
X460739Y447310D01*
X460815Y447342D01*
X460936Y447420D01*
X461061Y447490D01*
X461124Y447542D01*
X461194Y447587D01*
X461379Y447750D01*
X461409Y447775D01*
X461416Y447783D01*
X461428Y447794D01*
X472415Y458781D01*
X477241Y458781D01*
X477241Y441000D01*
X477241Y423219D01*
X472415Y423219D01*
X461428Y434206D01*
X461365Y434259D01*
X461308Y434319D01*
X461192Y434404D01*
X461082Y434495D01*
X461011Y434536D01*
X460944Y434585D01*
X460816Y434648D01*
X460692Y434719D01*
X460614Y434746D01*
X460540Y434782D01*
X460402Y434822D01*
X460267Y434870D01*
X460186Y434883D01*
X460107Y434905D01*
X459964Y434920D01*
X459823Y434943D01*
X459741Y434942D01*
X459659Y434950D01*
X459516Y434939D01*
X459373Y434937D01*
X459292Y434921D01*
X459210Y434915D01*
X459071Y434879D01*
X458931Y434851D01*
X458854Y434822D01*
X458774Y434801D01*
X458644Y434741D01*
X458511Y434689D01*
X458440Y434646D01*
X458366Y434612D01*
X458248Y434530D01*
X458126Y434455D01*
X458064Y434401D01*
X457997Y434353D01*
X457896Y434252D01*
X457789Y434157D01*
X457737Y434092D01*
X457679Y434034D01*
X457598Y433916D01*
X457509Y433804D01*
X457470Y433731D01*
X457423Y433663D01*
X457315Y433442D01*
X457297Y433407D01*
X457293Y433397D01*
X457286Y433383D01*
X456925Y432511D01*
X454380Y429966D01*
X454275Y429840D01*
X454163Y429719D01*
X454131Y429667D01*
X454092Y429621D01*
X454010Y429478D01*
X453922Y429339D01*
X453898Y429283D01*
X453868Y429230D01*
X453813Y429075D01*
X453751Y428923D01*
X453738Y428863D01*
X453717Y428805D01*
X453691Y428643D01*
X453656Y428482D01*
X453651Y428405D01*
X453644Y428361D01*
X453645Y428300D01*
X453637Y428170D01*
X453637Y350491D01*
X453651Y350327D01*
X453658Y350163D01*
X453671Y350103D01*
X453677Y350043D01*
X453720Y349884D01*
X453756Y349723D01*
X453779Y349667D01*
X453795Y349608D01*
X453866Y349460D01*
X453929Y349308D01*
X453962Y349256D01*
X453989Y349202D01*
X454084Y349068D01*
X454174Y348930D01*
X454225Y348872D01*
X454251Y348835D01*
X454294Y348793D01*
X454380Y348696D01*
X455904Y347172D01*
X455931Y347149D01*
X455954Y347123D01*
X456103Y347005D01*
X456250Y346883D01*
X456280Y346865D01*
X456307Y346844D01*
X456475Y346754D01*
X456641Y346659D01*
X456673Y346648D01*
X456704Y346631D01*
X456885Y346572D01*
X457065Y346508D01*
X457099Y346503D01*
X457132Y346492D01*
X457321Y346466D01*
X457509Y346435D01*
X457544Y346435D01*
X457578Y346431D01*
X457769Y346438D01*
X457960Y346441D01*
X457994Y346448D01*
X458028Y346449D01*
X458214Y346490D01*
X458402Y346527D01*
X458434Y346539D01*
X458468Y346547D01*
X458643Y346620D01*
X458822Y346689D01*
X458851Y346707D01*
X458883Y346720D01*
X459043Y346824D01*
X459206Y346923D01*
X459232Y346946D01*
X459261Y346965D01*
X459496Y347172D01*
X461020Y348696D01*
X461114Y348809D01*
X461123Y348818D01*
X461127Y348824D01*
X461237Y348943D01*
X461269Y348994D01*
X461308Y349041D01*
X461390Y349184D01*
X461478Y349322D01*
X461502Y349379D01*
X461532Y349432D01*
X461587Y349587D01*
X461649Y349739D01*
X461662Y349799D01*
X461683Y349856D01*
X461709Y350018D01*
X461744Y350179D01*
X461749Y350256D01*
X461756Y350300D01*
X461755Y350361D01*
X461763Y350491D01*
X461763Y353118D01*
X463078Y356292D01*
X509108Y402322D01*
X509616Y402532D01*
X509803Y402630D01*
X509993Y402727D01*
X510003Y402735D01*
X510015Y402741D01*
X510182Y402870D01*
X510351Y402999D01*
X510360Y403008D01*
X510371Y403017D01*
X510513Y403174D01*
X510657Y403330D01*
X510664Y403341D01*
X510672Y403351D01*
X510785Y403531D01*
X510898Y403710D01*
X510903Y403722D01*
X510910Y403733D01*
X510989Y403930D01*
X511069Y404126D01*
X511072Y404139D01*
X511077Y404151D01*
X511119Y404358D01*
X511164Y404566D01*
X511165Y404582D01*
X511167Y404592D01*
X511168Y404632D01*
X511183Y404878D01*
X511183Y405348D01*
X513271Y410390D01*
X517130Y414249D01*
X522172Y416337D01*
X527628Y416337D01*
X532670Y414248D01*
X535804Y411114D01*
X535831Y411092D01*
X535854Y411066D01*
X536003Y410947D01*
X536150Y410825D01*
X536180Y410808D01*
X536207Y410786D01*
X536375Y410696D01*
X536541Y410602D01*
X536573Y410590D01*
X536604Y410574D01*
X536785Y410515D01*
X536965Y410451D01*
X536999Y410445D01*
X537032Y410435D01*
X537221Y410408D01*
X537409Y410377D01*
X537444Y410378D01*
X537478Y410373D01*
X537669Y410381D01*
X537859Y410383D01*
X537894Y410390D01*
X537928Y410391D01*
X538114Y410433D01*
X538302Y410469D01*
X538334Y410482D01*
X538368Y410489D01*
X538544Y410563D01*
X538722Y410631D01*
X538751Y410649D01*
X538783Y410663D01*
X538944Y410766D01*
X539106Y410865D01*
X539132Y410888D01*
X539161Y410907D01*
X539396Y411114D01*
X542530Y414249D01*
X547572Y416337D01*
X553028Y416337D01*
X558070Y414248D01*
X561204Y411114D01*
X561231Y411092D01*
X561254Y411066D01*
X561403Y410947D01*
X561550Y410825D01*
X561580Y410808D01*
X561607Y410786D01*
X561775Y410696D01*
X561941Y410602D01*
X561973Y410590D01*
X562004Y410574D01*
X562185Y410515D01*
X562365Y410451D01*
X562399Y410445D01*
X562432Y410435D01*
X562621Y410408D01*
X562809Y410377D01*
X562844Y410378D01*
X562878Y410373D01*
X563069Y410381D01*
X563259Y410383D01*
X563294Y410390D01*
X563328Y410391D01*
X563514Y410433D01*
X563702Y410469D01*
X563734Y410482D01*
X563768Y410489D01*
X563944Y410563D01*
X564122Y410631D01*
X564151Y410649D01*
X564183Y410663D01*
X564344Y410766D01*
X564506Y410865D01*
X564532Y410888D01*
X564561Y410907D01*
X564796Y411114D01*
X567930Y414249D01*
X572972Y416337D01*
X578428Y416337D01*
X583470Y414248D01*
X586604Y411114D01*
X586631Y411092D01*
X586654Y411066D01*
X586803Y410947D01*
X586950Y410825D01*
X586980Y410808D01*
X587007Y410786D01*
X587175Y410696D01*
X587341Y410602D01*
X587373Y410590D01*
X587404Y410574D01*
X587585Y410515D01*
X587765Y410451D01*
X587799Y410445D01*
X587832Y410435D01*
X588021Y410408D01*
X588209Y410377D01*
X588244Y410378D01*
X588278Y410373D01*
X588469Y410381D01*
X588659Y410383D01*
X588694Y410390D01*
X588728Y410391D01*
X588914Y410433D01*
X589102Y410469D01*
X589134Y410482D01*
X589168Y410489D01*
X589344Y410563D01*
X589522Y410631D01*
X589551Y410649D01*
X589583Y410663D01*
X589744Y410766D01*
X589906Y410865D01*
X589932Y410888D01*
X589961Y410907D01*
X590196Y411114D01*
X593330Y414249D01*
X598372Y416337D01*
X603828Y416337D01*
X608870Y414248D01*
X612004Y411114D01*
X612031Y411092D01*
X612054Y411066D01*
X612203Y410947D01*
X612350Y410825D01*
X612380Y410808D01*
X612407Y410786D01*
X612575Y410696D01*
X612741Y410602D01*
X612773Y410590D01*
X612804Y410574D01*
X612985Y410515D01*
X613165Y410451D01*
X613199Y410445D01*
X613232Y410435D01*
X613421Y410408D01*
X613609Y410377D01*
X613644Y410378D01*
X613678Y410373D01*
X613869Y410381D01*
X614059Y410383D01*
X614094Y410390D01*
X614128Y410391D01*
X614314Y410433D01*
X614502Y410469D01*
X614534Y410482D01*
X614568Y410489D01*
X614744Y410563D01*
X614922Y410631D01*
X614951Y410649D01*
X614983Y410663D01*
X615144Y410766D01*
X615306Y410865D01*
X615332Y410888D01*
X615361Y410907D01*
X615596Y411114D01*
X618730Y414249D01*
X623772Y416337D01*
X629228Y416337D01*
X634270Y414248D01*
X637404Y411114D01*
X637431Y411092D01*
X637454Y411066D01*
X637603Y410947D01*
X637750Y410825D01*
X637780Y410808D01*
X637807Y410786D01*
X637975Y410696D01*
X638141Y410602D01*
X638173Y410590D01*
X638204Y410574D01*
X638385Y410515D01*
X638565Y410451D01*
X638599Y410445D01*
X638632Y410435D01*
X638821Y410408D01*
X639009Y410377D01*
X639044Y410378D01*
X639078Y410373D01*
X639269Y410381D01*
X639459Y410383D01*
X639494Y410390D01*
X639528Y410391D01*
X639714Y410433D01*
X639902Y410469D01*
X639934Y410482D01*
X639968Y410489D01*
X640144Y410563D01*
X640322Y410631D01*
X640351Y410649D01*
X640383Y410663D01*
X640544Y410766D01*
X640706Y410865D01*
X640732Y410888D01*
X640761Y410907D01*
X640996Y411114D01*
X644130Y414249D01*
X649172Y416337D01*
X654628Y416337D01*
X659670Y414248D01*
X662804Y411114D01*
X662831Y411092D01*
X662854Y411066D01*
X663003Y410947D01*
X663150Y410825D01*
X663180Y410808D01*
X663207Y410786D01*
X663375Y410696D01*
X663541Y410602D01*
X663573Y410590D01*
X663604Y410574D01*
X663785Y410515D01*
X663965Y410451D01*
X663999Y410445D01*
X664032Y410435D01*
X664221Y410408D01*
X664409Y410377D01*
X664444Y410378D01*
X664478Y410373D01*
X664669Y410381D01*
X664859Y410383D01*
X664894Y410390D01*
X664928Y410391D01*
X665114Y410433D01*
X665302Y410469D01*
X665334Y410482D01*
X665368Y410489D01*
X665544Y410563D01*
X665722Y410631D01*
X665751Y410649D01*
X665783Y410663D01*
X665944Y410766D01*
X666106Y410865D01*
X666132Y410888D01*
X666161Y410907D01*
X666396Y411114D01*
X669530Y414249D01*
X674572Y416337D01*
X680028Y416337D01*
X685070Y414248D01*
X688204Y411114D01*
X688231Y411092D01*
X688254Y411066D01*
X688403Y410947D01*
X688550Y410825D01*
X688580Y410808D01*
X688607Y410786D01*
X688775Y410696D01*
X688941Y410602D01*
X688973Y410590D01*
X689004Y410574D01*
X689185Y410515D01*
X689365Y410451D01*
X689399Y410445D01*
X689432Y410435D01*
X689621Y410408D01*
X689809Y410377D01*
X689844Y410378D01*
X689878Y410373D01*
X690069Y410381D01*
X690259Y410383D01*
X690294Y410390D01*
X690328Y410391D01*
X690514Y410433D01*
X690702Y410469D01*
X690734Y410482D01*
X690768Y410489D01*
X690944Y410563D01*
X691122Y410631D01*
X691151Y410649D01*
X691183Y410663D01*
X691344Y410766D01*
X691506Y410865D01*
X691532Y410888D01*
X691561Y410907D01*
X691796Y411114D01*
X694930Y414249D01*
X699972Y416337D01*
X705428Y416337D01*
X710470Y414248D01*
X713604Y411114D01*
X713631Y411092D01*
X713654Y411066D01*
X713803Y410947D01*
X713950Y410825D01*
X713980Y410808D01*
X714007Y410786D01*
X714175Y410696D01*
X714341Y410602D01*
X714373Y410590D01*
X714404Y410574D01*
X714585Y410515D01*
X714765Y410451D01*
X714799Y410445D01*
X714832Y410435D01*
X715021Y410408D01*
X715209Y410377D01*
X715244Y410378D01*
X715278Y410373D01*
X715469Y410381D01*
X715659Y410383D01*
X715694Y410390D01*
X715728Y410391D01*
X715914Y410433D01*
X716102Y410469D01*
X716134Y410482D01*
X716168Y410489D01*
X716344Y410563D01*
X716522Y410631D01*
X716551Y410649D01*
X716583Y410663D01*
X716744Y410766D01*
X716906Y410865D01*
X716932Y410888D01*
X716961Y410907D01*
X717196Y411114D01*
X720330Y414249D01*
X725372Y416337D01*
X730828Y416337D01*
X735870Y414249D01*
X739004Y411114D01*
X739031Y411092D01*
X739054Y411066D01*
X739203Y410948D01*
X739350Y410825D01*
X739380Y410808D01*
X739407Y410786D01*
X739575Y410696D01*
X739741Y410602D01*
X739773Y410590D01*
X739804Y410574D01*
X739985Y410515D01*
X740165Y410451D01*
X740199Y410445D01*
X740232Y410435D01*
X740421Y410409D01*
X740609Y410377D01*
X740644Y410378D01*
X740678Y410373D01*
X740869Y410381D01*
X741060Y410383D01*
X741094Y410390D01*
X741128Y410391D01*
X741314Y410433D01*
X741502Y410469D01*
X741534Y410482D01*
X741568Y410489D01*
X741743Y410562D01*
X741922Y410631D01*
X741951Y410649D01*
X741983Y410663D01*
X742143Y410766D01*
X742306Y410865D01*
X742332Y410888D01*
X742361Y410907D01*
X742596Y411114D01*
X745730Y414248D01*
X750772Y416337D01*
X756228Y416337D01*
X761270Y414248D01*
X764404Y411114D01*
X764431Y411092D01*
X764454Y411066D01*
X764603Y410947D01*
X764750Y410825D01*
X764780Y410808D01*
X764807Y410786D01*
X764975Y410696D01*
X765141Y410602D01*
X765173Y410590D01*
X765204Y410574D01*
X765385Y410515D01*
X765565Y410451D01*
X765599Y410445D01*
X765632Y410435D01*
X765821Y410408D01*
X766009Y410377D01*
X766044Y410378D01*
X766078Y410373D01*
X766269Y410381D01*
X766459Y410383D01*
X766494Y410390D01*
X766528Y410391D01*
X766714Y410433D01*
X766902Y410469D01*
X766934Y410482D01*
X766968Y410489D01*
X767144Y410563D01*
X767322Y410631D01*
X767351Y410649D01*
X767383Y410663D01*
X767544Y410766D01*
X767706Y410865D01*
X767732Y410888D01*
X767761Y410907D01*
X767996Y411114D01*
X771130Y414249D01*
X776172Y416337D01*
X781628Y416337D01*
X786670Y414248D01*
X789804Y411114D01*
X789831Y411092D01*
X789854Y411066D01*
X790003Y410947D01*
X790150Y410825D01*
X790180Y410808D01*
X790207Y410786D01*
X790375Y410696D01*
X790541Y410602D01*
X790573Y410590D01*
X790604Y410574D01*
X790785Y410515D01*
X790965Y410451D01*
X790999Y410445D01*
X791032Y410435D01*
X791221Y410408D01*
X791409Y410377D01*
X791444Y410378D01*
X791478Y410373D01*
X791669Y410381D01*
X791859Y410383D01*
X791894Y410390D01*
X791928Y410391D01*
X792114Y410433D01*
X792302Y410469D01*
X792334Y410482D01*
X792368Y410489D01*
X792544Y410563D01*
X792722Y410631D01*
X792751Y410649D01*
X792783Y410663D01*
X792944Y410766D01*
X793106Y410865D01*
X793132Y410888D01*
X793161Y410907D01*
X793396Y411114D01*
X796530Y414249D01*
X801572Y416337D01*
X807028Y416337D01*
X812070Y414248D01*
X815204Y411114D01*
X815231Y411092D01*
X815254Y411066D01*
X815403Y410947D01*
X815550Y410825D01*
X815580Y410808D01*
X815607Y410786D01*
X815775Y410696D01*
X815941Y410602D01*
X815973Y410590D01*
X816004Y410574D01*
X816185Y410515D01*
X816365Y410451D01*
X816399Y410445D01*
X816432Y410435D01*
X816621Y410408D01*
X816809Y410377D01*
X816844Y410378D01*
X816878Y410373D01*
X817069Y410381D01*
X817259Y410383D01*
X817294Y410390D01*
X817328Y410391D01*
X817514Y410433D01*
X817702Y410469D01*
X817734Y410482D01*
X817768Y410489D01*
X817944Y410563D01*
X818122Y410631D01*
X818151Y410649D01*
X818183Y410663D01*
X818344Y410766D01*
X818506Y410865D01*
X818532Y410888D01*
X818561Y410907D01*
X818796Y411114D01*
X821930Y414249D01*
X826972Y416337D01*
X832428Y416337D01*
X837470Y414248D01*
X840604Y411114D01*
X840631Y411092D01*
X840654Y411066D01*
X840803Y410947D01*
X840950Y410825D01*
X840980Y410808D01*
X841007Y410786D01*
X841175Y410696D01*
X841341Y410602D01*
X841373Y410590D01*
X841404Y410574D01*
X841585Y410515D01*
X841765Y410451D01*
X841799Y410445D01*
X841832Y410435D01*
X842021Y410408D01*
X842209Y410377D01*
X842244Y410378D01*
X842278Y410373D01*
X842469Y410381D01*
X842659Y410383D01*
X842694Y410390D01*
X842728Y410391D01*
X842914Y410433D01*
X843102Y410469D01*
X843134Y410482D01*
X843168Y410489D01*
X843344Y410563D01*
X843522Y410631D01*
X843551Y410649D01*
X843583Y410663D01*
X843744Y410766D01*
X843906Y410865D01*
X843932Y410888D01*
X843961Y410907D01*
X844196Y411114D01*
X847330Y414249D01*
X852372Y416337D01*
X857828Y416337D01*
X862870Y414249D01*
X866729Y410390D01*
X868817Y405348D01*
X868817Y392549D01*
X868831Y392386D01*
X868838Y392221D01*
X868851Y392162D01*
X868857Y392101D01*
X868900Y391942D01*
X868936Y391782D01*
X868959Y391725D01*
X868975Y391666D01*
X869046Y391518D01*
X869109Y391366D01*
X869142Y391315D01*
X869169Y391260D01*
X869264Y391126D01*
X869354Y390988D01*
X869405Y390930D01*
X869431Y390894D01*
X869474Y390851D01*
X869560Y390754D01*
X909591Y350723D01*
X909605Y350697D01*
X909705Y350567D01*
X909800Y350432D01*
X909843Y350389D01*
X909880Y350341D01*
X910002Y350231D01*
X910119Y350115D01*
X910169Y350080D01*
X910215Y350039D01*
X910273Y350003D01*
X914474Y345802D01*
X916679Y340480D01*
X916679Y334720D01*
X914474Y329398D01*
X910402Y325326D01*
X905080Y323121D01*
X899320Y323121D01*
X893998Y325326D01*
X891296Y328028D01*
X891269Y328051D01*
X891246Y328077D01*
X891097Y328195D01*
X890950Y328317D01*
X890920Y328335D01*
X890893Y328356D01*
X890725Y328446D01*
X890559Y328541D01*
X890527Y328552D01*
X890496Y328569D01*
X890315Y328628D01*
X890135Y328692D01*
X890101Y328697D01*
X890068Y328708D01*
X889879Y328734D01*
X889691Y328765D01*
X889656Y328765D01*
X889622Y328769D01*
X889431Y328761D01*
X889241Y328759D01*
X889206Y328752D01*
X889172Y328751D01*
X888986Y328710D01*
X888798Y328673D01*
X888766Y328661D01*
X888732Y328653D01*
X888556Y328580D01*
X888378Y328511D01*
X888349Y328493D01*
X888317Y328480D01*
X888156Y328376D01*
X887994Y328277D01*
X887968Y328254D01*
X887939Y328235D01*
X887704Y328028D01*
X885002Y325326D01*
X879680Y323121D01*
X873920Y323121D01*
X868598Y325326D01*
X865896Y328028D01*
X865869Y328051D01*
X865846Y328077D01*
X865697Y328195D01*
X865550Y328317D01*
X865520Y328335D01*
X865493Y328356D01*
X865325Y328446D01*
X865159Y328541D01*
X865127Y328552D01*
X865096Y328569D01*
X864915Y328628D01*
X864735Y328692D01*
X864701Y328697D01*
X864668Y328708D01*
X864479Y328734D01*
X864291Y328765D01*
X864256Y328765D01*
X864222Y328769D01*
X864031Y328761D01*
X863841Y328759D01*
X863806Y328752D01*
X863772Y328751D01*
X863586Y328710D01*
X863398Y328673D01*
X863366Y328661D01*
X863332Y328653D01*
X863156Y328580D01*
X862978Y328511D01*
X862949Y328493D01*
X862917Y328480D01*
X862756Y328376D01*
X862594Y328277D01*
X862568Y328254D01*
X862539Y328235D01*
X862304Y328028D01*
X859602Y325326D01*
X854280Y323121D01*
X848520Y323121D01*
X843198Y325326D01*
X840496Y328028D01*
X840469Y328051D01*
X840446Y328077D01*
X840297Y328195D01*
X840150Y328317D01*
X840120Y328335D01*
X840093Y328356D01*
X839925Y328446D01*
X839759Y328541D01*
X839727Y328552D01*
X839696Y328569D01*
X839515Y328628D01*
X839335Y328692D01*
X839301Y328697D01*
X839268Y328708D01*
X839079Y328734D01*
X838891Y328765D01*
X838856Y328765D01*
X838822Y328769D01*
X838631Y328761D01*
X838441Y328759D01*
X838406Y328752D01*
X838372Y328751D01*
X838186Y328710D01*
X837998Y328673D01*
X837966Y328661D01*
X837932Y328653D01*
X837756Y328580D01*
X837578Y328511D01*
X837549Y328493D01*
X837517Y328480D01*
X837356Y328376D01*
X837194Y328277D01*
X837168Y328254D01*
X837139Y328235D01*
X836904Y328028D01*
X834202Y325326D01*
X828880Y323121D01*
X823120Y323121D01*
X817798Y325326D01*
X815096Y328028D01*
X815069Y328051D01*
X815046Y328077D01*
X814897Y328195D01*
X814750Y328317D01*
X814720Y328335D01*
X814693Y328356D01*
X814525Y328446D01*
X814359Y328541D01*
X814327Y328552D01*
X814296Y328569D01*
X814115Y328628D01*
X813935Y328692D01*
X813901Y328697D01*
X813868Y328708D01*
X813679Y328734D01*
X813491Y328765D01*
X813456Y328765D01*
X813422Y328769D01*
X813231Y328761D01*
X813041Y328759D01*
X813006Y328752D01*
X812972Y328751D01*
X812786Y328710D01*
X812598Y328673D01*
X812566Y328661D01*
X812532Y328653D01*
X812356Y328580D01*
X812178Y328511D01*
X812149Y328493D01*
X812117Y328480D01*
X811956Y328376D01*
X811794Y328277D01*
X811768Y328254D01*
X811739Y328235D01*
X811504Y328028D01*
X808802Y325326D01*
X803480Y323121D01*
X797720Y323121D01*
X792398Y325326D01*
X789696Y328028D01*
X789669Y328051D01*
X789646Y328077D01*
X789497Y328195D01*
X789350Y328317D01*
X789320Y328335D01*
X789293Y328356D01*
X789125Y328446D01*
X788959Y328541D01*
X788927Y328552D01*
X788896Y328569D01*
X788715Y328628D01*
X788535Y328692D01*
X788501Y328697D01*
X788468Y328708D01*
X788279Y328734D01*
X788091Y328765D01*
X788056Y328765D01*
X788022Y328769D01*
X787831Y328761D01*
X787641Y328759D01*
X787606Y328752D01*
X787572Y328751D01*
X787386Y328710D01*
X787198Y328673D01*
X787166Y328661D01*
X787132Y328653D01*
X786956Y328580D01*
X786778Y328511D01*
X786749Y328493D01*
X786717Y328480D01*
X786556Y328376D01*
X786394Y328277D01*
X786368Y328254D01*
X786339Y328235D01*
X786104Y328028D01*
X783402Y325326D01*
X778080Y323121D01*
X772320Y323121D01*
X766998Y325326D01*
X764296Y328028D01*
X764269Y328051D01*
X764246Y328077D01*
X764097Y328195D01*
X763950Y328317D01*
X763920Y328335D01*
X763893Y328356D01*
X763725Y328446D01*
X763559Y328541D01*
X763527Y328552D01*
X763496Y328569D01*
X763315Y328628D01*
X763135Y328692D01*
X763101Y328697D01*
X763068Y328708D01*
X762879Y328734D01*
X762691Y328765D01*
X762656Y328765D01*
X762622Y328769D01*
X762431Y328762D01*
X762240Y328759D01*
X762206Y328752D01*
X762172Y328751D01*
X761986Y328710D01*
X761798Y328673D01*
X761766Y328661D01*
X761732Y328653D01*
X761557Y328580D01*
X761378Y328511D01*
X761349Y328493D01*
X761317Y328480D01*
X761157Y328376D01*
X760994Y328277D01*
X760968Y328254D01*
X760939Y328235D01*
X760704Y328028D01*
X758002Y325326D01*
X752680Y323121D01*
X746920Y323121D01*
X741598Y325326D01*
X738896Y328028D01*
X738869Y328051D01*
X738846Y328077D01*
X738697Y328195D01*
X738550Y328317D01*
X738520Y328335D01*
X738493Y328356D01*
X738325Y328446D01*
X738159Y328541D01*
X738127Y328552D01*
X738096Y328569D01*
X737915Y328628D01*
X737735Y328692D01*
X737701Y328697D01*
X737668Y328708D01*
X737479Y328734D01*
X737291Y328765D01*
X737256Y328765D01*
X737222Y328769D01*
X737031Y328761D01*
X736841Y328759D01*
X736806Y328752D01*
X736772Y328751D01*
X736586Y328710D01*
X736398Y328673D01*
X736366Y328661D01*
X736332Y328653D01*
X736156Y328580D01*
X735978Y328511D01*
X735949Y328493D01*
X735917Y328480D01*
X735756Y328376D01*
X735594Y328277D01*
X735568Y328254D01*
X735539Y328235D01*
X735304Y328028D01*
X732602Y325326D01*
X727280Y323121D01*
X721520Y323121D01*
X716198Y325326D01*
X713496Y328028D01*
X713469Y328051D01*
X713446Y328077D01*
X713297Y328195D01*
X713150Y328317D01*
X713120Y328335D01*
X713093Y328356D01*
X712925Y328446D01*
X712759Y328541D01*
X712727Y328552D01*
X712696Y328569D01*
X712515Y328628D01*
X712335Y328692D01*
X712301Y328697D01*
X712268Y328708D01*
X712079Y328734D01*
X711891Y328765D01*
X711856Y328765D01*
X711822Y328769D01*
X711631Y328761D01*
X711441Y328759D01*
X711406Y328752D01*
X711372Y328751D01*
X711186Y328710D01*
X710998Y328673D01*
X710966Y328661D01*
X710932Y328653D01*
X710756Y328580D01*
X710578Y328511D01*
X710549Y328493D01*
X710517Y328480D01*
X710356Y328376D01*
X710194Y328277D01*
X710168Y328254D01*
X710139Y328235D01*
X709904Y328028D01*
X707202Y325326D01*
X701880Y323121D01*
X696120Y323121D01*
X690798Y325326D01*
X688096Y328028D01*
X688069Y328051D01*
X688046Y328077D01*
X687897Y328195D01*
X687750Y328317D01*
X687720Y328335D01*
X687693Y328356D01*
X687525Y328446D01*
X687359Y328541D01*
X687327Y328552D01*
X687296Y328569D01*
X687115Y328628D01*
X686935Y328692D01*
X686901Y328697D01*
X686868Y328708D01*
X686679Y328734D01*
X686491Y328765D01*
X686456Y328765D01*
X686422Y328769D01*
X686231Y328761D01*
X686041Y328759D01*
X686006Y328752D01*
X685972Y328751D01*
X685786Y328710D01*
X685598Y328673D01*
X685566Y328661D01*
X685532Y328653D01*
X685356Y328580D01*
X685178Y328511D01*
X685149Y328493D01*
X685117Y328480D01*
X684956Y328376D01*
X684794Y328277D01*
X684768Y328254D01*
X684739Y328235D01*
X684504Y328028D01*
X682980Y326504D01*
X682875Y326378D01*
X682763Y326257D01*
X682731Y326206D01*
X682692Y326159D01*
X682610Y326016D01*
X682522Y325878D01*
X682498Y325821D01*
X682468Y325768D01*
X682413Y325613D01*
X682351Y325461D01*
X682338Y325401D01*
X682317Y325344D01*
X682291Y325182D01*
X682256Y325021D01*
X682251Y324944D01*
X682244Y324900D01*
X682245Y324839D01*
X682237Y324709D01*
X682237Y295882D01*
X680922Y292708D01*
X647679Y259465D01*
X644892Y256678D01*
X641718Y255363D01*
X390282Y255363D01*
X387108Y256678D01*
X238678Y405108D01*
X237363Y408282D01*
X237363Y645718D01*
X238678Y648892D01*
X393308Y803522D01*
X396482Y804837D01*
X460409Y804837D01*
X460573Y804851D01*
X460737Y804858D01*
X460797Y804871D01*
X460857Y804877D01*
X461016Y804920D01*
X461177Y804956D01*
X461233Y804979D01*
X461292Y804995D01*
X461440Y805066D01*
X461592Y805129D01*
X461644Y805162D01*
X461698Y805189D01*
X461832Y805284D01*
X461970Y805374D01*
X462028Y805425D01*
X462065Y805451D01*
X462107Y805494D01*
X462204Y805580D01*
X463728Y807104D01*
X463751Y807131D01*
X463777Y807154D01*
X463894Y807303D01*
X464017Y807450D01*
X464035Y807480D01*
X464056Y807507D01*
X464146Y807675D01*
X464241Y807841D01*
X464252Y807873D01*
X464269Y807904D01*
X464328Y808085D01*
X464392Y808265D01*
X464397Y808299D01*
X464408Y808332D01*
X464434Y808521D01*
X464465Y808709D01*
X464465Y808744D01*
X464469Y808778D01*
X464462Y808969D01*
X464459Y809160D01*
X464452Y809194D01*
X464451Y809228D01*
X464410Y809414D01*
X464373Y809602D01*
X464361Y809634D01*
X464353Y809668D01*
X464280Y809844D01*
X464211Y810022D01*
X464193Y810051D01*
X464180Y810083D01*
X464076Y810243D01*
X463977Y810406D01*
X463954Y810432D01*
X463935Y810461D01*
X463728Y810696D01*
X461026Y813398D01*
X458821Y818720D01*
X458821Y824480D01*
X461026Y829802D01*
X463728Y832504D01*
X463751Y832531D01*
X463777Y832554D01*
X463895Y832703D01*
X464017Y832850D01*
X464035Y832880D01*
X464056Y832907D01*
X464146Y833075D01*
X464241Y833241D01*
X464252Y833273D01*
X464269Y833304D01*
X464328Y833485D01*
X464392Y833665D01*
X464397Y833699D01*
X464408Y833732D01*
X464434Y833921D01*
X464465Y834109D01*
X464465Y834144D01*
X464469Y834178D01*
X464461Y834369D01*
X464459Y834559D01*
X464452Y834594D01*
X464451Y834628D01*
X464410Y834814D01*
X464373Y835002D01*
X464361Y835034D01*
X464353Y835068D01*
X464280Y835244D01*
X464211Y835422D01*
X464193Y835451D01*
X464180Y835483D01*
X464076Y835644D01*
X463977Y835806D01*
X463954Y835832D01*
X463935Y835861D01*
X463728Y836096D01*
X461026Y838798D01*
X458821Y844120D01*
X458821Y849880D01*
X461026Y855202D01*
X463728Y857904D01*
X463751Y857931D01*
X463777Y857954D01*
X463895Y858103D01*
X464017Y858250D01*
X464035Y858280D01*
X464056Y858307D01*
X464146Y858475D01*
X464241Y858641D01*
X464252Y858673D01*
X464269Y858704D01*
X464327Y858884D01*
X464392Y859065D01*
X464397Y859099D01*
X464408Y859132D01*
X464434Y859321D01*
X464465Y859509D01*
X464465Y859544D01*
X464469Y859578D01*
X464461Y859769D01*
X464459Y859959D01*
X464452Y859994D01*
X464451Y860028D01*
X464410Y860214D01*
X464373Y860402D01*
X464361Y860434D01*
X464353Y860468D01*
X464280Y860644D01*
X464211Y860822D01*
X464193Y860851D01*
X464180Y860883D01*
X464076Y861044D01*
X463977Y861206D01*
X463954Y861232D01*
X463935Y861261D01*
X463728Y861496D01*
X461026Y864198D01*
X458821Y869520D01*
X458821Y875280D01*
X461026Y880602D01*
X465098Y884674D01*
X470420Y886879D01*
X476180Y886879D01*
X481502Y884674D01*
X485574Y880602D01*
X487779Y875280D01*
X487779Y869520D01*
X485574Y864198D01*
X482872Y861496D01*
X482849Y861469D01*
X482823Y861446D01*
X482705Y861297D01*
X482583Y861150D01*
X482565Y861120D01*
X482544Y861093D01*
X482454Y860925D01*
X482359Y860759D01*
X482348Y860727D01*
X482331Y860696D01*
X482272Y860515D01*
X482208Y860335D01*
X482203Y860301D01*
X482192Y860268D01*
X482166Y860079D01*
X482135Y859891D01*
X482135Y859856D01*
X482131Y859822D01*
X482138Y859631D01*
X482141Y859440D01*
X482148Y859406D01*
X482149Y859372D01*
X482190Y859186D01*
X482227Y858998D01*
X482239Y858966D01*
X482247Y858932D01*
X482320Y858757D01*
X482389Y858578D01*
X482407Y858549D01*
X482420Y858517D01*
X482524Y858357D01*
X482623Y858194D01*
X482646Y858168D01*
X482665Y858139D01*
X482872Y857904D01*
X485574Y855202D01*
X487779Y849880D01*
X487779Y844120D01*
X485574Y838798D01*
X482872Y836096D01*
X482849Y836069D01*
X482823Y836046D01*
X482705Y835897D01*
X482583Y835750D01*
X482565Y835720D01*
X482544Y835693D01*
X482454Y835525D01*
X482359Y835359D01*
X482348Y835327D01*
X482331Y835296D01*
X482272Y835115D01*
X482208Y834935D01*
X482203Y834901D01*
X482192Y834868D01*
X482166Y834679D01*
X482135Y834491D01*
X482135Y834456D01*
X482131Y834422D01*
X482138Y834231D01*
X482141Y834040D01*
X482148Y834006D01*
X482149Y833972D01*
X482190Y833786D01*
X482227Y833598D01*
X482239Y833566D01*
X482247Y833532D01*
X482320Y833357D01*
X482389Y833178D01*
X482407Y833149D01*
X482420Y833117D01*
X482524Y832957D01*
X482623Y832794D01*
X482646Y832768D01*
X482665Y832739D01*
X482872Y832504D01*
X485574Y829802D01*
X487779Y824480D01*
X487779Y818720D01*
X485574Y813398D01*
X482872Y810696D01*
X482849Y810669D01*
X482823Y810646D01*
X482705Y810497D01*
X482583Y810350D01*
X482565Y810320D01*
X482544Y810293D01*
X482454Y810125D01*
X482359Y809959D01*
X482348Y809927D01*
X482331Y809896D01*
X482272Y809715D01*
X482208Y809535D01*
X482203Y809501D01*
X482192Y809468D01*
X482166Y809279D01*
X482135Y809091D01*
X482135Y809056D01*
X482131Y809022D01*
X482138Y808831D01*
X482141Y808640D01*
X482148Y808606D01*
X482149Y808572D01*
X482190Y808386D01*
X482227Y808198D01*
X482239Y808166D01*
X482247Y808132D01*
X482320Y807957D01*
X482389Y807778D01*
X482407Y807749D01*
X482420Y807717D01*
X482524Y807557D01*
X482623Y807394D01*
X482646Y807368D01*
X482665Y807339D01*
X482872Y807104D01*
X485574Y804402D01*
X487779Y799080D01*
X487779Y793320D01*
X485574Y787998D01*
X482872Y785296D01*
X482849Y785269D01*
X482823Y785246D01*
X482705Y785097D01*
X482583Y784950D01*
X482565Y784920D01*
X482544Y784893D01*
X482454Y784725D01*
X482359Y784559D01*
X482348Y784527D01*
X482331Y784496D01*
X482272Y784315D01*
X482208Y784135D01*
X482203Y784101D01*
X482192Y784068D01*
X482166Y783879D01*
X482135Y783691D01*
X482135Y783656D01*
X482131Y783622D01*
X482138Y783431D01*
X482141Y783240D01*
X482148Y783206D01*
X482149Y783172D01*
X482190Y782986D01*
X482227Y782798D01*
X482239Y782766D01*
X482247Y782732D01*
X482320Y782557D01*
X482389Y782378D01*
X482407Y782349D01*
X482420Y782317D01*
X482524Y782157D01*
X482623Y781994D01*
X482646Y781968D01*
X482665Y781939D01*
X482872Y781704D01*
X485574Y779002D01*
X487779Y773680D01*
X487779Y767920D01*
X485574Y762598D01*
X482872Y759896D01*
X482849Y759869D01*
X482823Y759846D01*
X482705Y759697D01*
X482583Y759550D01*
X482565Y759520D01*
X482544Y759493D01*
X482454Y759325D01*
X482359Y759159D01*
X482348Y759127D01*
X482331Y759096D01*
X482272Y758915D01*
X482208Y758735D01*
X482203Y758701D01*
X482192Y758668D01*
X482166Y758479D01*
X482135Y758291D01*
X482135Y758256D01*
X482131Y758222D01*
X482139Y758031D01*
X482141Y757841D01*
X482148Y757806D01*
X482149Y757772D01*
X482190Y757586D01*
X482227Y757398D01*
X482239Y757366D01*
X482247Y757332D01*
X482320Y757156D01*
X482389Y756978D01*
X482407Y756949D01*
X482420Y756917D01*
X482524Y756756D01*
X482623Y756594D01*
X482646Y756568D01*
X482665Y756539D01*
X482872Y756304D01*
X485574Y753602D01*
X487779Y748280D01*
X487779Y742520D01*
X485574Y737198D01*
X481502Y733126D01*
X476180Y730921D01*
X470420Y730921D01*
X465098Y733126D01*
X461604Y736620D01*
X461479Y736725D01*
X461357Y736837D01*
X461306Y736869D01*
X461259Y736908D01*
X461117Y736990D01*
X460978Y737078D01*
X460921Y737102D01*
X460868Y737132D01*
X460713Y737187D01*
X460561Y737249D01*
X460501Y737262D01*
X460444Y737283D01*
X460282Y737309D01*
X460121Y737344D01*
X460044Y737349D01*
X460000Y737356D01*
X459939Y737355D01*
X459809Y737363D01*
X428629Y737363D01*
X428466Y737349D01*
X428301Y737342D01*
X428242Y737329D01*
X428181Y737323D01*
X428022Y737280D01*
X427862Y737244D01*
X427805Y737221D01*
X427746Y737205D01*
X427598Y737134D01*
X427446Y737071D01*
X427395Y737038D01*
X427340Y737011D01*
X427206Y736916D01*
X427068Y736826D01*
X427010Y736775D01*
X426974Y736749D01*
X426931Y736706D01*
X426834Y736620D01*
X368380Y678166D01*
X368275Y678040D01*
X368163Y677919D01*
X368131Y677868D01*
X368092Y677821D01*
X368010Y677678D01*
X367922Y677539D01*
X367898Y677483D01*
X367868Y677430D01*
X367813Y677275D01*
X367751Y677123D01*
X367738Y677063D01*
X367717Y677006D01*
X367691Y676843D01*
X367656Y676683D01*
X367651Y676606D01*
X367644Y676561D01*
X367645Y676500D01*
X367637Y676371D01*
X367637Y369629D01*
X367651Y369466D01*
X367658Y369301D01*
X367671Y369242D01*
X367677Y369181D01*
X367720Y369022D01*
X367756Y368862D01*
X367779Y368805D01*
X367795Y368746D01*
X367866Y368598D01*
X367929Y368446D01*
X367962Y368395D01*
X367989Y368340D01*
X368084Y368206D01*
X368174Y368068D01*
X368225Y368010D01*
X368251Y367974D01*
X368294Y367931D01*
X368380Y367834D01*
X424834Y311380D01*
X424960Y311275D01*
X425081Y311163D01*
X425132Y311131D01*
X425179Y311092D01*
X425322Y311010D01*
X425461Y310922D01*
X425517Y310898D01*
X425570Y310868D01*
X425725Y310813D01*
X425877Y310751D01*
X425937Y310738D01*
X425994Y310717D01*
X426157Y310691D01*
X426317Y310656D01*
X426394Y310651D01*
X426439Y310644D01*
X426500Y310645D01*
X426629Y310637D01*
X604371Y310637D01*
X604534Y310651D01*
X604699Y310658D01*
X604758Y310671D01*
X604819Y310677D01*
X604978Y310720D01*
X605138Y310756D01*
X605195Y310779D01*
X605254Y310795D01*
X605402Y310866D01*
X605554Y310929D01*
X605605Y310962D01*
X605660Y310989D01*
X605794Y311084D01*
X605932Y311174D01*
X605990Y311225D01*
X606026Y311251D01*
X606069Y311294D01*
X606166Y311380D01*
X613420Y318634D01*
X613525Y318760D01*
X613637Y318881D01*
X613669Y318932D01*
X613708Y318979D01*
X613790Y319122D01*
X613878Y319261D01*
X613902Y319317D01*
X613932Y319370D01*
X613987Y319525D01*
X614049Y319677D01*
X614062Y319737D01*
X614083Y319794D01*
X614109Y319957D01*
X614144Y320117D01*
X614149Y320194D01*
X614156Y320239D01*
X614155Y320300D01*
X614163Y320429D01*
X614163Y324709D01*
X614149Y324873D01*
X614142Y325037D01*
X614129Y325097D01*
X614123Y325157D01*
X614080Y325316D01*
X614044Y325477D01*
X614021Y325533D01*
X614005Y325592D01*
X613934Y325740D01*
X613871Y325892D01*
X613838Y325944D01*
X613811Y325998D01*
X613716Y326132D01*
X613626Y326270D01*
X613575Y326328D01*
X613549Y326365D01*
X613506Y326407D01*
X613420Y326504D01*
X611896Y328028D01*
X611869Y328051D01*
X611846Y328077D01*
X611697Y328194D01*
X611550Y328317D01*
X611520Y328335D01*
X611493Y328356D01*
X611325Y328446D01*
X611159Y328541D01*
X611127Y328552D01*
X611096Y328569D01*
X610915Y328628D01*
X610735Y328692D01*
X610701Y328697D01*
X610668Y328708D01*
X610479Y328734D01*
X610291Y328765D01*
X610256Y328765D01*
X610222Y328769D01*
X610031Y328762D01*
X609840Y328759D01*
X609806Y328752D01*
X609772Y328751D01*
X609586Y328710D01*
X609398Y328673D01*
X609366Y328661D01*
X609332Y328653D01*
X609156Y328580D01*
X608978Y328511D01*
X608949Y328493D01*
X608917Y328480D01*
X608757Y328376D01*
X608594Y328277D01*
X608568Y328254D01*
X608539Y328235D01*
X608304Y328028D01*
X605602Y325326D01*
X600280Y323121D01*
X594520Y323121D01*
X589198Y325326D01*
X588471Y326053D01*
X588445Y326075D01*
X588422Y326101D01*
X588273Y326219D01*
X588126Y326342D01*
X588096Y326359D01*
X588069Y326380D01*
X587901Y326470D01*
X587735Y326565D01*
X587702Y326577D01*
X587672Y326593D01*
X587490Y326652D01*
X587311Y326716D01*
X587276Y326722D01*
X587243Y326732D01*
X587054Y326758D01*
X586866Y326789D01*
X586832Y326789D01*
X586797Y326794D01*
X586606Y326786D01*
X586416Y326783D01*
X586382Y326777D01*
X586348Y326775D01*
X586161Y326734D01*
X585974Y326698D01*
X585942Y326685D01*
X585908Y326678D01*
X585732Y326604D01*
X585554Y326535D01*
X585525Y326518D01*
X585493Y326504D01*
X585332Y326400D01*
X585169Y326302D01*
X585143Y326279D01*
X585114Y326260D01*
X584880Y326053D01*
X583413Y324586D01*
X581617Y323207D01*
X579656Y322075D01*
X577564Y321209D01*
X575377Y320623D01*
X574539Y320513D01*
X574539Y337600D01*
X574536Y337634D01*
X574538Y337669D01*
X574516Y337858D01*
X574499Y338048D01*
X574490Y338082D01*
X574486Y338116D01*
X574431Y338299D01*
X574381Y338483D01*
X574366Y338514D01*
X574356Y338547D01*
X574269Y338718D01*
X574188Y338889D01*
X574167Y338917D01*
X574152Y338948D01*
X574036Y339100D01*
X573925Y339255D01*
X573901Y339279D01*
X573880Y339307D01*
X573740Y339436D01*
X573603Y339569D01*
X573574Y339589D01*
X573549Y339612D01*
X573388Y339715D01*
X573230Y339821D01*
X573198Y339835D01*
X573169Y339854D01*
X572992Y339926D01*
X572818Y340004D01*
X572784Y340012D01*
X572752Y340025D01*
X572566Y340065D01*
X572380Y340110D01*
X572346Y340112D01*
X572312Y340120D01*
X572000Y340139D01*
X571965Y340136D01*
X571931Y340138D01*
X571741Y340116D01*
X571551Y340099D01*
X571518Y340090D01*
X571484Y340086D01*
X571301Y340031D01*
X571117Y339980D01*
X571086Y339966D01*
X571053Y339956D01*
X570882Y339869D01*
X570710Y339787D01*
X570682Y339767D01*
X570651Y339751D01*
X570499Y339636D01*
X570344Y339525D01*
X570320Y339500D01*
X570292Y339479D01*
X570163Y339339D01*
X570030Y339202D01*
X570011Y339174D01*
X569987Y339148D01*
X569885Y338987D01*
X569778Y338829D01*
X569764Y338798D01*
X569745Y338768D01*
X569673Y338592D01*
X569596Y338417D01*
X569588Y338384D01*
X569575Y338352D01*
X569534Y338165D01*
X569489Y337980D01*
X569487Y337946D01*
X569480Y337912D01*
X569461Y337600D01*
X569461Y320513D01*
X568623Y320623D01*
X566436Y321209D01*
X564344Y322075D01*
X562383Y323207D01*
X560587Y324586D01*
X559120Y326053D01*
X559093Y326075D01*
X559070Y326101D01*
X558921Y326219D01*
X558775Y326342D01*
X558744Y326359D01*
X558717Y326380D01*
X558549Y326470D01*
X558384Y326565D01*
X558351Y326577D01*
X558320Y326593D01*
X558139Y326652D01*
X557959Y326716D01*
X557925Y326722D01*
X557892Y326732D01*
X557703Y326758D01*
X557515Y326789D01*
X557481Y326789D01*
X557446Y326794D01*
X557255Y326786D01*
X557065Y326783D01*
X557031Y326777D01*
X556996Y326775D01*
X556810Y326734D01*
X556623Y326698D01*
X556590Y326685D01*
X556557Y326678D01*
X556380Y326604D01*
X556203Y326535D01*
X556173Y326517D01*
X556141Y326504D01*
X555981Y326400D01*
X555818Y326302D01*
X555792Y326279D01*
X555763Y326260D01*
X555529Y326053D01*
X554802Y325326D01*
X549480Y323121D01*
X543720Y323121D01*
X538398Y325326D01*
X535696Y328028D01*
X535669Y328051D01*
X535646Y328077D01*
X535497Y328195D01*
X535350Y328317D01*
X535320Y328335D01*
X535293Y328356D01*
X535125Y328446D01*
X534959Y328541D01*
X534927Y328552D01*
X534896Y328569D01*
X534715Y328628D01*
X534535Y328692D01*
X534501Y328697D01*
X534468Y328708D01*
X534279Y328734D01*
X534091Y328765D01*
X534056Y328765D01*
X534022Y328769D01*
X533831Y328761D01*
X533641Y328759D01*
X533606Y328752D01*
X533572Y328751D01*
X533386Y328710D01*
X533198Y328673D01*
X533166Y328661D01*
X533132Y328653D01*
X532956Y328580D01*
X532778Y328511D01*
X532749Y328493D01*
X532717Y328480D01*
X532556Y328376D01*
X532394Y328277D01*
X532368Y328254D01*
X532339Y328235D01*
X532104Y328028D01*
X529402Y325326D01*
X524080Y323121D01*
X518320Y323121D01*
X512998Y325326D01*
X510296Y328028D01*
X510269Y328051D01*
X510246Y328077D01*
X510097Y328195D01*
X509950Y328317D01*
X509920Y328335D01*
X509893Y328356D01*
X509725Y328446D01*
X509559Y328541D01*
X509527Y328552D01*
X509496Y328569D01*
X509315Y328628D01*
X509135Y328692D01*
X509101Y328697D01*
X509068Y328708D01*
X508879Y328734D01*
X508691Y328765D01*
X508656Y328765D01*
X508622Y328769D01*
X508431Y328761D01*
X508241Y328759D01*
X508206Y328752D01*
X508172Y328751D01*
X507986Y328710D01*
X507798Y328673D01*
X507766Y328661D01*
X507732Y328653D01*
X507556Y328580D01*
X507378Y328511D01*
X507349Y328493D01*
X507317Y328480D01*
X507156Y328376D01*
X506994Y328277D01*
X506968Y328254D01*
X506939Y328235D01*
X506704Y328028D01*
X504002Y325326D01*
X498680Y323121D01*
X492920Y323121D01*
X487598Y325326D01*
X484896Y328028D01*
X484869Y328051D01*
X484846Y328077D01*
X484697Y328195D01*
X484550Y328317D01*
X484520Y328335D01*
X484493Y328356D01*
X484325Y328446D01*
X484159Y328541D01*
X484127Y328552D01*
X484096Y328569D01*
X483915Y328628D01*
X483735Y328692D01*
X483701Y328697D01*
X483668Y328708D01*
X483479Y328734D01*
X483291Y328765D01*
X483256Y328765D01*
X483222Y328769D01*
X483031Y328761D01*
X482841Y328759D01*
X482806Y328752D01*
X482772Y328751D01*
X482586Y328710D01*
X482398Y328673D01*
X482366Y328661D01*
X482332Y328653D01*
X482156Y328580D01*
X481978Y328511D01*
X481949Y328493D01*
X481917Y328480D01*
X481756Y328376D01*
X481594Y328277D01*
X481568Y328254D01*
X481539Y328235D01*
X481304Y328028D01*
X478602Y325326D01*
X473280Y323121D01*
X467520Y323121D01*
X462198Y325326D01*
X459496Y328028D01*
X459469Y328051D01*
X459446Y328077D01*
X459297Y328195D01*
X459150Y328317D01*
X459120Y328335D01*
X459093Y328356D01*
X458925Y328446D01*
X458759Y328541D01*
X458727Y328552D01*
X458696Y328569D01*
X458515Y328628D01*
X458335Y328692D01*
X458301Y328697D01*
X458268Y328708D01*
X458079Y328734D01*
X457891Y328765D01*
X457856Y328765D01*
X457822Y328769D01*
X457631Y328761D01*
X457441Y328759D01*
X457406Y328752D01*
X457372Y328751D01*
X457186Y328710D01*
X456998Y328673D01*
X456966Y328661D01*
X456932Y328653D01*
X456756Y328580D01*
X456578Y328511D01*
X456549Y328493D01*
X456517Y328480D01*
X456356Y328376D01*
X456194Y328277D01*
X456168Y328254D01*
X456139Y328235D01*
X455904Y328028D01*
X453202Y325326D01*
X447880Y323121D01*
X442120Y323121D01*
X436798Y325326D01*
X432726Y329398D01*
X430521Y334720D01*
X430521Y340480D01*
X432726Y345802D01*
X435620Y348696D01*
X435715Y348809D01*
X435723Y348818D01*
X435727Y348824D01*
X435837Y348943D01*
X435869Y348994D01*
X435908Y349041D01*
X435990Y349184D01*
X436078Y349322D01*
X436102Y349379D01*
X436132Y349432D01*
X436187Y349587D01*
X436249Y349739D01*
X436262Y349799D01*
X436283Y349856D01*
X436309Y350018D01*
X436344Y350179D01*
X436349Y350256D01*
X436356Y350300D01*
X436355Y350361D01*
X436363Y350491D01*
X436363Y426610D01*
X436361Y426640D01*
X436362Y426667D01*
X436348Y426789D01*
X436342Y426939D01*
X436329Y426998D01*
X436323Y427059D01*
X436312Y427102D01*
X436310Y427114D01*
X436291Y427179D01*
X436280Y427218D01*
X436244Y427378D01*
X436221Y427435D01*
X436205Y427493D01*
X436134Y427641D01*
X436071Y427794D01*
X436038Y427845D01*
X436011Y427900D01*
X435916Y428033D01*
X435826Y428172D01*
X435775Y428230D01*
X435749Y428266D01*
X435706Y428309D01*
X435620Y428406D01*
X432406Y431620D01*
X432280Y431725D01*
X432159Y431837D01*
X432107Y431869D01*
X432061Y431908D01*
X431918Y431990D01*
X431779Y432078D01*
X431723Y432102D01*
X431670Y432132D01*
X431515Y432187D01*
X431363Y432249D01*
X431303Y432262D01*
X431245Y432283D01*
X431083Y432309D01*
X430922Y432344D01*
X430845Y432349D01*
X430801Y432356D01*
X430740Y432355D01*
X430610Y432363D01*
X420282Y432363D01*
X417108Y433678D01*
X377678Y473108D01*
X376363Y476282D01*
X376363Y637718D01*
X377678Y640892D01*
X426008Y689222D01*
X429182Y690537D01*
X460409Y690537D01*
X460573Y690551D01*
X460737Y690558D01*
X460797Y690571D01*
X460857Y690577D01*
X461016Y690620D01*
X461177Y690656D01*
X461233Y690679D01*
X461292Y690695D01*
X461440Y690766D01*
X461592Y690829D01*
X461644Y690862D01*
X461698Y690889D01*
X461832Y690984D01*
X461970Y691074D01*
X462028Y691125D01*
X462065Y691151D01*
X462107Y691194D01*
X462204Y691280D01*
X465098Y694174D01*
X470420Y696379D01*
X476180Y696379D01*
X481502Y694174D01*
X484396Y691280D01*
X484522Y691175D01*
X484643Y691063D01*
X484694Y691031D01*
X484741Y690992D01*
X484884Y690910D01*
X485022Y690822D01*
X485079Y690798D01*
X485132Y690768D01*
X485287Y690713D01*
X485439Y690651D01*
X485499Y690638D01*
X485556Y690617D01*
X485718Y690591D01*
X485879Y690556D01*
X485956Y690551D01*
X486000Y690544D01*
X486061Y690545D01*
X486191Y690537D01*
X959409Y690537D01*
X959573Y690551D01*
X959737Y690558D01*
X959797Y690571D01*
X959857Y690577D01*
X960016Y690620D01*
X960177Y690656D01*
X960233Y690679D01*
X960292Y690695D01*
X960440Y690766D01*
X960592Y690829D01*
X960643Y690862D01*
X960698Y690889D01*
X960832Y690984D01*
X960970Y691074D01*
X961028Y691125D01*
X961065Y691151D01*
X961107Y691194D01*
X961204Y691280D01*
X964098Y694174D01*
X969420Y696379D01*
X975180Y696379D01*
X980502Y694174D01*
X984574Y690102D01*
X984954Y689185D01*
X985036Y689027D01*
X985113Y688867D01*
X985140Y688829D01*
X985163Y688786D01*
X985271Y688646D01*
X985375Y688501D01*
X985409Y688468D01*
X985438Y688430D01*
X985570Y688311D01*
X985697Y688187D01*
X985737Y688160D01*
X985773Y688128D01*
X985923Y688034D01*
X986070Y687935D01*
X986114Y687916D01*
X986155Y687890D01*
X986320Y687825D01*
X986482Y687753D01*
X986529Y687742D01*
X986573Y687724D01*
X986747Y687688D01*
X986920Y687646D01*
X986967Y687643D01*
X987014Y687634D01*
X987192Y687629D01*
X987369Y687619D01*
X987417Y687624D01*
X987464Y687623D01*
X987640Y687650D01*
X987816Y687671D01*
X987862Y687684D01*
X987909Y687692D01*
X988077Y687749D01*
X988247Y687801D01*
X988290Y687823D01*
X988335Y687838D01*
X988490Y687925D01*
X988649Y688005D01*
X988687Y688034D01*
X988728Y688057D01*
X988866Y688170D01*
X989007Y688277D01*
X989040Y688312D01*
X989077Y688343D01*
X989192Y688478D01*
X989313Y688608D01*
X989338Y688649D01*
X989369Y688685D01*
X989459Y688838D01*
X989554Y688988D01*
X989573Y689032D01*
X989597Y689074D01*
X989658Y689240D01*
X989725Y689405D01*
X989735Y689452D01*
X989752Y689496D01*
X989783Y689671D01*
X989820Y689845D01*
X989824Y689904D01*
X989830Y689940D01*
X989830Y690003D01*
X989839Y690157D01*
X989839Y737143D01*
X989824Y737320D01*
X989814Y737497D01*
X989804Y737544D01*
X989799Y737592D01*
X989753Y737763D01*
X989712Y737936D01*
X989693Y737980D01*
X989681Y738026D01*
X989605Y738186D01*
X989534Y738350D01*
X989508Y738390D01*
X989487Y738433D01*
X989384Y738577D01*
X989286Y738725D01*
X989253Y738760D01*
X989225Y738799D01*
X989098Y738923D01*
X988975Y739051D01*
X988937Y739079D01*
X988903Y739113D01*
X988755Y739212D01*
X988612Y739317D01*
X988569Y739338D01*
X988530Y739365D01*
X988367Y739437D01*
X988208Y739515D01*
X988162Y739528D01*
X988118Y739547D01*
X987945Y739589D01*
X987774Y739638D01*
X987727Y739642D01*
X987680Y739654D01*
X987503Y739665D01*
X987326Y739682D01*
X987279Y739679D01*
X987231Y739681D01*
X987054Y739661D01*
X986877Y739647D01*
X986831Y739635D01*
X986784Y739629D01*
X986613Y739578D01*
X986442Y739533D01*
X986399Y739513D01*
X986353Y739499D01*
X986195Y739419D01*
X986033Y739344D01*
X985994Y739316D01*
X985951Y739295D01*
X985810Y739188D01*
X985664Y739086D01*
X985631Y739052D01*
X985593Y739023D01*
X985472Y738892D01*
X985347Y738766D01*
X985320Y738727D01*
X985288Y738692D01*
X985192Y738542D01*
X985091Y738396D01*
X985065Y738343D01*
X985046Y738312D01*
X985022Y738253D01*
X984954Y738115D01*
X984574Y737198D01*
X980502Y733126D01*
X975180Y730921D01*
X969420Y730921D01*
X964098Y733126D01*
X960026Y737198D01*
X957821Y742520D01*
X957821Y748280D01*
X960026Y753602D01*
X962728Y756304D01*
X962751Y756331D01*
X962777Y756354D01*
X962895Y756503D01*
X963017Y756650D01*
X963035Y756680D01*
X963056Y756707D01*
X963146Y756875D01*
X963241Y757041D01*
X963252Y757073D01*
X963269Y757104D01*
X963328Y757285D01*
X963392Y757465D01*
X963397Y757499D01*
X963408Y757532D01*
X963434Y757721D01*
X963465Y757909D01*
X963465Y757944D01*
X963469Y757978D01*
X963462Y758169D01*
X963459Y758360D01*
X963452Y758394D01*
X963451Y758428D01*
X963410Y758614D01*
X963373Y758802D01*
X963361Y758834D01*
X963353Y758868D01*
X963280Y759043D01*
X963211Y759222D01*
X963193Y759251D01*
X963180Y759283D01*
X963076Y759443D01*
X962977Y759606D01*
X962954Y759632D01*
X962935Y759661D01*
X962728Y759896D01*
X960026Y762598D01*
X957821Y767920D01*
X957821Y773680D01*
X960026Y779002D01*
X962728Y781704D01*
X962751Y781731D01*
X962777Y781754D01*
X962895Y781903D01*
X963017Y782050D01*
X963035Y782080D01*
X963056Y782107D01*
X963146Y782275D01*
X963241Y782441D01*
X963252Y782473D01*
X963269Y782504D01*
X963328Y782685D01*
X963392Y782865D01*
X963397Y782899D01*
X963408Y782932D01*
X963434Y783121D01*
X963465Y783309D01*
X963465Y783344D01*
X963469Y783378D01*
X963461Y783569D01*
X963459Y783759D01*
X963452Y783794D01*
X963451Y783828D01*
X963410Y784014D01*
X963373Y784202D01*
X963361Y784234D01*
X963353Y784268D01*
X963280Y784444D01*
X963211Y784622D01*
X963193Y784651D01*
X963180Y784683D01*
X963076Y784844D01*
X962977Y785006D01*
X962954Y785032D01*
X962935Y785061D01*
X962728Y785296D01*
X960026Y787998D01*
X957821Y793320D01*
X957821Y799080D01*
X960026Y804402D01*
X962728Y807104D01*
X962751Y807131D01*
X962777Y807154D01*
X962895Y807303D01*
X963017Y807450D01*
X963035Y807480D01*
X963056Y807507D01*
X963146Y807675D01*
X963241Y807841D01*
X963252Y807873D01*
X963269Y807904D01*
X963328Y808085D01*
X963392Y808265D01*
X963397Y808299D01*
X963408Y808332D01*
X963434Y808521D01*
X963465Y808709D01*
X963465Y808744D01*
X963469Y808778D01*
X963461Y808969D01*
X963459Y809159D01*
X963452Y809194D01*
X963451Y809228D01*
X963410Y809414D01*
X963373Y809602D01*
X963361Y809634D01*
X963353Y809668D01*
X963280Y809844D01*
X963211Y810022D01*
X963193Y810051D01*
X963180Y810083D01*
X963076Y810244D01*
X962977Y810406D01*
X962954Y810432D01*
X962935Y810461D01*
X962728Y810696D01*
X960026Y813398D01*
X957821Y818720D01*
X957821Y824480D01*
X960026Y829802D01*
X962728Y832504D01*
X962751Y832531D01*
X962777Y832554D01*
X962895Y832703D01*
X963017Y832850D01*
X963035Y832880D01*
X963056Y832907D01*
X963146Y833075D01*
X963241Y833241D01*
X963252Y833273D01*
X963269Y833304D01*
X963328Y833485D01*
X963392Y833665D01*
X963397Y833699D01*
X963408Y833732D01*
X963434Y833921D01*
X963465Y834109D01*
X963465Y834144D01*
X963469Y834178D01*
X963461Y834369D01*
X963459Y834559D01*
X963452Y834594D01*
X963451Y834628D01*
X963410Y834814D01*
X963373Y835002D01*
X963361Y835034D01*
X963353Y835068D01*
X963280Y835244D01*
X963211Y835422D01*
X963193Y835451D01*
X963180Y835483D01*
X963076Y835644D01*
X962977Y835806D01*
X962954Y835832D01*
X962935Y835861D01*
X962728Y836096D01*
X960026Y838798D01*
X957821Y844120D01*
X957821Y849880D01*
X960026Y855202D01*
X962728Y857904D01*
X962751Y857931D01*
X962777Y857954D01*
X962895Y858103D01*
X963017Y858250D01*
X963035Y858280D01*
X963056Y858307D01*
X963146Y858475D01*
X963241Y858641D01*
X963252Y858673D01*
X963269Y858704D01*
X963327Y858884D01*
X963392Y859065D01*
X963397Y859099D01*
X963408Y859132D01*
X963434Y859321D01*
X963465Y859509D01*
X963465Y859544D01*
X963469Y859578D01*
X963461Y859769D01*
X963459Y859959D01*
X963452Y859994D01*
X963451Y860028D01*
X963410Y860214D01*
X963373Y860402D01*
X963361Y860434D01*
X963353Y860468D01*
X963280Y860644D01*
X963211Y860822D01*
X963193Y860851D01*
X963180Y860883D01*
X963076Y861044D01*
X962977Y861206D01*
X962954Y861232D01*
X962935Y861261D01*
X962728Y861496D01*
X960026Y864198D01*
X957821Y869520D01*
X957821Y875280D01*
X960026Y880602D01*
X964098Y884674D01*
X969420Y886879D01*
X975180Y886879D01*
X980502Y884674D01*
X984574Y880602D01*
X984954Y879685D01*
X985036Y879527D01*
X985113Y879367D01*
X985140Y879329D01*
X985163Y879286D01*
X985271Y879146D01*
X985375Y879001D01*
X985409Y878968D01*
X985438Y878930D01*
X985570Y878811D01*
X985697Y878687D01*
X985737Y878660D01*
X985773Y878628D01*
X985923Y878534D01*
X986070Y878435D01*
X986114Y878416D01*
X986155Y878390D01*
X986320Y878325D01*
X986482Y878253D01*
X986529Y878242D01*
X986573Y878224D01*
X986747Y878188D01*
X986920Y878146D01*
X986967Y878143D01*
X987014Y878134D01*
X987192Y878129D01*
X987369Y878119D01*
X987417Y878124D01*
X987464Y878123D01*
X987640Y878150D01*
X987816Y878171D01*
X987862Y878184D01*
X987909Y878192D01*
X988077Y878249D01*
X988247Y878301D01*
X988290Y878323D01*
X988335Y878338D01*
X988490Y878425D01*
X988649Y878505D01*
X988687Y878534D01*
X988728Y878557D01*
X988866Y878670D01*
X989007Y878777D01*
X989040Y878812D01*
X989077Y878843D01*
X989192Y878978D01*
X989313Y879108D01*
X989338Y879149D01*
X989369Y879185D01*
X989459Y879338D01*
X989554Y879488D01*
X989573Y879532D01*
X989597Y879574D01*
X989658Y879740D01*
X989725Y879905D01*
X989735Y879952D01*
X989752Y879996D01*
X989783Y880171D01*
X989820Y880345D01*
X989824Y880404D01*
X989830Y880440D01*
X989830Y880503D01*
X989839Y880657D01*
X989839Y987300D01*
X989836Y987335D01*
X989838Y987369D01*
X989816Y987558D01*
X989799Y987749D01*
X989790Y987782D01*
X989786Y987816D01*
X989731Y987999D01*
X989681Y988183D01*
X989666Y988214D01*
X989656Y988247D01*
X989569Y988418D01*
X989487Y988590D01*
X989467Y988618D01*
X989452Y988649D01*
X989336Y988801D01*
X989225Y988956D01*
X989200Y988980D01*
X989180Y989007D01*
X989040Y989136D01*
X988903Y989270D01*
X988874Y989289D01*
X988848Y989313D01*
X988687Y989415D01*
X988530Y989522D01*
X988498Y989536D01*
X988469Y989554D01*
X988292Y989627D01*
X988118Y989704D01*
X988084Y989712D01*
X988052Y989725D01*
X987865Y989765D01*
X987680Y989811D01*
X987646Y989813D01*
X987612Y989820D01*
X987300Y989839D01*
X843367Y989839D01*
X843237Y989828D01*
X843107Y989826D01*
X843014Y989808D01*
X842919Y989799D01*
X842793Y989765D01*
X842665Y989740D01*
X842576Y989706D01*
X842484Y989681D01*
X842367Y989625D01*
X842245Y989578D01*
X842164Y989528D01*
X842078Y989487D01*
X841972Y989412D01*
X841861Y989344D01*
X841789Y989281D01*
X841711Y989225D01*
X841621Y989132D01*
X841523Y989046D01*
X841464Y988971D01*
X841397Y988903D01*
X841324Y988795D01*
X841244Y988693D01*
X841199Y988609D01*
X841145Y988530D01*
X841093Y988411D01*
X841031Y988296D01*
X841002Y988205D01*
X840963Y988118D01*
X840932Y987991D01*
X840892Y987868D01*
X840879Y987773D01*
X840856Y987680D01*
X840848Y987551D01*
X840831Y987422D01*
X840835Y987326D01*
X840829Y987231D01*
X840844Y987102D01*
X840849Y986972D01*
X840870Y986879D01*
X840881Y986784D01*
X840918Y986659D01*
X840947Y986532D01*
X840983Y986444D01*
X841011Y986353D01*
X841070Y986237D01*
X841120Y986117D01*
X841172Y986037D01*
X841215Y985951D01*
X841294Y985848D01*
X841365Y985739D01*
X841451Y985641D01*
X841487Y985593D01*
X841520Y985562D01*
X841572Y985504D01*
X844874Y982202D01*
X847079Y976880D01*
X847079Y971120D01*
X844874Y965798D01*
X840802Y961726D01*
X835480Y959521D01*
X829720Y959521D01*
X824398Y961726D01*
X820326Y965798D01*
X818121Y971120D01*
X818121Y976880D01*
X820326Y982202D01*
X823628Y985504D01*
X823712Y985604D01*
X823803Y985697D01*
X823856Y985777D01*
X823917Y985850D01*
X823982Y985963D01*
X824055Y986070D01*
X824093Y986158D01*
X824141Y986241D01*
X824184Y986363D01*
X824237Y986482D01*
X824260Y986575D01*
X824292Y986665D01*
X824313Y986793D01*
X824344Y986920D01*
X824349Y987015D01*
X824365Y987109D01*
X824363Y987239D01*
X824371Y987369D01*
X824360Y987464D01*
X824359Y987560D01*
X824334Y987687D01*
X824319Y987816D01*
X824292Y987908D01*
X824273Y988002D01*
X824227Y988123D01*
X824189Y988247D01*
X824145Y988333D01*
X824111Y988422D01*
X824044Y988533D01*
X823985Y988649D01*
X823927Y988725D01*
X823877Y988806D01*
X823791Y988904D01*
X823713Y989007D01*
X823642Y989072D01*
X823579Y989144D01*
X823477Y989224D01*
X823381Y989313D01*
X823301Y989364D01*
X823226Y989423D01*
X823111Y989484D01*
X823002Y989554D01*
X822913Y989591D01*
X822829Y989636D01*
X822705Y989676D01*
X822585Y989725D01*
X822492Y989745D01*
X822401Y989775D01*
X822272Y989793D01*
X822145Y989820D01*
X822015Y989828D01*
X821955Y989836D01*
X821910Y989835D01*
X821833Y989839D01*
X805267Y989839D01*
X805137Y989828D01*
X805007Y989826D01*
X804914Y989808D01*
X804819Y989799D01*
X804693Y989765D01*
X804565Y989740D01*
X804476Y989706D01*
X804384Y989681D01*
X804267Y989625D01*
X804145Y989578D01*
X804064Y989528D01*
X803978Y989487D01*
X803872Y989412D01*
X803761Y989344D01*
X803689Y989281D01*
X803611Y989225D01*
X803521Y989132D01*
X803423Y989046D01*
X803364Y988971D01*
X803297Y988903D01*
X803224Y988795D01*
X803144Y988693D01*
X803099Y988609D01*
X803045Y988530D01*
X802993Y988411D01*
X802931Y988296D01*
X802902Y988205D01*
X802863Y988118D01*
X802832Y987991D01*
X802792Y987868D01*
X802779Y987773D01*
X802756Y987680D01*
X802748Y987551D01*
X802731Y987422D01*
X802735Y987326D01*
X802729Y987231D01*
X802744Y987102D01*
X802749Y986972D01*
X802770Y986879D01*
X802781Y986784D01*
X802818Y986659D01*
X802847Y986532D01*
X802883Y986444D01*
X802911Y986353D01*
X802970Y986237D01*
X803020Y986117D01*
X803072Y986037D01*
X803115Y985951D01*
X803194Y985848D01*
X803265Y985739D01*
X803351Y985641D01*
X803387Y985593D01*
X803420Y985562D01*
X803472Y985504D01*
X806774Y982202D01*
X808979Y976880D01*
X808979Y971120D01*
X806774Y965798D01*
X802702Y961726D01*
X797380Y959521D01*
X791620Y959521D01*
X786298Y961726D01*
X782226Y965798D01*
X780021Y971120D01*
X780021Y976880D01*
X782226Y982202D01*
X785528Y985504D01*
X785612Y985604D01*
X785703Y985697D01*
X785756Y985777D01*
X785817Y985850D01*
X785882Y985963D01*
X785955Y986070D01*
X785993Y986158D01*
X786041Y986241D01*
X786084Y986363D01*
X786137Y986482D01*
X786160Y986575D01*
X786192Y986665D01*
X786213Y986793D01*
X786244Y986920D01*
X786249Y987015D01*
X786265Y987109D01*
X786263Y987239D01*
X786271Y987369D01*
X786260Y987464D01*
X786259Y987560D01*
X786234Y987687D01*
X786219Y987816D01*
X786192Y987908D01*
X786173Y988002D01*
X786127Y988123D01*
X786089Y988247D01*
X786045Y988333D01*
X786011Y988422D01*
X785944Y988533D01*
X785885Y988649D01*
X785827Y988725D01*
X785777Y988806D01*
X785691Y988904D01*
X785613Y989007D01*
X785542Y989072D01*
X785479Y989144D01*
X785377Y989224D01*
X785281Y989313D01*
X785201Y989364D01*
X785126Y989423D01*
X785011Y989484D01*
X784902Y989554D01*
X784813Y989591D01*
X784729Y989636D01*
X784605Y989676D01*
X784485Y989725D01*
X784392Y989745D01*
X784301Y989775D01*
X784172Y989793D01*
X784045Y989820D01*
X783915Y989828D01*
X783855Y989836D01*
X783810Y989835D01*
X783733Y989839D01*
X344367Y989839D01*
X344237Y989828D01*
X344107Y989826D01*
X344014Y989808D01*
X343919Y989799D01*
X343793Y989765D01*
X343665Y989740D01*
X343576Y989706D01*
X343484Y989681D01*
X343367Y989625D01*
X343245Y989578D01*
X343164Y989528D01*
X343078Y989487D01*
X342972Y989412D01*
X342861Y989344D01*
X342789Y989281D01*
X342711Y989225D01*
X342621Y989132D01*
X342523Y989046D01*
X342464Y988971D01*
X342397Y988903D01*
X342324Y988795D01*
X342244Y988693D01*
X342199Y988609D01*
X342145Y988530D01*
X342093Y988411D01*
X342031Y988296D01*
X342002Y988205D01*
X341963Y988118D01*
X341932Y987991D01*
X341892Y987868D01*
X341879Y987773D01*
X341856Y987680D01*
X341848Y987551D01*
X341831Y987422D01*
X341835Y987326D01*
X341829Y987231D01*
X341844Y987102D01*
X341849Y986972D01*
X341870Y986879D01*
X341881Y986784D01*
X341918Y986659D01*
X341947Y986532D01*
X341983Y986444D01*
X342011Y986353D01*
X342070Y986237D01*
X342120Y986117D01*
X342172Y986037D01*
X342215Y985951D01*
X342294Y985848D01*
X342365Y985739D01*
X342451Y985641D01*
X342487Y985593D01*
X342520Y985562D01*
X342572Y985504D01*
X345874Y982202D01*
X348079Y976880D01*
X348079Y971120D01*
X345874Y965798D01*
X341802Y961726D01*
X336480Y959521D01*
X330720Y959521D01*
X325398Y961726D01*
X321326Y965798D01*
X319121Y971120D01*
X319121Y976880D01*
X321326Y982202D01*
X324628Y985504D01*
X324712Y985604D01*
X324803Y985697D01*
X324856Y985777D01*
X324917Y985850D01*
X324982Y985963D01*
X325055Y986070D01*
X325093Y986158D01*
X325141Y986241D01*
X325184Y986363D01*
X325237Y986482D01*
X325260Y986575D01*
X325292Y986665D01*
X325313Y986793D01*
X325344Y986920D01*
X325349Y987015D01*
X325365Y987109D01*
X325363Y987239D01*
X325371Y987369D01*
X325360Y987464D01*
X325359Y987560D01*
X325334Y987687D01*
X325319Y987816D01*
X325292Y987908D01*
X325273Y988002D01*
X325227Y988123D01*
X325189Y988247D01*
X325145Y988333D01*
X325111Y988422D01*
X325044Y988533D01*
X324985Y988649D01*
X324927Y988725D01*
X324877Y988806D01*
X324791Y988904D01*
X324713Y989007D01*
X324642Y989072D01*
X324579Y989144D01*
X324477Y989224D01*
X324381Y989313D01*
X324301Y989364D01*
X324226Y989423D01*
X324111Y989484D01*
X324002Y989554D01*
X323913Y989591D01*
X323829Y989636D01*
X323705Y989676D01*
X323585Y989725D01*
X323492Y989745D01*
X323401Y989775D01*
X323272Y989793D01*
X323145Y989820D01*
X323015Y989828D01*
X322955Y989836D01*
X322910Y989835D01*
X322833Y989839D01*
X306267Y989839D01*
X306137Y989828D01*
X306007Y989826D01*
X305914Y989808D01*
X305819Y989799D01*
X305693Y989765D01*
X305565Y989740D01*
X305476Y989706D01*
X305384Y989681D01*
X305267Y989625D01*
X305145Y989578D01*
X305064Y989528D01*
X304978Y989487D01*
X304872Y989412D01*
X304761Y989344D01*
X304689Y989281D01*
X304611Y989225D01*
X304521Y989132D01*
X304423Y989046D01*
X304364Y988971D01*
X304297Y988903D01*
X304224Y988795D01*
X304144Y988693D01*
X304099Y988609D01*
X304045Y988530D01*
X303993Y988411D01*
X303931Y988296D01*
X303902Y988205D01*
X303863Y988118D01*
X303832Y987991D01*
X303792Y987868D01*
X303779Y987773D01*
X303756Y987680D01*
X303748Y987551D01*
X303731Y987422D01*
X303735Y987326D01*
X303729Y987231D01*
X303744Y987102D01*
X303749Y986972D01*
X303770Y986879D01*
X303781Y986784D01*
X303818Y986659D01*
X303847Y986532D01*
X303883Y986444D01*
X303911Y986353D01*
X303970Y986237D01*
X304020Y986117D01*
X304072Y986037D01*
X304115Y985951D01*
X304194Y985848D01*
X304265Y985739D01*
X304351Y985641D01*
X304387Y985593D01*
X304420Y985562D01*
X304472Y985504D01*
X307774Y982202D01*
X309979Y976880D01*
X309979Y971120D01*
X307774Y965798D01*
X303702Y961726D01*
X298380Y959521D01*
X292620Y959521D01*
X287298Y961726D01*
X283226Y965798D01*
X281021Y971120D01*
X281021Y976880D01*
X283226Y982202D01*
X286528Y985504D01*
X286612Y985604D01*
X286703Y985697D01*
X286756Y985777D01*
X286817Y985850D01*
X286882Y985963D01*
X286955Y986070D01*
X286993Y986158D01*
X287041Y986241D01*
X287084Y986363D01*
X287137Y986482D01*
X287160Y986575D01*
X287192Y986665D01*
X287213Y986793D01*
X287244Y986920D01*
X287249Y987015D01*
X287265Y987109D01*
X287263Y987239D01*
X287271Y987369D01*
X287260Y987464D01*
X287259Y987560D01*
X287234Y987687D01*
X287219Y987816D01*
X287192Y987908D01*
X287173Y988002D01*
X287127Y988123D01*
X287089Y988247D01*
X287045Y988333D01*
X287011Y988422D01*
X286944Y988533D01*
X286885Y988649D01*
X286827Y988725D01*
X286777Y988806D01*
X286691Y988904D01*
X286613Y989007D01*
X286542Y989072D01*
X286479Y989144D01*
X286377Y989224D01*
X286281Y989313D01*
X286201Y989364D01*
X286126Y989423D01*
X286011Y989484D01*
X285902Y989554D01*
X285813Y989591D01*
X285729Y989636D01*
X285605Y989676D01*
X285485Y989725D01*
X285392Y989745D01*
X285301Y989775D01*
X285172Y989793D01*
X285045Y989820D01*
X284915Y989828D01*
X284855Y989836D01*
X284810Y989835D01*
X284733Y989839D01*
X12700Y989839D01*
X12665Y989836D01*
X12631Y989838D01*
X12442Y989816D01*
X12251Y989799D01*
X12218Y989790D01*
X12184Y989786D01*
X12001Y989731D01*
X11817Y989681D01*
X11786Y989666D01*
X11753Y989656D01*
X11582Y989569D01*
X11410Y989487D01*
X11382Y989467D01*
X11351Y989452D01*
X11199Y989336D01*
X11044Y989225D01*
X11020Y989200D01*
X10993Y989180D01*
X10864Y989040D01*
X10730Y988903D01*
X10711Y988874D01*
X10687Y988848D01*
X10585Y988687D01*
X10478Y988530D01*
X10464Y988498D01*
X10446Y988469D01*
X10373Y988292D01*
X10296Y988118D01*
X10288Y988084D01*
X10275Y988052D01*
X10235Y987865D01*
X10189Y987680D01*
X10187Y987646D01*
X10180Y987612D01*
X10161Y987300D01*
X10161Y939874D01*
X10172Y939744D01*
X10174Y939614D01*
X10192Y939521D01*
X10201Y939425D01*
X10235Y939300D01*
X10260Y939172D01*
X10294Y939083D01*
X10319Y938991D01*
X10375Y938874D01*
X10422Y938752D01*
X10472Y938670D01*
X10513Y938584D01*
X10588Y938479D01*
X10656Y938367D01*
X10719Y938296D01*
X10775Y938218D01*
X10868Y938127D01*
X10954Y938030D01*
X11029Y937971D01*
X11097Y937904D01*
X11205Y937831D01*
X11307Y937751D01*
X11391Y937705D01*
X11470Y937652D01*
X11589Y937599D01*
X11704Y937538D01*
X11795Y937508D01*
X11882Y937470D01*
X12009Y937439D01*
X12132Y937399D01*
X12227Y937386D01*
X12320Y937363D01*
X12449Y937355D01*
X12578Y937337D01*
X12674Y937341D01*
X12769Y937335D01*
X12898Y937350D01*
X13028Y937356D01*
X13121Y937376D01*
X13216Y937387D01*
X13341Y937425D01*
X13468Y937453D01*
X13556Y937490D01*
X13647Y937518D01*
X13763Y937577D01*
X13883Y937627D01*
X13963Y937679D01*
X14049Y937722D01*
X14152Y937801D01*
X14261Y937871D01*
X14359Y937957D01*
X14407Y937994D01*
X14438Y938027D01*
X14496Y938078D01*
X16551Y940134D01*
X22288Y943446D01*
X28687Y945161D01*
X35313Y945161D01*
X41712Y943446D01*
X47449Y940134D01*
X52134Y935449D01*
X55446Y929712D01*
X57161Y923313D01*
X57161Y916687D01*
X55446Y910288D01*
X52134Y904551D01*
X47449Y899866D01*
X41712Y896554D01*
X35313Y894839D01*
X28687Y894839D01*
X22288Y896554D01*
X16551Y899866D01*
X14496Y901922D01*
X14396Y902005D01*
X14303Y902096D01*
X14223Y902149D01*
X14150Y902211D01*
X14037Y902275D01*
X13930Y902348D01*
X13842Y902387D01*
X13759Y902434D01*
X13637Y902478D01*
X13518Y902530D01*
X13425Y902553D01*
X13335Y902585D01*
X13207Y902606D01*
X13080Y902637D01*
X12985Y902643D01*
X12891Y902658D01*
X12761Y902657D01*
X12631Y902665D01*
X12536Y902654D01*
X12440Y902652D01*
X12313Y902628D01*
X12184Y902613D01*
X12092Y902585D01*
X11998Y902567D01*
X11877Y902520D01*
X11753Y902482D01*
X11667Y902439D01*
X11578Y902404D01*
X11467Y902337D01*
X11351Y902278D01*
X11275Y902220D01*
X11194Y902171D01*
X11096Y902084D01*
X10993Y902006D01*
X10928Y901936D01*
X10856Y901872D01*
X10776Y901770D01*
X10687Y901675D01*
X10636Y901594D01*
X10577Y901519D01*
X10516Y901405D01*
X10446Y901295D01*
X10409Y901207D01*
X10364Y901122D01*
X10324Y900999D01*
X10275Y900878D01*
X10255Y900785D01*
X10225Y900694D01*
X10207Y900565D01*
X10180Y900438D01*
X10172Y900309D01*
X10164Y900248D01*
X10165Y900203D01*
X10161Y900126D01*
X10161Y539874D01*
X10172Y539744D01*
X10174Y539614D01*
X10192Y539521D01*
X10201Y539425D01*
X10235Y539300D01*
X10260Y539172D01*
X10294Y539083D01*
X10319Y538991D01*
X10375Y538874D01*
X10422Y538752D01*
X10472Y538670D01*
X10513Y538584D01*
X10588Y538479D01*
X10656Y538367D01*
X10719Y538296D01*
X10775Y538218D01*
X10868Y538127D01*
X10954Y538030D01*
X11029Y537971D01*
X11097Y537904D01*
X11205Y537831D01*
X11307Y537751D01*
X11391Y537705D01*
X11470Y537652D01*
X11589Y537599D01*
X11704Y537538D01*
X11795Y537508D01*
X11882Y537470D01*
X12009Y537439D01*
X12132Y537399D01*
X12227Y537386D01*
X12320Y537363D01*
X12449Y537355D01*
X12578Y537337D01*
X12674Y537341D01*
X12769Y537335D01*
X12898Y537350D01*
X13028Y537356D01*
X13121Y537376D01*
X13216Y537387D01*
X13341Y537425D01*
X13468Y537453D01*
X13556Y537490D01*
X13647Y537518D01*
X13763Y537577D01*
X13883Y537627D01*
X13963Y537679D01*
X14049Y537722D01*
X14152Y537801D01*
X14261Y537871D01*
X14359Y537957D01*
X14407Y537994D01*
X14438Y538027D01*
X14496Y538078D01*
X16551Y540134D01*
X22288Y543446D01*
X28687Y545161D01*
X35313Y545161D01*
X41712Y543446D01*
X47449Y540134D01*
X52134Y535449D01*
X55446Y529712D01*
X57161Y523313D01*
X57161Y516687D01*
X55446Y510288D01*
X52134Y504551D01*
X47449Y499866D01*
X41712Y496554D01*
X35313Y494839D01*
X28687Y494839D01*
X22288Y496554D01*
X16551Y499866D01*
X14496Y501922D01*
X14396Y502005D01*
X14303Y502096D01*
X14223Y502149D01*
X14150Y502211D01*
X14037Y502275D01*
X13930Y502348D01*
X13842Y502387D01*
X13759Y502434D01*
X13637Y502478D01*
X13518Y502530D01*
X13425Y502553D01*
X13335Y502585D01*
X13207Y502606D01*
X13080Y502637D01*
X12985Y502643D01*
X12891Y502658D01*
X12761Y502657D01*
X12631Y502665D01*
X12536Y502654D01*
X12440Y502652D01*
X12313Y502628D01*
X12184Y502613D01*
X12092Y502585D01*
X11998Y502567D01*
X11877Y502520D01*
X11753Y502482D01*
X11667Y502439D01*
X11578Y502404D01*
X11467Y502337D01*
X11351Y502278D01*
X11275Y502220D01*
X11194Y502171D01*
X11096Y502084D01*
X10993Y502006D01*
X10928Y501936D01*
X10856Y501872D01*
X10776Y501770D01*
X10687Y501675D01*
X10636Y501594D01*
X10577Y501519D01*
X10516Y501405D01*
X10446Y501295D01*
X10409Y501207D01*
X10364Y501122D01*
X10324Y500999D01*
X10275Y500878D01*
X10255Y500785D01*
X10225Y500694D01*
X10207Y500565D01*
X10180Y500438D01*
X10172Y500309D01*
X10164Y500248D01*
X10165Y500203D01*
X10161Y500126D01*
X10161Y12700D01*
X10164Y12665D01*
X10162Y12631D01*
X10184Y12442D01*
X10201Y12251D01*
X10210Y12218D01*
X10214Y12184D01*
X10269Y12001D01*
X10319Y11817D01*
X10334Y11786D01*
X10344Y11753D01*
X10431Y11582D01*
X10513Y11410D01*
X10533Y11382D01*
X10548Y11351D01*
X10664Y11199D01*
X10775Y11044D01*
X10800Y11020D01*
X10820Y10993D01*
X10960Y10864D01*
X11097Y10730D01*
X11126Y10711D01*
X11152Y10687D01*
X11313Y10585D01*
X11470Y10478D01*
X11502Y10464D01*
X11531Y10446D01*
X11708Y10373D01*
X11882Y10296D01*
X11916Y10288D01*
X11948Y10275D01*
X12135Y10235D01*
X12320Y10189D01*
X12354Y10187D01*
X12388Y10180D01*
X12700Y10161D01*
X987300Y10161D01*
X987335Y10164D01*
G37*
%LPC*%
G36*
X471072Y38663D02*
X471072Y38663D01*
X466030Y40751D01*
X462171Y44610D01*
X460083Y49652D01*
X460083Y70651D01*
X460069Y70814D01*
X460062Y70979D01*
X460049Y71038D01*
X460043Y71099D01*
X460000Y71258D01*
X459964Y71418D01*
X459941Y71475D01*
X459925Y71534D01*
X459854Y71682D01*
X459791Y71834D01*
X459758Y71885D01*
X459731Y71940D01*
X459636Y72074D01*
X459546Y72212D01*
X459495Y72270D01*
X459469Y72306D01*
X459426Y72349D01*
X459340Y72446D01*
X437678Y94108D01*
X436642Y96608D01*
X436588Y96712D01*
X436543Y96820D01*
X436484Y96911D01*
X436434Y97007D01*
X436362Y97100D01*
X436299Y97198D01*
X436197Y97313D01*
X436158Y97363D01*
X436131Y97388D01*
X436092Y97432D01*
X432726Y100798D01*
X430521Y106120D01*
X430521Y111880D01*
X432726Y117202D01*
X436798Y121274D01*
X442120Y123479D01*
X447880Y123479D01*
X453202Y121274D01*
X455904Y118572D01*
X455931Y118549D01*
X455954Y118523D01*
X456103Y118405D01*
X456250Y118283D01*
X456280Y118265D01*
X456307Y118244D01*
X456475Y118154D01*
X456641Y118059D01*
X456673Y118048D01*
X456704Y118031D01*
X456885Y117972D01*
X457065Y117908D01*
X457099Y117903D01*
X457132Y117892D01*
X457321Y117866D01*
X457509Y117835D01*
X457544Y117835D01*
X457578Y117831D01*
X457769Y117839D01*
X457959Y117841D01*
X457994Y117848D01*
X458028Y117849D01*
X458214Y117890D01*
X458402Y117927D01*
X458434Y117939D01*
X458468Y117947D01*
X458644Y118020D01*
X458822Y118089D01*
X458851Y118107D01*
X458883Y118120D01*
X459044Y118224D01*
X459206Y118323D01*
X459232Y118346D01*
X459261Y118365D01*
X459496Y118572D01*
X462198Y121274D01*
X467520Y123479D01*
X473280Y123479D01*
X478602Y121274D01*
X481304Y118572D01*
X481331Y118549D01*
X481354Y118523D01*
X481503Y118405D01*
X481650Y118283D01*
X481680Y118265D01*
X481707Y118244D01*
X481875Y118154D01*
X482041Y118059D01*
X482073Y118048D01*
X482104Y118031D01*
X482285Y117972D01*
X482465Y117908D01*
X482499Y117903D01*
X482532Y117892D01*
X482721Y117866D01*
X482909Y117835D01*
X482944Y117835D01*
X482978Y117831D01*
X483169Y117839D01*
X483359Y117841D01*
X483394Y117848D01*
X483428Y117849D01*
X483614Y117890D01*
X483802Y117927D01*
X483834Y117939D01*
X483868Y117947D01*
X484044Y118020D01*
X484222Y118089D01*
X484251Y118107D01*
X484283Y118120D01*
X484444Y118224D01*
X484606Y118323D01*
X484632Y118346D01*
X484661Y118365D01*
X484896Y118572D01*
X487598Y121274D01*
X492920Y123479D01*
X498680Y123479D01*
X504002Y121274D01*
X506704Y118572D01*
X506731Y118549D01*
X506754Y118523D01*
X506903Y118405D01*
X507050Y118283D01*
X507080Y118265D01*
X507107Y118244D01*
X507275Y118154D01*
X507441Y118059D01*
X507473Y118048D01*
X507504Y118031D01*
X507685Y117972D01*
X507865Y117908D01*
X507899Y117903D01*
X507932Y117892D01*
X508121Y117866D01*
X508309Y117835D01*
X508344Y117835D01*
X508378Y117831D01*
X508569Y117839D01*
X508759Y117841D01*
X508794Y117848D01*
X508828Y117849D01*
X509014Y117890D01*
X509202Y117927D01*
X509234Y117939D01*
X509268Y117947D01*
X509444Y118020D01*
X509622Y118089D01*
X509651Y118107D01*
X509683Y118120D01*
X509844Y118224D01*
X510006Y118323D01*
X510032Y118346D01*
X510061Y118365D01*
X510296Y118572D01*
X512998Y121274D01*
X518320Y123479D01*
X524080Y123479D01*
X529402Y121274D01*
X532104Y118572D01*
X532131Y118549D01*
X532154Y118523D01*
X532303Y118405D01*
X532450Y118283D01*
X532480Y118265D01*
X532507Y118244D01*
X532675Y118154D01*
X532841Y118059D01*
X532873Y118048D01*
X532904Y118031D01*
X533085Y117972D01*
X533265Y117908D01*
X533299Y117903D01*
X533332Y117892D01*
X533521Y117866D01*
X533709Y117835D01*
X533744Y117835D01*
X533778Y117831D01*
X533969Y117839D01*
X534159Y117841D01*
X534194Y117848D01*
X534228Y117849D01*
X534414Y117890D01*
X534602Y117927D01*
X534634Y117939D01*
X534668Y117947D01*
X534844Y118020D01*
X535022Y118089D01*
X535051Y118107D01*
X535083Y118120D01*
X535244Y118224D01*
X535406Y118323D01*
X535432Y118346D01*
X535461Y118365D01*
X535696Y118572D01*
X538398Y121274D01*
X543720Y123479D01*
X549480Y123479D01*
X554802Y121274D01*
X557504Y118572D01*
X557531Y118549D01*
X557554Y118523D01*
X557703Y118405D01*
X557850Y118283D01*
X557880Y118265D01*
X557907Y118244D01*
X558075Y118154D01*
X558241Y118059D01*
X558273Y118048D01*
X558304Y118031D01*
X558485Y117972D01*
X558665Y117908D01*
X558699Y117903D01*
X558732Y117892D01*
X558921Y117866D01*
X559109Y117835D01*
X559144Y117835D01*
X559178Y117831D01*
X559369Y117839D01*
X559559Y117841D01*
X559594Y117848D01*
X559628Y117849D01*
X559814Y117890D01*
X560002Y117927D01*
X560034Y117939D01*
X560068Y117947D01*
X560244Y118020D01*
X560422Y118089D01*
X560451Y118107D01*
X560483Y118120D01*
X560644Y118224D01*
X560806Y118323D01*
X560832Y118346D01*
X560861Y118365D01*
X561096Y118572D01*
X563798Y121274D01*
X569120Y123479D01*
X574880Y123479D01*
X580202Y121274D01*
X582904Y118572D01*
X582931Y118549D01*
X582954Y118523D01*
X583103Y118405D01*
X583250Y118283D01*
X583280Y118265D01*
X583307Y118244D01*
X583475Y118154D01*
X583641Y118059D01*
X583673Y118048D01*
X583704Y118031D01*
X583885Y117972D01*
X584065Y117908D01*
X584099Y117903D01*
X584132Y117892D01*
X584321Y117866D01*
X584509Y117835D01*
X584544Y117835D01*
X584578Y117831D01*
X584769Y117839D01*
X584959Y117841D01*
X584994Y117848D01*
X585028Y117849D01*
X585214Y117890D01*
X585402Y117927D01*
X585434Y117939D01*
X585468Y117947D01*
X585644Y118020D01*
X585822Y118089D01*
X585851Y118107D01*
X585883Y118120D01*
X586044Y118224D01*
X586206Y118323D01*
X586232Y118346D01*
X586261Y118365D01*
X586496Y118572D01*
X589198Y121274D01*
X594520Y123479D01*
X600280Y123479D01*
X605602Y121274D01*
X608304Y118572D01*
X608331Y118549D01*
X608354Y118523D01*
X608503Y118405D01*
X608650Y118283D01*
X608680Y118265D01*
X608707Y118244D01*
X608875Y118154D01*
X609041Y118059D01*
X609073Y118048D01*
X609104Y118031D01*
X609285Y117972D01*
X609465Y117908D01*
X609499Y117903D01*
X609532Y117892D01*
X609721Y117866D01*
X609909Y117835D01*
X609944Y117835D01*
X609978Y117831D01*
X610169Y117839D01*
X610359Y117841D01*
X610394Y117848D01*
X610428Y117849D01*
X610614Y117890D01*
X610802Y117927D01*
X610834Y117939D01*
X610868Y117947D01*
X611044Y118020D01*
X611222Y118089D01*
X611251Y118107D01*
X611283Y118120D01*
X611444Y118224D01*
X611606Y118323D01*
X611632Y118346D01*
X611661Y118365D01*
X611896Y118572D01*
X614598Y121274D01*
X619920Y123479D01*
X625680Y123479D01*
X631002Y121274D01*
X633704Y118572D01*
X633731Y118549D01*
X633754Y118523D01*
X633903Y118405D01*
X634050Y118283D01*
X634080Y118265D01*
X634107Y118244D01*
X634275Y118154D01*
X634441Y118059D01*
X634473Y118048D01*
X634504Y118031D01*
X634685Y117972D01*
X634865Y117908D01*
X634899Y117903D01*
X634932Y117892D01*
X635121Y117866D01*
X635309Y117835D01*
X635344Y117835D01*
X635378Y117831D01*
X635569Y117839D01*
X635759Y117841D01*
X635794Y117848D01*
X635828Y117849D01*
X636014Y117890D01*
X636202Y117927D01*
X636234Y117939D01*
X636268Y117947D01*
X636444Y118020D01*
X636622Y118089D01*
X636651Y118107D01*
X636683Y118120D01*
X636844Y118224D01*
X637006Y118323D01*
X637032Y118346D01*
X637061Y118365D01*
X637296Y118572D01*
X639998Y121274D01*
X645320Y123479D01*
X651080Y123479D01*
X656402Y121274D01*
X659104Y118572D01*
X659131Y118549D01*
X659154Y118523D01*
X659303Y118405D01*
X659450Y118283D01*
X659480Y118265D01*
X659507Y118244D01*
X659675Y118154D01*
X659841Y118059D01*
X659873Y118048D01*
X659904Y118031D01*
X660085Y117972D01*
X660265Y117908D01*
X660299Y117903D01*
X660332Y117892D01*
X660521Y117866D01*
X660709Y117835D01*
X660744Y117835D01*
X660778Y117831D01*
X660969Y117839D01*
X661159Y117841D01*
X661194Y117848D01*
X661228Y117849D01*
X661414Y117890D01*
X661602Y117927D01*
X661634Y117939D01*
X661668Y117947D01*
X661844Y118020D01*
X662022Y118089D01*
X662051Y118107D01*
X662083Y118120D01*
X662244Y118224D01*
X662406Y118323D01*
X662432Y118346D01*
X662461Y118365D01*
X662696Y118572D01*
X665398Y121274D01*
X670720Y123479D01*
X676480Y123479D01*
X681802Y121274D01*
X684504Y118572D01*
X684531Y118549D01*
X684554Y118523D01*
X684703Y118405D01*
X684850Y118283D01*
X684880Y118265D01*
X684907Y118244D01*
X685075Y118154D01*
X685241Y118059D01*
X685273Y118048D01*
X685304Y118031D01*
X685485Y117972D01*
X685665Y117908D01*
X685699Y117903D01*
X685732Y117892D01*
X685921Y117866D01*
X686109Y117835D01*
X686144Y117835D01*
X686178Y117831D01*
X686369Y117839D01*
X686559Y117841D01*
X686594Y117848D01*
X686628Y117849D01*
X686814Y117890D01*
X687002Y117927D01*
X687034Y117939D01*
X687068Y117947D01*
X687244Y118020D01*
X687422Y118089D01*
X687451Y118107D01*
X687483Y118120D01*
X687644Y118224D01*
X687806Y118323D01*
X687832Y118346D01*
X687861Y118365D01*
X688096Y118572D01*
X690798Y121274D01*
X696120Y123479D01*
X701880Y123479D01*
X707202Y121274D01*
X709904Y118572D01*
X709931Y118549D01*
X709954Y118523D01*
X710103Y118405D01*
X710250Y118283D01*
X710280Y118265D01*
X710307Y118244D01*
X710475Y118154D01*
X710641Y118059D01*
X710673Y118048D01*
X710704Y118031D01*
X710885Y117972D01*
X711065Y117908D01*
X711099Y117903D01*
X711132Y117892D01*
X711321Y117866D01*
X711509Y117835D01*
X711544Y117835D01*
X711578Y117831D01*
X711769Y117839D01*
X711959Y117841D01*
X711994Y117848D01*
X712028Y117849D01*
X712214Y117890D01*
X712402Y117927D01*
X712434Y117939D01*
X712468Y117947D01*
X712644Y118020D01*
X712822Y118089D01*
X712851Y118107D01*
X712883Y118120D01*
X713044Y118224D01*
X713206Y118323D01*
X713232Y118346D01*
X713261Y118365D01*
X713496Y118572D01*
X716198Y121274D01*
X721520Y123479D01*
X727280Y123479D01*
X732602Y121274D01*
X733329Y120547D01*
X733355Y120525D01*
X733378Y120499D01*
X733527Y120381D01*
X733674Y120258D01*
X733704Y120241D01*
X733731Y120220D01*
X733899Y120130D01*
X734065Y120035D01*
X734098Y120023D01*
X734128Y120007D01*
X734310Y119948D01*
X734489Y119884D01*
X734524Y119878D01*
X734557Y119868D01*
X734746Y119842D01*
X734934Y119811D01*
X734968Y119811D01*
X735003Y119806D01*
X735194Y119814D01*
X735384Y119817D01*
X735418Y119823D01*
X735452Y119825D01*
X735639Y119866D01*
X735826Y119902D01*
X735858Y119915D01*
X735892Y119922D01*
X736068Y119996D01*
X736246Y120065D01*
X736275Y120082D01*
X736307Y120096D01*
X736468Y120200D01*
X736631Y120298D01*
X736657Y120321D01*
X736686Y120340D01*
X736920Y120547D01*
X738387Y122014D01*
X740183Y123393D01*
X742144Y124525D01*
X744236Y125391D01*
X746423Y125977D01*
X747261Y126087D01*
X747261Y109000D01*
X747264Y108966D01*
X747262Y108931D01*
X747284Y108742D01*
X747300Y108552D01*
X747310Y108518D01*
X747314Y108484D01*
X747369Y108301D01*
X747419Y108117D01*
X747434Y108086D01*
X747444Y108053D01*
X747531Y107882D01*
X747612Y107711D01*
X747633Y107683D01*
X747648Y107652D01*
X747763Y107500D01*
X747875Y107345D01*
X747899Y107321D01*
X747920Y107293D01*
X748060Y107164D01*
X748197Y107031D01*
X748226Y107011D01*
X748251Y106988D01*
X748412Y106885D01*
X748570Y106779D01*
X748602Y106765D01*
X748631Y106746D01*
X748808Y106674D01*
X748982Y106596D01*
X749016Y106588D01*
X749048Y106575D01*
X749234Y106535D01*
X749419Y106490D01*
X749454Y106488D01*
X749488Y106480D01*
X749800Y106461D01*
X749835Y106464D01*
X749869Y106462D01*
X750059Y106484D01*
X750249Y106501D01*
X750282Y106510D01*
X750316Y106514D01*
X750499Y106569D01*
X750683Y106620D01*
X750714Y106634D01*
X750747Y106644D01*
X750918Y106731D01*
X751090Y106813D01*
X751118Y106833D01*
X751149Y106849D01*
X751301Y106964D01*
X751456Y107075D01*
X751480Y107100D01*
X751507Y107121D01*
X751637Y107261D01*
X751770Y107398D01*
X751789Y107426D01*
X751813Y107452D01*
X751915Y107613D01*
X752022Y107771D01*
X752036Y107802D01*
X752054Y107832D01*
X752127Y108008D01*
X752204Y108183D01*
X752212Y108216D01*
X752225Y108248D01*
X752266Y108435D01*
X752311Y108620D01*
X752313Y108654D01*
X752320Y108688D01*
X752339Y109000D01*
X752339Y126087D01*
X753177Y125977D01*
X755364Y125391D01*
X757456Y124525D01*
X759417Y123393D01*
X761213Y122014D01*
X762680Y120547D01*
X762707Y120525D01*
X762730Y120499D01*
X762879Y120381D01*
X763025Y120258D01*
X763056Y120241D01*
X763083Y120220D01*
X763251Y120130D01*
X763416Y120035D01*
X763449Y120023D01*
X763480Y120007D01*
X763661Y119948D01*
X763841Y119884D01*
X763875Y119878D01*
X763908Y119868D01*
X764097Y119842D01*
X764285Y119811D01*
X764319Y119811D01*
X764354Y119806D01*
X764545Y119814D01*
X764735Y119817D01*
X764769Y119823D01*
X764804Y119825D01*
X764990Y119866D01*
X765177Y119902D01*
X765210Y119915D01*
X765243Y119922D01*
X765420Y119996D01*
X765597Y120065D01*
X765627Y120083D01*
X765659Y120096D01*
X765819Y120200D01*
X765982Y120298D01*
X766008Y120321D01*
X766037Y120340D01*
X766271Y120547D01*
X766998Y121274D01*
X772320Y123479D01*
X778080Y123479D01*
X783402Y121274D01*
X786104Y118572D01*
X786131Y118549D01*
X786154Y118523D01*
X786303Y118405D01*
X786450Y118283D01*
X786480Y118265D01*
X786507Y118244D01*
X786675Y118154D01*
X786841Y118059D01*
X786873Y118048D01*
X786904Y118031D01*
X787085Y117972D01*
X787265Y117908D01*
X787299Y117903D01*
X787332Y117892D01*
X787521Y117866D01*
X787709Y117835D01*
X787744Y117835D01*
X787778Y117831D01*
X787969Y117839D01*
X788159Y117841D01*
X788194Y117848D01*
X788228Y117849D01*
X788414Y117890D01*
X788602Y117927D01*
X788634Y117939D01*
X788668Y117947D01*
X788844Y118020D01*
X789022Y118089D01*
X789051Y118107D01*
X789083Y118120D01*
X789244Y118224D01*
X789406Y118323D01*
X789432Y118346D01*
X789461Y118365D01*
X789696Y118572D01*
X792398Y121274D01*
X797720Y123479D01*
X803480Y123479D01*
X808802Y121274D01*
X811504Y118572D01*
X811531Y118549D01*
X811554Y118523D01*
X811703Y118405D01*
X811850Y118283D01*
X811880Y118265D01*
X811907Y118244D01*
X812075Y118154D01*
X812241Y118059D01*
X812273Y118048D01*
X812304Y118031D01*
X812485Y117972D01*
X812665Y117908D01*
X812699Y117903D01*
X812732Y117892D01*
X812921Y117866D01*
X813109Y117835D01*
X813144Y117835D01*
X813178Y117831D01*
X813369Y117839D01*
X813559Y117841D01*
X813594Y117848D01*
X813628Y117849D01*
X813814Y117890D01*
X814002Y117927D01*
X814034Y117939D01*
X814068Y117947D01*
X814244Y118020D01*
X814422Y118089D01*
X814451Y118107D01*
X814483Y118120D01*
X814644Y118224D01*
X814806Y118323D01*
X814832Y118346D01*
X814861Y118365D01*
X815096Y118572D01*
X817798Y121274D01*
X823120Y123479D01*
X828880Y123479D01*
X834202Y121274D01*
X836904Y118572D01*
X836931Y118549D01*
X836954Y118523D01*
X837103Y118405D01*
X837250Y118283D01*
X837280Y118265D01*
X837307Y118244D01*
X837475Y118154D01*
X837641Y118059D01*
X837673Y118048D01*
X837704Y118031D01*
X837885Y117972D01*
X838065Y117908D01*
X838099Y117903D01*
X838132Y117892D01*
X838321Y117866D01*
X838509Y117835D01*
X838544Y117835D01*
X838578Y117831D01*
X838769Y117839D01*
X838959Y117841D01*
X838994Y117848D01*
X839028Y117849D01*
X839214Y117890D01*
X839402Y117927D01*
X839434Y117939D01*
X839468Y117947D01*
X839644Y118020D01*
X839822Y118089D01*
X839851Y118107D01*
X839883Y118120D01*
X840044Y118224D01*
X840206Y118323D01*
X840232Y118346D01*
X840261Y118365D01*
X840496Y118572D01*
X843198Y121274D01*
X848520Y123479D01*
X854280Y123479D01*
X859602Y121274D01*
X862304Y118572D01*
X862331Y118549D01*
X862354Y118523D01*
X862503Y118405D01*
X862650Y118283D01*
X862680Y118265D01*
X862707Y118244D01*
X862875Y118154D01*
X863041Y118059D01*
X863073Y118048D01*
X863104Y118031D01*
X863285Y117972D01*
X863465Y117908D01*
X863499Y117903D01*
X863532Y117892D01*
X863721Y117866D01*
X863909Y117835D01*
X863944Y117835D01*
X863978Y117831D01*
X864169Y117839D01*
X864359Y117841D01*
X864394Y117848D01*
X864428Y117849D01*
X864614Y117890D01*
X864802Y117927D01*
X864834Y117939D01*
X864868Y117947D01*
X865044Y118020D01*
X865222Y118089D01*
X865251Y118107D01*
X865283Y118120D01*
X865444Y118224D01*
X865606Y118323D01*
X865632Y118346D01*
X865661Y118365D01*
X865896Y118572D01*
X868598Y121274D01*
X873920Y123479D01*
X879680Y123479D01*
X885002Y121274D01*
X885729Y120547D01*
X885755Y120525D01*
X885778Y120499D01*
X885927Y120381D01*
X886074Y120258D01*
X886104Y120241D01*
X886131Y120220D01*
X886299Y120130D01*
X886465Y120035D01*
X886498Y120023D01*
X886528Y120007D01*
X886710Y119948D01*
X886889Y119884D01*
X886924Y119878D01*
X886957Y119868D01*
X887146Y119842D01*
X887334Y119811D01*
X887368Y119811D01*
X887403Y119806D01*
X887594Y119814D01*
X887784Y119817D01*
X887818Y119823D01*
X887852Y119825D01*
X888039Y119866D01*
X888226Y119902D01*
X888258Y119915D01*
X888292Y119922D01*
X888468Y119996D01*
X888646Y120065D01*
X888675Y120082D01*
X888707Y120096D01*
X888868Y120200D01*
X889031Y120298D01*
X889057Y120321D01*
X889086Y120340D01*
X889320Y120547D01*
X890787Y122014D01*
X892583Y123393D01*
X894544Y124525D01*
X896636Y125391D01*
X898823Y125977D01*
X899661Y126087D01*
X899661Y109000D01*
X899661Y91913D01*
X898823Y92023D01*
X896636Y92609D01*
X894544Y93475D01*
X892646Y94571D01*
X892625Y94581D01*
X892606Y94594D01*
X892420Y94676D01*
X892237Y94761D01*
X892215Y94767D01*
X892194Y94776D01*
X891997Y94824D01*
X891802Y94876D01*
X891779Y94877D01*
X891756Y94883D01*
X891555Y94895D01*
X891353Y94911D01*
X891330Y94909D01*
X891307Y94911D01*
X891106Y94887D01*
X890905Y94867D01*
X890883Y94861D01*
X890860Y94859D01*
X890666Y94800D01*
X890472Y94745D01*
X890451Y94735D01*
X890429Y94728D01*
X890248Y94636D01*
X890067Y94548D01*
X890048Y94534D01*
X890027Y94524D01*
X889866Y94402D01*
X889703Y94283D01*
X889687Y94266D01*
X889669Y94252D01*
X889532Y94103D01*
X889392Y93957D01*
X889379Y93938D01*
X889363Y93921D01*
X889255Y93750D01*
X889143Y93582D01*
X889134Y93561D01*
X889122Y93541D01*
X889045Y93354D01*
X888965Y93168D01*
X888959Y93146D01*
X888951Y93124D01*
X888908Y92926D01*
X888862Y92730D01*
X888861Y92707D01*
X888856Y92684D01*
X888837Y92372D01*
X888837Y79433D01*
X888851Y79270D01*
X888858Y79105D01*
X888871Y79046D01*
X888877Y78985D01*
X888920Y78826D01*
X888956Y78666D01*
X888979Y78609D01*
X888995Y78551D01*
X889066Y78403D01*
X889129Y78250D01*
X889162Y78199D01*
X889189Y78144D01*
X889284Y78011D01*
X889374Y77872D01*
X889425Y77814D01*
X889451Y77778D01*
X889494Y77735D01*
X889580Y77638D01*
X891829Y75390D01*
X893917Y70348D01*
X893917Y49652D01*
X891829Y44610D01*
X887970Y40751D01*
X882928Y38663D01*
X877472Y38663D01*
X872430Y40752D01*
X869296Y43886D01*
X869269Y43908D01*
X869246Y43934D01*
X869097Y44053D01*
X868950Y44175D01*
X868920Y44192D01*
X868893Y44214D01*
X868725Y44304D01*
X868559Y44398D01*
X868527Y44410D01*
X868496Y44426D01*
X868315Y44485D01*
X868135Y44549D01*
X868101Y44555D01*
X868068Y44565D01*
X867879Y44592D01*
X867691Y44623D01*
X867656Y44622D01*
X867622Y44627D01*
X867431Y44619D01*
X867241Y44617D01*
X867206Y44610D01*
X867172Y44609D01*
X866986Y44567D01*
X866798Y44531D01*
X866766Y44518D01*
X866732Y44511D01*
X866556Y44437D01*
X866378Y44369D01*
X866349Y44351D01*
X866317Y44337D01*
X866156Y44234D01*
X865994Y44135D01*
X865968Y44112D01*
X865939Y44093D01*
X865704Y43886D01*
X862570Y40751D01*
X857528Y38663D01*
X852072Y38663D01*
X847030Y40752D01*
X843896Y43886D01*
X843869Y43908D01*
X843846Y43934D01*
X843697Y44053D01*
X843550Y44175D01*
X843520Y44192D01*
X843493Y44214D01*
X843325Y44304D01*
X843159Y44398D01*
X843127Y44410D01*
X843096Y44426D01*
X842915Y44485D01*
X842735Y44549D01*
X842701Y44555D01*
X842668Y44565D01*
X842479Y44592D01*
X842291Y44623D01*
X842256Y44622D01*
X842222Y44627D01*
X842031Y44619D01*
X841841Y44617D01*
X841806Y44610D01*
X841772Y44609D01*
X841586Y44567D01*
X841398Y44531D01*
X841366Y44518D01*
X841332Y44511D01*
X841156Y44437D01*
X840978Y44369D01*
X840949Y44351D01*
X840917Y44337D01*
X840756Y44234D01*
X840594Y44135D01*
X840568Y44112D01*
X840539Y44093D01*
X840304Y43886D01*
X837170Y40751D01*
X832128Y38663D01*
X826672Y38663D01*
X821630Y40752D01*
X818496Y43886D01*
X818469Y43908D01*
X818446Y43934D01*
X818297Y44053D01*
X818150Y44175D01*
X818120Y44192D01*
X818093Y44214D01*
X817925Y44304D01*
X817759Y44398D01*
X817727Y44410D01*
X817696Y44426D01*
X817515Y44485D01*
X817335Y44549D01*
X817301Y44555D01*
X817268Y44565D01*
X817079Y44592D01*
X816891Y44623D01*
X816856Y44622D01*
X816822Y44627D01*
X816631Y44619D01*
X816441Y44617D01*
X816406Y44610D01*
X816372Y44609D01*
X816186Y44567D01*
X815998Y44531D01*
X815966Y44518D01*
X815932Y44511D01*
X815756Y44437D01*
X815578Y44369D01*
X815549Y44351D01*
X815517Y44337D01*
X815356Y44234D01*
X815194Y44135D01*
X815168Y44112D01*
X815139Y44093D01*
X814904Y43886D01*
X811770Y40751D01*
X806728Y38663D01*
X801272Y38663D01*
X796230Y40752D01*
X793096Y43886D01*
X793069Y43908D01*
X793046Y43934D01*
X792897Y44053D01*
X792750Y44175D01*
X792720Y44192D01*
X792693Y44214D01*
X792525Y44304D01*
X792359Y44398D01*
X792327Y44410D01*
X792296Y44426D01*
X792115Y44485D01*
X791935Y44549D01*
X791901Y44555D01*
X791868Y44565D01*
X791679Y44592D01*
X791491Y44623D01*
X791456Y44622D01*
X791422Y44627D01*
X791231Y44619D01*
X791041Y44617D01*
X791006Y44610D01*
X790972Y44609D01*
X790786Y44567D01*
X790598Y44531D01*
X790566Y44518D01*
X790532Y44511D01*
X790356Y44437D01*
X790178Y44369D01*
X790149Y44351D01*
X790117Y44337D01*
X789956Y44234D01*
X789794Y44135D01*
X789768Y44112D01*
X789739Y44093D01*
X789504Y43886D01*
X786370Y40751D01*
X781328Y38663D01*
X775872Y38663D01*
X770830Y40752D01*
X767696Y43886D01*
X767669Y43908D01*
X767646Y43934D01*
X767497Y44053D01*
X767350Y44175D01*
X767320Y44192D01*
X767293Y44214D01*
X767125Y44304D01*
X766959Y44398D01*
X766927Y44410D01*
X766896Y44426D01*
X766715Y44485D01*
X766535Y44549D01*
X766501Y44555D01*
X766468Y44565D01*
X766279Y44592D01*
X766091Y44623D01*
X766056Y44622D01*
X766022Y44627D01*
X765831Y44619D01*
X765641Y44617D01*
X765606Y44610D01*
X765572Y44609D01*
X765386Y44567D01*
X765198Y44531D01*
X765166Y44518D01*
X765132Y44511D01*
X764956Y44437D01*
X764778Y44369D01*
X764749Y44351D01*
X764717Y44337D01*
X764556Y44234D01*
X764394Y44135D01*
X764368Y44112D01*
X764339Y44093D01*
X764104Y43886D01*
X760970Y40751D01*
X755928Y38663D01*
X750472Y38663D01*
X745430Y40752D01*
X742296Y43886D01*
X742269Y43908D01*
X742246Y43934D01*
X742097Y44053D01*
X741950Y44175D01*
X741920Y44192D01*
X741893Y44214D01*
X741725Y44304D01*
X741559Y44398D01*
X741527Y44410D01*
X741496Y44426D01*
X741315Y44485D01*
X741135Y44549D01*
X741101Y44555D01*
X741068Y44565D01*
X740879Y44592D01*
X740691Y44623D01*
X740656Y44622D01*
X740622Y44627D01*
X740431Y44619D01*
X740241Y44617D01*
X740206Y44610D01*
X740172Y44609D01*
X739986Y44567D01*
X739798Y44531D01*
X739766Y44518D01*
X739732Y44511D01*
X739556Y44437D01*
X739378Y44369D01*
X739349Y44351D01*
X739317Y44337D01*
X739156Y44234D01*
X738994Y44135D01*
X738968Y44112D01*
X738939Y44093D01*
X738704Y43886D01*
X735570Y40751D01*
X730528Y38663D01*
X725072Y38663D01*
X720030Y40752D01*
X716896Y43886D01*
X716869Y43908D01*
X716846Y43934D01*
X716697Y44053D01*
X716550Y44175D01*
X716520Y44192D01*
X716493Y44214D01*
X716325Y44304D01*
X716159Y44398D01*
X716127Y44410D01*
X716096Y44426D01*
X715915Y44485D01*
X715735Y44549D01*
X715701Y44555D01*
X715668Y44565D01*
X715479Y44592D01*
X715291Y44623D01*
X715256Y44622D01*
X715222Y44627D01*
X715031Y44619D01*
X714841Y44617D01*
X714806Y44610D01*
X714772Y44609D01*
X714586Y44567D01*
X714398Y44531D01*
X714366Y44518D01*
X714332Y44511D01*
X714156Y44437D01*
X713978Y44369D01*
X713949Y44351D01*
X713917Y44337D01*
X713756Y44234D01*
X713594Y44135D01*
X713568Y44112D01*
X713539Y44093D01*
X713304Y43886D01*
X710170Y40751D01*
X705128Y38663D01*
X699672Y38663D01*
X694630Y40752D01*
X691496Y43886D01*
X691469Y43908D01*
X691446Y43934D01*
X691297Y44053D01*
X691150Y44175D01*
X691120Y44192D01*
X691093Y44214D01*
X690925Y44304D01*
X690759Y44398D01*
X690727Y44410D01*
X690696Y44426D01*
X690515Y44485D01*
X690335Y44549D01*
X690301Y44555D01*
X690268Y44565D01*
X690079Y44592D01*
X689891Y44623D01*
X689856Y44622D01*
X689822Y44627D01*
X689631Y44619D01*
X689441Y44617D01*
X689406Y44610D01*
X689372Y44609D01*
X689186Y44567D01*
X688998Y44531D01*
X688966Y44518D01*
X688932Y44511D01*
X688756Y44437D01*
X688578Y44369D01*
X688549Y44351D01*
X688517Y44337D01*
X688356Y44234D01*
X688194Y44135D01*
X688168Y44112D01*
X688139Y44093D01*
X687904Y43886D01*
X684770Y40751D01*
X679728Y38663D01*
X674272Y38663D01*
X669230Y40752D01*
X666096Y43886D01*
X666069Y43908D01*
X666046Y43934D01*
X665897Y44053D01*
X665750Y44175D01*
X665720Y44192D01*
X665693Y44214D01*
X665525Y44304D01*
X665359Y44398D01*
X665327Y44410D01*
X665296Y44426D01*
X665115Y44485D01*
X664935Y44549D01*
X664901Y44555D01*
X664868Y44565D01*
X664679Y44592D01*
X664491Y44623D01*
X664456Y44622D01*
X664422Y44627D01*
X664231Y44619D01*
X664041Y44617D01*
X664006Y44610D01*
X663972Y44609D01*
X663786Y44567D01*
X663598Y44531D01*
X663566Y44518D01*
X663532Y44511D01*
X663356Y44437D01*
X663178Y44369D01*
X663149Y44351D01*
X663117Y44337D01*
X662956Y44234D01*
X662794Y44135D01*
X662768Y44112D01*
X662739Y44093D01*
X662504Y43886D01*
X659370Y40751D01*
X654328Y38663D01*
X648872Y38663D01*
X643830Y40752D01*
X640696Y43886D01*
X640669Y43908D01*
X640646Y43934D01*
X640497Y44053D01*
X640350Y44175D01*
X640320Y44192D01*
X640293Y44214D01*
X640125Y44304D01*
X639959Y44398D01*
X639927Y44410D01*
X639896Y44426D01*
X639715Y44485D01*
X639535Y44549D01*
X639501Y44555D01*
X639468Y44565D01*
X639279Y44592D01*
X639091Y44623D01*
X639056Y44622D01*
X639022Y44627D01*
X638831Y44619D01*
X638641Y44617D01*
X638606Y44610D01*
X638572Y44609D01*
X638386Y44567D01*
X638198Y44531D01*
X638166Y44518D01*
X638132Y44511D01*
X637956Y44437D01*
X637778Y44369D01*
X637749Y44351D01*
X637717Y44337D01*
X637556Y44234D01*
X637394Y44135D01*
X637368Y44112D01*
X637339Y44093D01*
X637104Y43886D01*
X633970Y40751D01*
X628928Y38663D01*
X623472Y38663D01*
X618430Y40752D01*
X615296Y43886D01*
X615269Y43908D01*
X615246Y43934D01*
X615097Y44053D01*
X614950Y44175D01*
X614920Y44192D01*
X614893Y44214D01*
X614725Y44304D01*
X614559Y44398D01*
X614527Y44410D01*
X614496Y44426D01*
X614315Y44485D01*
X614135Y44549D01*
X614101Y44555D01*
X614068Y44565D01*
X613879Y44592D01*
X613691Y44623D01*
X613656Y44622D01*
X613622Y44627D01*
X613431Y44619D01*
X613241Y44617D01*
X613206Y44610D01*
X613172Y44609D01*
X612986Y44567D01*
X612798Y44531D01*
X612766Y44518D01*
X612732Y44511D01*
X612556Y44437D01*
X612378Y44369D01*
X612349Y44351D01*
X612317Y44337D01*
X612156Y44234D01*
X611994Y44135D01*
X611968Y44112D01*
X611939Y44093D01*
X611704Y43886D01*
X608570Y40751D01*
X603528Y38663D01*
X598072Y38663D01*
X593030Y40752D01*
X589896Y43886D01*
X589869Y43908D01*
X589846Y43934D01*
X589697Y44053D01*
X589550Y44175D01*
X589520Y44192D01*
X589493Y44214D01*
X589325Y44304D01*
X589159Y44398D01*
X589127Y44410D01*
X589096Y44426D01*
X588915Y44485D01*
X588735Y44549D01*
X588701Y44555D01*
X588668Y44565D01*
X588479Y44592D01*
X588291Y44623D01*
X588256Y44622D01*
X588222Y44627D01*
X588031Y44619D01*
X587841Y44617D01*
X587806Y44610D01*
X587772Y44609D01*
X587586Y44567D01*
X587398Y44531D01*
X587366Y44518D01*
X587332Y44511D01*
X587156Y44437D01*
X586978Y44369D01*
X586949Y44351D01*
X586917Y44337D01*
X586756Y44234D01*
X586594Y44135D01*
X586568Y44112D01*
X586539Y44093D01*
X586304Y43886D01*
X583170Y40751D01*
X578128Y38663D01*
X572672Y38663D01*
X567630Y40752D01*
X564496Y43886D01*
X564469Y43908D01*
X564446Y43934D01*
X564297Y44053D01*
X564150Y44175D01*
X564120Y44192D01*
X564093Y44214D01*
X563925Y44304D01*
X563759Y44398D01*
X563727Y44410D01*
X563696Y44426D01*
X563515Y44485D01*
X563335Y44549D01*
X563301Y44555D01*
X563268Y44565D01*
X563079Y44592D01*
X562891Y44623D01*
X562856Y44622D01*
X562822Y44627D01*
X562631Y44619D01*
X562441Y44617D01*
X562406Y44610D01*
X562372Y44609D01*
X562186Y44567D01*
X561998Y44531D01*
X561966Y44518D01*
X561932Y44511D01*
X561756Y44437D01*
X561578Y44369D01*
X561549Y44351D01*
X561517Y44337D01*
X561356Y44234D01*
X561194Y44135D01*
X561168Y44112D01*
X561139Y44093D01*
X560904Y43886D01*
X557770Y40751D01*
X552728Y38663D01*
X547272Y38663D01*
X542230Y40752D01*
X539096Y43886D01*
X539069Y43908D01*
X539046Y43934D01*
X538897Y44053D01*
X538750Y44175D01*
X538720Y44192D01*
X538693Y44214D01*
X538525Y44304D01*
X538359Y44398D01*
X538327Y44410D01*
X538296Y44426D01*
X538115Y44485D01*
X537935Y44549D01*
X537901Y44555D01*
X537868Y44565D01*
X537679Y44592D01*
X537491Y44623D01*
X537456Y44622D01*
X537422Y44627D01*
X537231Y44619D01*
X537041Y44617D01*
X537006Y44610D01*
X536972Y44609D01*
X536786Y44567D01*
X536598Y44531D01*
X536566Y44518D01*
X536532Y44511D01*
X536356Y44437D01*
X536178Y44369D01*
X536149Y44351D01*
X536117Y44337D01*
X535956Y44234D01*
X535794Y44135D01*
X535768Y44112D01*
X535739Y44093D01*
X535504Y43886D01*
X532370Y40751D01*
X527328Y38663D01*
X521872Y38663D01*
X516830Y40752D01*
X513696Y43886D01*
X513669Y43908D01*
X513646Y43934D01*
X513497Y44053D01*
X513350Y44175D01*
X513320Y44192D01*
X513293Y44214D01*
X513125Y44304D01*
X512959Y44398D01*
X512927Y44410D01*
X512896Y44426D01*
X512715Y44485D01*
X512535Y44549D01*
X512501Y44555D01*
X512468Y44565D01*
X512279Y44592D01*
X512091Y44623D01*
X512056Y44622D01*
X512022Y44627D01*
X511831Y44619D01*
X511641Y44617D01*
X511606Y44610D01*
X511572Y44609D01*
X511386Y44567D01*
X511198Y44531D01*
X511166Y44518D01*
X511132Y44511D01*
X510956Y44437D01*
X510778Y44369D01*
X510749Y44351D01*
X510717Y44337D01*
X510556Y44234D01*
X510394Y44135D01*
X510368Y44112D01*
X510339Y44093D01*
X510104Y43886D01*
X506970Y40751D01*
X501928Y38663D01*
X496472Y38663D01*
X491430Y40752D01*
X488296Y43886D01*
X488269Y43908D01*
X488246Y43934D01*
X488097Y44053D01*
X487950Y44175D01*
X487920Y44192D01*
X487893Y44214D01*
X487725Y44304D01*
X487559Y44398D01*
X487527Y44410D01*
X487496Y44426D01*
X487315Y44485D01*
X487135Y44549D01*
X487101Y44555D01*
X487068Y44565D01*
X486879Y44592D01*
X486691Y44623D01*
X486656Y44622D01*
X486622Y44627D01*
X486431Y44619D01*
X486241Y44617D01*
X486206Y44610D01*
X486172Y44609D01*
X485986Y44567D01*
X485798Y44531D01*
X485766Y44518D01*
X485732Y44511D01*
X485556Y44437D01*
X485378Y44369D01*
X485349Y44351D01*
X485317Y44337D01*
X485156Y44234D01*
X484994Y44135D01*
X484968Y44112D01*
X484939Y44093D01*
X484704Y43886D01*
X481570Y40751D01*
X476528Y38663D01*
X471072Y38663D01*
G37*
%LPD*%
%LPC*%
G36*
X428687Y894839D02*
X428687Y894839D01*
X422288Y896554D01*
X416551Y899866D01*
X411866Y904551D01*
X408554Y910288D01*
X406839Y916687D01*
X406839Y923313D01*
X408554Y929712D01*
X411866Y935449D01*
X416551Y940134D01*
X422288Y943446D01*
X428687Y945161D01*
X435313Y945161D01*
X441712Y943446D01*
X447449Y940134D01*
X452134Y935449D01*
X455446Y929712D01*
X457161Y923313D01*
X457161Y916687D01*
X455446Y910288D01*
X452134Y904551D01*
X447449Y899866D01*
X441712Y896554D01*
X435313Y894839D01*
X428687Y894839D01*
G37*
%LPD*%
%LPC*%
G36*
X927687Y894839D02*
X927687Y894839D01*
X921288Y896554D01*
X915551Y899866D01*
X910866Y904551D01*
X907554Y910288D01*
X905839Y916687D01*
X905839Y923313D01*
X907554Y929712D01*
X910866Y935449D01*
X915551Y940134D01*
X921288Y943446D01*
X927687Y945161D01*
X934313Y945161D01*
X940712Y943446D01*
X946449Y940134D01*
X951134Y935449D01*
X954446Y929712D01*
X956161Y923313D01*
X956161Y916687D01*
X954446Y910288D01*
X951134Y904551D01*
X946449Y899866D01*
X940712Y896554D01*
X934313Y894839D01*
X927687Y894839D01*
G37*
%LPD*%
%LPC*%
G36*
X527687Y894839D02*
X527687Y894839D01*
X521288Y896554D01*
X515551Y899866D01*
X510866Y904551D01*
X507554Y910288D01*
X505839Y916687D01*
X505839Y923313D01*
X507554Y929712D01*
X510866Y935449D01*
X515551Y940134D01*
X521288Y943446D01*
X527687Y945161D01*
X534313Y945161D01*
X540712Y943446D01*
X546449Y940134D01*
X551134Y935449D01*
X554446Y929712D01*
X556161Y923313D01*
X556161Y916687D01*
X554446Y910288D01*
X551134Y904551D01*
X546449Y899866D01*
X540712Y896554D01*
X534313Y894839D01*
X527687Y894839D01*
G37*
%LPD*%
%LPC*%
G36*
X428687Y494839D02*
X428687Y494839D01*
X422288Y496554D01*
X416551Y499866D01*
X411866Y504551D01*
X408554Y510288D01*
X406839Y516687D01*
X406839Y523313D01*
X408554Y529712D01*
X411866Y535449D01*
X416551Y540134D01*
X422288Y543446D01*
X428687Y545161D01*
X435313Y545161D01*
X441712Y543446D01*
X447449Y540134D01*
X452134Y535449D01*
X455446Y529712D01*
X457161Y523313D01*
X457161Y516687D01*
X455446Y510288D01*
X452134Y504551D01*
X447449Y499866D01*
X441712Y496554D01*
X435313Y494839D01*
X428687Y494839D01*
G37*
%LPD*%
%LPC*%
G36*
X927687Y494839D02*
X927687Y494839D01*
X921288Y496554D01*
X915551Y499866D01*
X910866Y504551D01*
X907554Y510288D01*
X905839Y516687D01*
X905839Y523313D01*
X907554Y529712D01*
X910866Y535449D01*
X915551Y540134D01*
X921288Y543446D01*
X927687Y545161D01*
X934313Y545161D01*
X940712Y543446D01*
X946449Y540134D01*
X951134Y535449D01*
X954446Y529712D01*
X956161Y523313D01*
X956161Y516687D01*
X954446Y510288D01*
X951134Y504551D01*
X946449Y499866D01*
X940712Y496554D01*
X934313Y494839D01*
X927687Y494839D01*
G37*
%LPD*%
%LPC*%
G36*
X527687Y494839D02*
X527687Y494839D01*
X521288Y496554D01*
X515551Y499866D01*
X510866Y504551D01*
X507554Y510288D01*
X505839Y516687D01*
X505839Y523313D01*
X507554Y529712D01*
X510866Y535449D01*
X515551Y540134D01*
X521288Y543446D01*
X527687Y545161D01*
X534313Y545161D01*
X540712Y543446D01*
X546449Y540134D01*
X551134Y535449D01*
X554446Y529712D01*
X556161Y523313D01*
X556161Y516687D01*
X554446Y510288D01*
X551134Y504551D01*
X546449Y499866D01*
X540712Y496554D01*
X534313Y494839D01*
X527687Y494839D01*
G37*
%LPD*%
%LPC*%
G36*
X791620Y451521D02*
X791620Y451521D01*
X786298Y453726D01*
X782226Y457798D01*
X780021Y463120D01*
X780021Y468880D01*
X782226Y474202D01*
X786298Y478274D01*
X791620Y480479D01*
X797380Y480479D01*
X802702Y478274D01*
X806774Y474202D01*
X808979Y468880D01*
X808979Y463120D01*
X806774Y457798D01*
X802702Y453726D01*
X797380Y451521D01*
X791620Y451521D01*
G37*
%LPD*%
%LPC*%
G36*
X829720Y451521D02*
X829720Y451521D01*
X824398Y453726D01*
X820326Y457798D01*
X818121Y463120D01*
X818121Y468880D01*
X820326Y474202D01*
X824398Y478274D01*
X829720Y480479D01*
X835480Y480479D01*
X840802Y478274D01*
X844874Y474202D01*
X847079Y468880D01*
X847079Y463120D01*
X844874Y457798D01*
X840802Y453726D01*
X835480Y451521D01*
X829720Y451521D01*
G37*
%LPD*%
%LPC*%
G36*
X482319Y443539D02*
X482319Y443539D01*
X482319Y458781D01*
X487145Y458781D01*
X497561Y448365D01*
X497561Y443539D01*
X482319Y443539D01*
G37*
%LPD*%
%LPC*%
G36*
X482319Y423219D02*
X482319Y423219D01*
X482319Y438461D01*
X497561Y438461D01*
X497561Y433635D01*
X487145Y423219D01*
X482319Y423219D01*
G37*
%LPD*%
%LPC*%
G36*
X475839Y646339D02*
X475839Y646339D01*
X475839Y660887D01*
X476677Y660777D01*
X478864Y660191D01*
X480956Y659325D01*
X482917Y658193D01*
X484713Y656814D01*
X486314Y655213D01*
X487693Y653417D01*
X488825Y651456D01*
X489691Y649364D01*
X490277Y647177D01*
X490387Y646339D01*
X475839Y646339D01*
G37*
%LPD*%
%LPC*%
G36*
X904739Y111539D02*
X904739Y111539D01*
X904739Y126087D01*
X905577Y125977D01*
X907764Y125391D01*
X909856Y124525D01*
X911817Y123393D01*
X913613Y122014D01*
X915214Y120413D01*
X916593Y118617D01*
X917725Y116656D01*
X918591Y114564D01*
X919177Y112377D01*
X919287Y111539D01*
X904739Y111539D01*
G37*
%LPD*%
%LPC*%
G36*
X955213Y646339D02*
X955213Y646339D01*
X955323Y647177D01*
X955909Y649364D01*
X956775Y651456D01*
X957907Y653417D01*
X959286Y655213D01*
X960887Y656814D01*
X962683Y658193D01*
X964644Y659325D01*
X966736Y660191D01*
X968923Y660777D01*
X969761Y660887D01*
X969761Y646339D01*
X955213Y646339D01*
G37*
%LPD*%
%LPC*%
G36*
X456213Y646339D02*
X456213Y646339D01*
X456323Y647177D01*
X456909Y649364D01*
X457775Y651456D01*
X458907Y653417D01*
X460286Y655213D01*
X461887Y656814D01*
X463683Y658193D01*
X465644Y659325D01*
X467736Y660191D01*
X469923Y660777D01*
X470761Y660887D01*
X470761Y646339D01*
X456213Y646339D01*
G37*
%LPD*%
%LPC*%
G36*
X475839Y641261D02*
X475839Y641261D01*
X490387Y641261D01*
X490277Y640423D01*
X489691Y638236D01*
X488825Y636144D01*
X487693Y634183D01*
X486314Y632387D01*
X484713Y630786D01*
X482917Y629407D01*
X480956Y628275D01*
X478864Y627409D01*
X476677Y626823D01*
X475839Y626713D01*
X475839Y641261D01*
G37*
%LPD*%
%LPC*%
G36*
X904739Y106461D02*
X904739Y106461D01*
X919287Y106461D01*
X919177Y105623D01*
X918591Y103436D01*
X917725Y101344D01*
X916593Y99383D01*
X915214Y97587D01*
X913613Y95986D01*
X911817Y94607D01*
X909856Y93475D01*
X907764Y92609D01*
X905577Y92023D01*
X904739Y91913D01*
X904739Y106461D01*
G37*
%LPD*%
%LPC*%
G36*
X968923Y626823D02*
X968923Y626823D01*
X966736Y627409D01*
X964644Y628275D01*
X962683Y629407D01*
X960887Y630786D01*
X959286Y632387D01*
X957907Y634183D01*
X956775Y636144D01*
X955909Y638236D01*
X955323Y640423D01*
X955213Y641261D01*
X969761Y641261D01*
X969761Y626713D01*
X968923Y626823D01*
G37*
%LPD*%
%LPC*%
G36*
X469923Y626823D02*
X469923Y626823D01*
X467736Y627409D01*
X465644Y628275D01*
X463683Y629407D01*
X461887Y630786D01*
X460286Y632387D01*
X458907Y634183D01*
X457775Y636144D01*
X456909Y638236D01*
X456323Y640423D01*
X456213Y641261D01*
X470761Y641261D01*
X470761Y626713D01*
X469923Y626823D01*
G37*
%LPD*%
D10*
X445000Y109000D03*
X470400Y109000D03*
X495800Y109000D03*
X521200Y109000D03*
X546600Y109000D03*
X572000Y109000D03*
X597400Y109000D03*
X622800Y109000D03*
X648200Y109000D03*
X673600Y109000D03*
X699000Y109000D03*
X724400Y109000D03*
X749800Y109000D03*
X775200Y109000D03*
X800600Y109000D03*
X826000Y109000D03*
X851400Y109000D03*
X876800Y109000D03*
X902200Y109000D03*
X902200Y337600D03*
X876800Y337600D03*
X851400Y337600D03*
X826000Y337600D03*
X800600Y337600D03*
X775200Y337600D03*
X749800Y337600D03*
X724400Y337600D03*
X699000Y337600D03*
X673600Y337600D03*
X648200Y337600D03*
X622800Y337600D03*
X597400Y337600D03*
X572000Y337600D03*
X546600Y337600D03*
X521200Y337600D03*
X495800Y337600D03*
X470400Y337600D03*
X445000Y337600D03*
D11*
X479780Y441000D03*
D12*
X444220Y441000D03*
D10*
X295500Y466000D03*
X333600Y466000D03*
X473300Y643800D03*
X473300Y681900D03*
X295500Y974000D03*
X333600Y974000D03*
X473300Y770800D03*
X473300Y796200D03*
X473300Y821600D03*
X473300Y847000D03*
X473300Y745400D03*
X473300Y872400D03*
X794500Y466000D03*
X832600Y466000D03*
X972300Y643800D03*
X972300Y681900D03*
X794500Y974000D03*
X832600Y974000D03*
X972300Y770800D03*
X972300Y796200D03*
X972300Y821600D03*
X972300Y847000D03*
X972300Y745400D03*
X972300Y872400D03*
D13*
X524900Y402620D02*
X524900Y387380D01*
X550300Y387380D02*
X550300Y402620D01*
X575700Y402620D02*
X575700Y387380D01*
X601100Y387380D02*
X601100Y402620D01*
X626500Y402620D02*
X626500Y387380D01*
X651900Y387380D02*
X651900Y402620D01*
X677300Y402620D02*
X677300Y387380D01*
X702700Y387380D02*
X702700Y402620D01*
X728100Y402620D02*
X728100Y387380D01*
X753500Y387380D02*
X753500Y402620D01*
X778900Y402620D02*
X778900Y387380D01*
X804300Y387380D02*
X804300Y402620D01*
X829700Y402620D02*
X829700Y387380D01*
X855100Y387380D02*
X855100Y402620D01*
X880200Y67620D02*
X880200Y52380D01*
X854800Y52380D02*
X854800Y67620D01*
X829400Y67620D02*
X829400Y52380D01*
X804000Y52380D02*
X804000Y67620D01*
X778600Y67620D02*
X778600Y52380D01*
X753200Y52380D02*
X753200Y67620D01*
X727800Y67620D02*
X727800Y52380D01*
X702400Y52380D02*
X702400Y67620D01*
X677000Y67620D02*
X677000Y52380D01*
X651600Y52380D02*
X651600Y67620D01*
X626200Y67620D02*
X626200Y52380D01*
X600800Y52380D02*
X600800Y67620D01*
X575400Y67620D02*
X575400Y52380D01*
X550000Y52380D02*
X550000Y67620D01*
X524600Y67620D02*
X524600Y52380D01*
X499200Y52380D02*
X499200Y67620D01*
X473800Y67620D02*
X473800Y52380D01*
D14*
X445000Y337600D02*
X445000Y440220D01*
X444220Y441000D01*
X430900Y681900D02*
X473300Y681900D01*
X385000Y636000D02*
X385000Y478000D01*
X422000Y441000D01*
X444220Y441000D01*
X385000Y636000D02*
X430900Y681900D01*
X473300Y681900D02*
X972300Y681900D01*
X648200Y337600D02*
X648200Y307200D01*
X624000Y283000D01*
X405000Y283000D01*
X408800Y770800D02*
X473300Y770800D01*
X268000Y420000D02*
X405000Y283000D01*
X268000Y420000D02*
X268000Y630000D01*
X408800Y770800D01*
X673600Y337600D02*
X673600Y297600D01*
X640000Y264000D01*
X392000Y264000D01*
X246000Y410000D01*
X246000Y644000D01*
X398200Y796200D02*
X473300Y796200D01*
X398200Y796200D02*
X246000Y644000D01*
X622800Y337600D02*
X622800Y315800D01*
X609000Y302000D01*
X422000Y302000D01*
X359000Y681000D02*
X424000Y746000D01*
X472700Y746000D01*
X473300Y745400D01*
X359000Y365000D02*
X422000Y302000D01*
X359000Y365000D02*
X359000Y681000D01*
X514000Y395000D02*
X524900Y395000D01*
X470400Y351400D02*
X470400Y337600D01*
X470400Y351400D02*
X514000Y395000D01*
X546000Y390700D02*
X550300Y395000D01*
X546000Y390700D02*
X546000Y383000D01*
X534000Y371000D01*
X517000Y371000D01*
X495800Y349800D01*
X495800Y337600D01*
X575700Y388700D02*
X575700Y395000D01*
X545000Y358000D02*
X532000Y358000D01*
X521000Y347000D01*
X521000Y337800D01*
X521200Y337600D01*
X545000Y358000D02*
X575700Y388700D01*
X601100Y395000D02*
X601100Y382100D01*
X565000Y356000D02*
X546600Y337600D01*
X575000Y356000D02*
X601100Y382100D01*
X575000Y356000D02*
X565000Y356000D01*
X626500Y380500D02*
X626500Y395000D01*
X597400Y351400D02*
X597400Y337600D01*
X597400Y351400D02*
X626500Y380500D01*
X651900Y380100D02*
X651900Y395000D01*
X699000Y341000D02*
X699000Y337600D01*
X677000Y355000D02*
X651900Y380100D01*
X677000Y355000D02*
X685000Y355000D01*
X699000Y341000D01*
X677300Y383700D02*
X677300Y395000D01*
X724400Y341600D02*
X724400Y337600D01*
X691000Y370000D02*
X677300Y383700D01*
X691000Y370000D02*
X696000Y370000D01*
X724400Y341600D01*
X702700Y388300D02*
X702700Y395000D01*
X749800Y341200D02*
X749800Y337600D01*
X749800Y341200D02*
X702700Y388300D01*
X728100Y385900D02*
X728100Y395000D01*
X775200Y338800D02*
X775200Y337600D01*
X775200Y338800D02*
X728100Y385900D01*
X753500Y383500D02*
X753500Y395000D01*
X782000Y355000D02*
X787000Y355000D01*
X800600Y341400D01*
X800600Y337600D01*
X782000Y355000D02*
X753500Y383500D01*
X778900Y382100D02*
X778900Y395000D01*
X796000Y365000D02*
X804000Y365000D01*
X826000Y343000D01*
X826000Y337600D01*
X796000Y365000D02*
X778900Y382100D01*
X804300Y389700D02*
X804300Y395000D01*
X851400Y342600D02*
X851400Y337600D01*
X851400Y342600D02*
X804300Y389700D01*
X829700Y388300D02*
X829700Y395000D01*
X829700Y388300D02*
X877000Y341000D01*
X877000Y337800D01*
X876800Y337600D01*
X902200Y345900D02*
X855100Y393000D01*
X855100Y395000D01*
X902200Y345900D02*
X902200Y337600D01*
X876800Y109000D02*
X880200Y105600D01*
X880200Y60000D01*
X854800Y60000D02*
X854800Y105600D01*
X851400Y109000D01*
X829400Y105600D02*
X829400Y60000D01*
X829400Y105600D02*
X826000Y109000D01*
X804000Y105600D02*
X804000Y60000D01*
X804000Y105600D02*
X800600Y109000D01*
X778600Y105600D02*
X778600Y60000D01*
X778600Y105600D02*
X775200Y109000D01*
X753200Y60000D02*
X753200Y59800D01*
X753200Y60000D02*
X753200Y78800D01*
X724400Y107600D02*
X724400Y109000D01*
X724400Y107600D02*
X753200Y78800D01*
X727800Y61200D02*
X727800Y60000D01*
X727800Y77200D01*
X699000Y106000D02*
X699000Y109000D01*
X699000Y106000D02*
X727800Y77200D01*
X702400Y64600D02*
X702400Y60000D01*
X702400Y75600D01*
X673600Y104400D02*
X673600Y109000D01*
X673600Y104400D02*
X702400Y75600D01*
X677000Y65000D02*
X677000Y60000D01*
X677000Y79000D01*
X648200Y107800D02*
X648200Y109000D01*
X648200Y107800D02*
X677000Y79000D01*
X651600Y61400D02*
X651600Y60000D01*
X651600Y74400D01*
X622800Y103200D02*
X622800Y109000D01*
X622800Y103200D02*
X651600Y74400D01*
X626200Y62800D02*
X626200Y60000D01*
X626200Y75800D01*
X597400Y104600D02*
X597400Y109000D01*
X597400Y104600D02*
X626200Y75800D01*
X600800Y65200D02*
X600800Y60000D01*
X600800Y79200D01*
X572000Y108000D02*
X572000Y109000D01*
X572000Y108000D02*
X600800Y79200D01*
X575400Y61600D02*
X575400Y60000D01*
X575400Y78600D01*
X546600Y107400D02*
X546600Y109000D01*
X546600Y107400D02*
X575400Y78600D01*
X550000Y61000D02*
X550000Y60000D01*
X550000Y77000D01*
X521200Y105800D02*
X521200Y109000D01*
X521200Y105800D02*
X550000Y77000D01*
X524600Y61400D02*
X524600Y60000D01*
X524600Y74400D01*
X495800Y103200D02*
X495800Y109000D01*
X495800Y103200D02*
X524600Y74400D01*
X499200Y62800D02*
X499200Y60000D01*
X499200Y72800D01*
X470400Y101600D02*
X470400Y109000D01*
X470400Y101600D02*
X499200Y72800D01*
X473800Y70200D02*
X473800Y60000D01*
X445000Y99000D02*
X445000Y109000D01*
X445000Y99000D02*
X473800Y70200D01*
M02*
