G04 EAGLE Gerber RS-274X export*
G75*
%MOMM*%
%FSLAX34Y34*%
%LPD*%
%IN*%
%IPPOS*%
%AMOC8*
5,1,8,0,0,1.08239X$1,22.5*%
G01*
%ADD10C,0.254000*%


D10*
X0Y0D02*
X1000000Y0D01*
X1000000Y1000000D01*
X0Y1000000D01*
X0Y0D01*
X32536Y535000D02*
X33604Y534924D01*
X34665Y534771D01*
X35712Y534543D01*
X36740Y534241D01*
X37744Y533867D01*
X38719Y533422D01*
X39659Y532908D01*
X40560Y532329D01*
X41418Y531687D01*
X42228Y530985D01*
X42985Y530228D01*
X43687Y529418D01*
X44329Y528560D01*
X44908Y527659D01*
X45422Y526719D01*
X45867Y525744D01*
X46241Y524740D01*
X46543Y523712D01*
X46771Y522665D01*
X46924Y521604D01*
X47000Y520536D01*
X47000Y519464D01*
X46924Y518396D01*
X46771Y517335D01*
X46543Y516288D01*
X46241Y515260D01*
X45867Y514256D01*
X45422Y513281D01*
X44908Y512341D01*
X44329Y511440D01*
X43687Y510582D01*
X42985Y509772D01*
X42228Y509015D01*
X41418Y508313D01*
X40560Y507671D01*
X39659Y507092D01*
X38719Y506578D01*
X37744Y506133D01*
X36740Y505759D01*
X35712Y505457D01*
X34665Y505229D01*
X33604Y505076D01*
X32536Y505000D01*
X31464Y505000D01*
X30396Y505076D01*
X29335Y505229D01*
X28288Y505457D01*
X27260Y505759D01*
X26256Y506133D01*
X25281Y506578D01*
X24341Y507092D01*
X23440Y507671D01*
X22582Y508313D01*
X21772Y509015D01*
X21015Y509772D01*
X20313Y510582D01*
X19671Y511440D01*
X19092Y512341D01*
X18578Y513281D01*
X18133Y514256D01*
X17759Y515260D01*
X17457Y516288D01*
X17229Y517335D01*
X17076Y518396D01*
X17000Y519464D01*
X17000Y520536D01*
X17076Y521604D01*
X17229Y522665D01*
X17457Y523712D01*
X17759Y524740D01*
X18133Y525744D01*
X18578Y526719D01*
X19092Y527659D01*
X19671Y528560D01*
X20313Y529418D01*
X21015Y530228D01*
X21772Y530985D01*
X22582Y531687D01*
X23440Y532329D01*
X24341Y532908D01*
X25281Y533422D01*
X26256Y533867D01*
X27260Y534241D01*
X28288Y534543D01*
X29335Y534771D01*
X30396Y534924D01*
X31464Y535000D01*
X32536Y535000D01*
X32536Y935000D02*
X33604Y934924D01*
X34665Y934771D01*
X35712Y934543D01*
X36740Y934241D01*
X37744Y933867D01*
X38719Y933422D01*
X39659Y932908D01*
X40560Y932329D01*
X41418Y931687D01*
X42228Y930985D01*
X42985Y930228D01*
X43687Y929418D01*
X44329Y928560D01*
X44908Y927659D01*
X45422Y926719D01*
X45867Y925744D01*
X46241Y924740D01*
X46543Y923712D01*
X46771Y922665D01*
X46924Y921604D01*
X47000Y920536D01*
X47000Y919464D01*
X46924Y918396D01*
X46771Y917335D01*
X46543Y916288D01*
X46241Y915260D01*
X45867Y914256D01*
X45422Y913281D01*
X44908Y912341D01*
X44329Y911440D01*
X43687Y910582D01*
X42985Y909772D01*
X42228Y909015D01*
X41418Y908313D01*
X40560Y907671D01*
X39659Y907092D01*
X38719Y906578D01*
X37744Y906133D01*
X36740Y905759D01*
X35712Y905457D01*
X34665Y905229D01*
X33604Y905076D01*
X32536Y905000D01*
X31464Y905000D01*
X30396Y905076D01*
X29335Y905229D01*
X28288Y905457D01*
X27260Y905759D01*
X26256Y906133D01*
X25281Y906578D01*
X24341Y907092D01*
X23440Y907671D01*
X22582Y908313D01*
X21772Y909015D01*
X21015Y909772D01*
X20313Y910582D01*
X19671Y911440D01*
X19092Y912341D01*
X18578Y913281D01*
X18133Y914256D01*
X17759Y915260D01*
X17457Y916288D01*
X17229Y917335D01*
X17076Y918396D01*
X17000Y919464D01*
X17000Y920536D01*
X17076Y921604D01*
X17229Y922665D01*
X17457Y923712D01*
X17759Y924740D01*
X18133Y925744D01*
X18578Y926719D01*
X19092Y927659D01*
X19671Y928560D01*
X20313Y929418D01*
X21015Y930228D01*
X21772Y930985D01*
X22582Y931687D01*
X23440Y932329D01*
X24341Y932908D01*
X25281Y933422D01*
X26256Y933867D01*
X27260Y934241D01*
X28288Y934543D01*
X29335Y934771D01*
X30396Y934924D01*
X31464Y935000D01*
X32536Y935000D01*
X432536Y935000D02*
X433604Y934924D01*
X434665Y934771D01*
X435712Y934543D01*
X436740Y934241D01*
X437744Y933867D01*
X438719Y933422D01*
X439659Y932908D01*
X440560Y932329D01*
X441418Y931687D01*
X442228Y930985D01*
X442985Y930228D01*
X443687Y929418D01*
X444329Y928560D01*
X444908Y927659D01*
X445422Y926719D01*
X445867Y925744D01*
X446241Y924740D01*
X446543Y923712D01*
X446771Y922665D01*
X446924Y921604D01*
X447000Y920536D01*
X447000Y919464D01*
X446924Y918396D01*
X446771Y917335D01*
X446543Y916288D01*
X446241Y915260D01*
X445867Y914256D01*
X445422Y913281D01*
X444908Y912341D01*
X444329Y911440D01*
X443687Y910582D01*
X442985Y909772D01*
X442228Y909015D01*
X441418Y908313D01*
X440560Y907671D01*
X439659Y907092D01*
X438719Y906578D01*
X437744Y906133D01*
X436740Y905759D01*
X435712Y905457D01*
X434665Y905229D01*
X433604Y905076D01*
X432536Y905000D01*
X431464Y905000D01*
X430396Y905076D01*
X429335Y905229D01*
X428288Y905457D01*
X427260Y905759D01*
X426256Y906133D01*
X425281Y906578D01*
X424341Y907092D01*
X423440Y907671D01*
X422582Y908313D01*
X421772Y909015D01*
X421015Y909772D01*
X420313Y910582D01*
X419671Y911440D01*
X419092Y912341D01*
X418578Y913281D01*
X418133Y914256D01*
X417759Y915260D01*
X417457Y916288D01*
X417229Y917335D01*
X417076Y918396D01*
X417000Y919464D01*
X417000Y920536D01*
X417076Y921604D01*
X417229Y922665D01*
X417457Y923712D01*
X417759Y924740D01*
X418133Y925744D01*
X418578Y926719D01*
X419092Y927659D01*
X419671Y928560D01*
X420313Y929418D01*
X421015Y930228D01*
X421772Y930985D01*
X422582Y931687D01*
X423440Y932329D01*
X424341Y932908D01*
X425281Y933422D01*
X426256Y933867D01*
X427260Y934241D01*
X428288Y934543D01*
X429335Y934771D01*
X430396Y934924D01*
X431464Y935000D01*
X432536Y935000D01*
X432536Y535000D02*
X433604Y534924D01*
X434665Y534771D01*
X435712Y534543D01*
X436740Y534241D01*
X437744Y533867D01*
X438719Y533422D01*
X439659Y532908D01*
X440560Y532329D01*
X441418Y531687D01*
X442228Y530985D01*
X442985Y530228D01*
X443687Y529418D01*
X444329Y528560D01*
X444908Y527659D01*
X445422Y526719D01*
X445867Y525744D01*
X446241Y524740D01*
X446543Y523712D01*
X446771Y522665D01*
X446924Y521604D01*
X447000Y520536D01*
X447000Y519464D01*
X446924Y518396D01*
X446771Y517335D01*
X446543Y516288D01*
X446241Y515260D01*
X445867Y514256D01*
X445422Y513281D01*
X444908Y512341D01*
X444329Y511440D01*
X443687Y510582D01*
X442985Y509772D01*
X442228Y509015D01*
X441418Y508313D01*
X440560Y507671D01*
X439659Y507092D01*
X438719Y506578D01*
X437744Y506133D01*
X436740Y505759D01*
X435712Y505457D01*
X434665Y505229D01*
X433604Y505076D01*
X432536Y505000D01*
X431464Y505000D01*
X430396Y505076D01*
X429335Y505229D01*
X428288Y505457D01*
X427260Y505759D01*
X426256Y506133D01*
X425281Y506578D01*
X424341Y507092D01*
X423440Y507671D01*
X422582Y508313D01*
X421772Y509015D01*
X421015Y509772D01*
X420313Y510582D01*
X419671Y511440D01*
X419092Y512341D01*
X418578Y513281D01*
X418133Y514256D01*
X417759Y515260D01*
X417457Y516288D01*
X417229Y517335D01*
X417076Y518396D01*
X417000Y519464D01*
X417000Y520536D01*
X417076Y521604D01*
X417229Y522665D01*
X417457Y523712D01*
X417759Y524740D01*
X418133Y525744D01*
X418578Y526719D01*
X419092Y527659D01*
X419671Y528560D01*
X420313Y529418D01*
X421015Y530228D01*
X421772Y530985D01*
X422582Y531687D01*
X423440Y532329D01*
X424341Y532908D01*
X425281Y533422D01*
X426256Y533867D01*
X427260Y534241D01*
X428288Y534543D01*
X429335Y534771D01*
X430396Y534924D01*
X431464Y535000D01*
X432536Y535000D01*
X531536Y535000D02*
X532604Y534924D01*
X533665Y534771D01*
X534712Y534543D01*
X535740Y534241D01*
X536744Y533867D01*
X537719Y533422D01*
X538659Y532908D01*
X539560Y532329D01*
X540418Y531687D01*
X541228Y530985D01*
X541985Y530228D01*
X542687Y529418D01*
X543329Y528560D01*
X543908Y527659D01*
X544422Y526719D01*
X544867Y525744D01*
X545241Y524740D01*
X545543Y523712D01*
X545771Y522665D01*
X545924Y521604D01*
X546000Y520536D01*
X546000Y519464D01*
X545924Y518396D01*
X545771Y517335D01*
X545543Y516288D01*
X545241Y515260D01*
X544867Y514256D01*
X544422Y513281D01*
X543908Y512341D01*
X543329Y511440D01*
X542687Y510582D01*
X541985Y509772D01*
X541228Y509015D01*
X540418Y508313D01*
X539560Y507671D01*
X538659Y507092D01*
X537719Y506578D01*
X536744Y506133D01*
X535740Y505759D01*
X534712Y505457D01*
X533665Y505229D01*
X532604Y505076D01*
X531536Y505000D01*
X530464Y505000D01*
X529396Y505076D01*
X528335Y505229D01*
X527288Y505457D01*
X526260Y505759D01*
X525256Y506133D01*
X524281Y506578D01*
X523341Y507092D01*
X522440Y507671D01*
X521582Y508313D01*
X520772Y509015D01*
X520015Y509772D01*
X519313Y510582D01*
X518671Y511440D01*
X518092Y512341D01*
X517578Y513281D01*
X517133Y514256D01*
X516759Y515260D01*
X516457Y516288D01*
X516229Y517335D01*
X516076Y518396D01*
X516000Y519464D01*
X516000Y520536D01*
X516076Y521604D01*
X516229Y522665D01*
X516457Y523712D01*
X516759Y524740D01*
X517133Y525744D01*
X517578Y526719D01*
X518092Y527659D01*
X518671Y528560D01*
X519313Y529418D01*
X520015Y530228D01*
X520772Y530985D01*
X521582Y531687D01*
X522440Y532329D01*
X523341Y532908D01*
X524281Y533422D01*
X525256Y533867D01*
X526260Y534241D01*
X527288Y534543D01*
X528335Y534771D01*
X529396Y534924D01*
X530464Y535000D01*
X531536Y535000D01*
X531536Y935000D02*
X532604Y934924D01*
X533665Y934771D01*
X534712Y934543D01*
X535740Y934241D01*
X536744Y933867D01*
X537719Y933422D01*
X538659Y932908D01*
X539560Y932329D01*
X540418Y931687D01*
X541228Y930985D01*
X541985Y930228D01*
X542687Y929418D01*
X543329Y928560D01*
X543908Y927659D01*
X544422Y926719D01*
X544867Y925744D01*
X545241Y924740D01*
X545543Y923712D01*
X545771Y922665D01*
X545924Y921604D01*
X546000Y920536D01*
X546000Y919464D01*
X545924Y918396D01*
X545771Y917335D01*
X545543Y916288D01*
X545241Y915260D01*
X544867Y914256D01*
X544422Y913281D01*
X543908Y912341D01*
X543329Y911440D01*
X542687Y910582D01*
X541985Y909772D01*
X541228Y909015D01*
X540418Y908313D01*
X539560Y907671D01*
X538659Y907092D01*
X537719Y906578D01*
X536744Y906133D01*
X535740Y905759D01*
X534712Y905457D01*
X533665Y905229D01*
X532604Y905076D01*
X531536Y905000D01*
X530464Y905000D01*
X529396Y905076D01*
X528335Y905229D01*
X527288Y905457D01*
X526260Y905759D01*
X525256Y906133D01*
X524281Y906578D01*
X523341Y907092D01*
X522440Y907671D01*
X521582Y908313D01*
X520772Y909015D01*
X520015Y909772D01*
X519313Y910582D01*
X518671Y911440D01*
X518092Y912341D01*
X517578Y913281D01*
X517133Y914256D01*
X516759Y915260D01*
X516457Y916288D01*
X516229Y917335D01*
X516076Y918396D01*
X516000Y919464D01*
X516000Y920536D01*
X516076Y921604D01*
X516229Y922665D01*
X516457Y923712D01*
X516759Y924740D01*
X517133Y925744D01*
X517578Y926719D01*
X518092Y927659D01*
X518671Y928560D01*
X519313Y929418D01*
X520015Y930228D01*
X520772Y930985D01*
X521582Y931687D01*
X522440Y932329D01*
X523341Y932908D01*
X524281Y933422D01*
X525256Y933867D01*
X526260Y934241D01*
X527288Y934543D01*
X528335Y934771D01*
X529396Y934924D01*
X530464Y935000D01*
X531536Y935000D01*
X931536Y935000D02*
X932604Y934924D01*
X933665Y934771D01*
X934712Y934543D01*
X935740Y934241D01*
X936744Y933867D01*
X937719Y933422D01*
X938659Y932908D01*
X939560Y932329D01*
X940418Y931687D01*
X941228Y930985D01*
X941985Y930228D01*
X942687Y929418D01*
X943329Y928560D01*
X943908Y927659D01*
X944422Y926719D01*
X944867Y925744D01*
X945241Y924740D01*
X945543Y923712D01*
X945771Y922665D01*
X945924Y921604D01*
X946000Y920536D01*
X946000Y919464D01*
X945924Y918396D01*
X945771Y917335D01*
X945543Y916288D01*
X945241Y915260D01*
X944867Y914256D01*
X944422Y913281D01*
X943908Y912341D01*
X943329Y911440D01*
X942687Y910582D01*
X941985Y909772D01*
X941228Y909015D01*
X940418Y908313D01*
X939560Y907671D01*
X938659Y907092D01*
X937719Y906578D01*
X936744Y906133D01*
X935740Y905759D01*
X934712Y905457D01*
X933665Y905229D01*
X932604Y905076D01*
X931536Y905000D01*
X930464Y905000D01*
X929396Y905076D01*
X928335Y905229D01*
X927288Y905457D01*
X926260Y905759D01*
X925256Y906133D01*
X924281Y906578D01*
X923341Y907092D01*
X922440Y907671D01*
X921582Y908313D01*
X920772Y909015D01*
X920015Y909772D01*
X919313Y910582D01*
X918671Y911440D01*
X918092Y912341D01*
X917578Y913281D01*
X917133Y914256D01*
X916759Y915260D01*
X916457Y916288D01*
X916229Y917335D01*
X916076Y918396D01*
X916000Y919464D01*
X916000Y920536D01*
X916076Y921604D01*
X916229Y922665D01*
X916457Y923712D01*
X916759Y924740D01*
X917133Y925744D01*
X917578Y926719D01*
X918092Y927659D01*
X918671Y928560D01*
X919313Y929418D01*
X920015Y930228D01*
X920772Y930985D01*
X921582Y931687D01*
X922440Y932329D01*
X923341Y932908D01*
X924281Y933422D01*
X925256Y933867D01*
X926260Y934241D01*
X927288Y934543D01*
X928335Y934771D01*
X929396Y934924D01*
X930464Y935000D01*
X931536Y935000D01*
X931536Y535000D02*
X932604Y534924D01*
X933665Y534771D01*
X934712Y534543D01*
X935740Y534241D01*
X936744Y533867D01*
X937719Y533422D01*
X938659Y532908D01*
X939560Y532329D01*
X940418Y531687D01*
X941228Y530985D01*
X941985Y530228D01*
X942687Y529418D01*
X943329Y528560D01*
X943908Y527659D01*
X944422Y526719D01*
X944867Y525744D01*
X945241Y524740D01*
X945543Y523712D01*
X945771Y522665D01*
X945924Y521604D01*
X946000Y520536D01*
X946000Y519464D01*
X945924Y518396D01*
X945771Y517335D01*
X945543Y516288D01*
X945241Y515260D01*
X944867Y514256D01*
X944422Y513281D01*
X943908Y512341D01*
X943329Y511440D01*
X942687Y510582D01*
X941985Y509772D01*
X941228Y509015D01*
X940418Y508313D01*
X939560Y507671D01*
X938659Y507092D01*
X937719Y506578D01*
X936744Y506133D01*
X935740Y505759D01*
X934712Y505457D01*
X933665Y505229D01*
X932604Y505076D01*
X931536Y505000D01*
X930464Y505000D01*
X929396Y505076D01*
X928335Y505229D01*
X927288Y505457D01*
X926260Y505759D01*
X925256Y506133D01*
X924281Y506578D01*
X923341Y507092D01*
X922440Y507671D01*
X921582Y508313D01*
X920772Y509015D01*
X920015Y509772D01*
X919313Y510582D01*
X918671Y511440D01*
X918092Y512341D01*
X917578Y513281D01*
X917133Y514256D01*
X916759Y515260D01*
X916457Y516288D01*
X916229Y517335D01*
X916076Y518396D01*
X916000Y519464D01*
X916000Y520536D01*
X916076Y521604D01*
X916229Y522665D01*
X916457Y523712D01*
X916759Y524740D01*
X917133Y525744D01*
X917578Y526719D01*
X918092Y527659D01*
X918671Y528560D01*
X919313Y529418D01*
X920015Y530228D01*
X920772Y530985D01*
X921582Y531687D01*
X922440Y532329D01*
X923341Y532908D01*
X924281Y533422D01*
X925256Y533867D01*
X926260Y534241D01*
X927288Y534543D01*
X928335Y534771D01*
X929396Y534924D01*
X930464Y535000D01*
X931536Y535000D01*
M02*
