G04 EAGLE Gerber RS-274X export*
G75*
%MOMM*%
%FSLAX34Y34*%
%LPD*%
%INSilkscreen Top*%
%IPPOS*%
%AMOC8*
5,1,8,0,0,1.08239X$1,22.5*%
G01*
%ADD10C,0.152400*%
%ADD11C,0.101600*%
%ADD12C,0.076200*%
%ADD13C,0.150000*%
%ADD14C,0.050800*%
%ADD15C,0.127000*%
%ADD16C,0.406400*%


D10*
X196897Y987032D02*
X191474Y987032D01*
X188762Y984320D01*
X188762Y973474D01*
X191474Y970762D01*
X196897Y970762D01*
X199609Y973474D01*
X199609Y984320D01*
X196897Y987032D01*
X205134Y987032D02*
X205134Y973474D01*
X207845Y970762D01*
X213269Y970762D01*
X215980Y973474D01*
X215980Y987032D01*
X226928Y987032D02*
X226928Y970762D01*
X221505Y987032D02*
X232352Y987032D01*
X246012Y987032D02*
X246012Y970762D01*
X237877Y978897D02*
X246012Y987032D01*
X248723Y978897D02*
X237877Y978897D01*
X254248Y978897D02*
X265095Y978897D01*
X270620Y981609D02*
X276043Y987032D01*
X276043Y970762D01*
X270620Y970762D02*
X281466Y970762D01*
X359474Y987032D02*
X364897Y987032D01*
X359474Y987032D02*
X356762Y984320D01*
X356762Y973474D01*
X359474Y970762D01*
X364897Y970762D01*
X367609Y973474D01*
X367609Y984320D01*
X364897Y987032D01*
X373134Y987032D02*
X373134Y973474D01*
X375845Y970762D01*
X381269Y970762D01*
X383980Y973474D01*
X383980Y987032D01*
X394928Y987032D02*
X394928Y970762D01*
X389505Y987032D02*
X400352Y987032D01*
X405877Y984320D02*
X408588Y987032D01*
X414012Y987032D01*
X416723Y984320D01*
X416723Y981609D01*
X414012Y978897D01*
X411300Y978897D01*
X414012Y978897D02*
X416723Y976185D01*
X416723Y973474D01*
X414012Y970762D01*
X408588Y970762D01*
X405877Y973474D01*
X422248Y978897D02*
X433095Y978897D01*
X438620Y981609D02*
X444043Y987032D01*
X444043Y970762D01*
X438620Y970762D02*
X449466Y970762D01*
X690474Y982032D02*
X695897Y982032D01*
X690474Y982032D02*
X687762Y979320D01*
X687762Y968474D01*
X690474Y965762D01*
X695897Y965762D01*
X698609Y968474D01*
X698609Y979320D01*
X695897Y982032D01*
X704134Y982032D02*
X704134Y968474D01*
X706845Y965762D01*
X712269Y965762D01*
X714980Y968474D01*
X714980Y982032D01*
X725928Y982032D02*
X725928Y965762D01*
X720505Y982032D02*
X731352Y982032D01*
X745012Y982032D02*
X745012Y965762D01*
X736877Y973897D02*
X745012Y982032D01*
X747723Y973897D02*
X736877Y973897D01*
X753248Y973897D02*
X764095Y973897D01*
X769620Y965762D02*
X780466Y965762D01*
X769620Y965762D02*
X780466Y976609D01*
X780466Y979320D01*
X777755Y982032D01*
X772331Y982032D01*
X769620Y979320D01*
X857474Y984032D02*
X862897Y984032D01*
X857474Y984032D02*
X854762Y981320D01*
X854762Y970474D01*
X857474Y967762D01*
X862897Y967762D01*
X865609Y970474D01*
X865609Y981320D01*
X862897Y984032D01*
X871134Y984032D02*
X871134Y970474D01*
X873845Y967762D01*
X879269Y967762D01*
X881980Y970474D01*
X881980Y984032D01*
X892928Y984032D02*
X892928Y967762D01*
X887505Y984032D02*
X898352Y984032D01*
X903877Y981320D02*
X906588Y984032D01*
X912012Y984032D01*
X914723Y981320D01*
X914723Y978609D01*
X912012Y975897D01*
X909300Y975897D01*
X912012Y975897D02*
X914723Y973185D01*
X914723Y970474D01*
X912012Y967762D01*
X906588Y967762D01*
X903877Y970474D01*
X920248Y975897D02*
X931095Y975897D01*
X936620Y967762D02*
X947466Y967762D01*
X936620Y967762D02*
X947466Y978609D01*
X947466Y981320D01*
X944755Y984032D01*
X939331Y984032D01*
X936620Y981320D01*
X694897Y475032D02*
X689474Y475032D01*
X686762Y472320D01*
X686762Y461474D01*
X689474Y458762D01*
X694897Y458762D01*
X697609Y461474D01*
X697609Y472320D01*
X694897Y475032D01*
X703134Y475032D02*
X703134Y461474D01*
X705845Y458762D01*
X711269Y458762D01*
X713980Y461474D01*
X713980Y475032D01*
X724928Y475032D02*
X724928Y458762D01*
X719505Y475032D02*
X730352Y475032D01*
X735877Y469609D02*
X741300Y475032D01*
X741300Y458762D01*
X735877Y458762D02*
X746723Y458762D01*
X752248Y466897D02*
X763095Y466897D01*
X768620Y458762D02*
X779466Y458762D01*
X768620Y458762D02*
X779466Y469609D01*
X779466Y472320D01*
X776755Y475032D01*
X771331Y475032D01*
X768620Y472320D01*
X859474Y475032D02*
X864897Y475032D01*
X859474Y475032D02*
X856762Y472320D01*
X856762Y461474D01*
X859474Y458762D01*
X864897Y458762D01*
X867609Y461474D01*
X867609Y472320D01*
X864897Y475032D01*
X873134Y475032D02*
X873134Y461474D01*
X875845Y458762D01*
X881269Y458762D01*
X883980Y461474D01*
X883980Y475032D01*
X894928Y475032D02*
X894928Y458762D01*
X889505Y475032D02*
X900352Y475032D01*
X905877Y458762D02*
X916723Y458762D01*
X905877Y458762D02*
X916723Y469609D01*
X916723Y472320D01*
X914012Y475032D01*
X908588Y475032D01*
X905877Y472320D01*
X922248Y466897D02*
X933095Y466897D01*
X938620Y458762D02*
X949466Y458762D01*
X938620Y458762D02*
X949466Y469609D01*
X949466Y472320D01*
X946755Y475032D01*
X941331Y475032D01*
X938620Y472320D01*
D11*
X339118Y449727D02*
X334711Y449727D01*
X332508Y447524D01*
X332508Y438711D01*
X334711Y436508D01*
X339118Y436508D01*
X341321Y438711D01*
X341321Y447524D01*
X339118Y449727D01*
X345605Y449727D02*
X345605Y438711D01*
X347808Y436508D01*
X352215Y436508D01*
X354418Y438711D01*
X354418Y449727D01*
X363109Y449727D02*
X363109Y436508D01*
X358703Y449727D02*
X367515Y449727D01*
X371800Y436508D02*
X380613Y436508D01*
X371800Y436508D02*
X380613Y445321D01*
X380613Y447524D01*
X378409Y449727D01*
X374003Y449727D01*
X371800Y447524D01*
X384897Y443118D02*
X393710Y443118D01*
X397994Y445321D02*
X402401Y449727D01*
X402401Y436508D01*
X406807Y436508D02*
X397994Y436508D01*
X237118Y448727D02*
X232711Y448727D01*
X230508Y446524D01*
X230508Y437711D01*
X232711Y435508D01*
X237118Y435508D01*
X239321Y437711D01*
X239321Y446524D01*
X237118Y448727D01*
X243605Y448727D02*
X243605Y437711D01*
X245808Y435508D01*
X250215Y435508D01*
X252418Y437711D01*
X252418Y448727D01*
X261109Y448727D02*
X261109Y435508D01*
X256703Y448727D02*
X265515Y448727D01*
X269800Y444321D02*
X274206Y448727D01*
X274206Y435508D01*
X269800Y435508D02*
X278613Y435508D01*
X282897Y442118D02*
X291710Y442118D01*
X295994Y444321D02*
X300401Y448727D01*
X300401Y435508D01*
X304807Y435508D02*
X295994Y435508D01*
D12*
X521213Y421084D02*
X522781Y422652D01*
X521213Y421084D02*
X521213Y417949D01*
X522781Y416381D01*
X529051Y416381D01*
X530619Y417949D01*
X530619Y421084D01*
X529051Y422652D01*
X530619Y425736D02*
X521213Y425736D01*
X524348Y428872D01*
X521213Y432007D01*
X530619Y432007D01*
X530619Y435091D02*
X521213Y435091D01*
X530619Y435091D02*
X530619Y439794D01*
X529051Y441362D01*
X522781Y441362D01*
X521213Y439794D01*
X521213Y435091D01*
X546213Y420084D02*
X547781Y421652D01*
X546213Y420084D02*
X546213Y416949D01*
X547781Y415381D01*
X549348Y415381D01*
X550916Y416949D01*
X550916Y420084D01*
X552484Y421652D01*
X554051Y421652D01*
X555619Y420084D01*
X555619Y416949D01*
X554051Y415381D01*
X555619Y424736D02*
X546213Y424736D01*
X555619Y424736D02*
X555619Y429439D01*
X554051Y431007D01*
X547781Y431007D01*
X546213Y429439D01*
X546213Y424736D01*
X547781Y434091D02*
X546213Y435659D01*
X546213Y438794D01*
X547781Y440362D01*
X549348Y440362D01*
X550916Y438794D01*
X550916Y437227D01*
X550916Y438794D02*
X552484Y440362D01*
X554051Y440362D01*
X555619Y438794D01*
X555619Y435659D01*
X554051Y434091D01*
X571213Y420084D02*
X572781Y421652D01*
X571213Y420084D02*
X571213Y416949D01*
X572781Y415381D01*
X574348Y415381D01*
X575916Y416949D01*
X575916Y420084D01*
X577484Y421652D01*
X579051Y421652D01*
X580619Y420084D01*
X580619Y416949D01*
X579051Y415381D01*
X580619Y424736D02*
X571213Y424736D01*
X580619Y424736D02*
X580619Y429439D01*
X579051Y431007D01*
X572781Y431007D01*
X571213Y429439D01*
X571213Y424736D01*
X580619Y434091D02*
X580619Y440362D01*
X580619Y434091D02*
X574348Y440362D01*
X572781Y440362D01*
X571213Y438794D01*
X571213Y435659D01*
X572781Y434091D01*
X597213Y415381D02*
X606619Y415381D01*
X597213Y415381D02*
X597213Y420084D01*
X598781Y421652D01*
X601916Y421652D01*
X603484Y420084D01*
X603484Y415381D01*
X600348Y424736D02*
X597213Y427872D01*
X606619Y427872D01*
X606619Y431007D02*
X606619Y424736D01*
X598781Y434091D02*
X597213Y435659D01*
X597213Y438794D01*
X598781Y440362D01*
X600348Y440362D01*
X601916Y438794D01*
X601916Y437227D01*
X601916Y438794D02*
X603484Y440362D01*
X605051Y440362D01*
X606619Y438794D01*
X606619Y435659D01*
X605051Y434091D01*
X622213Y414381D02*
X631619Y414381D01*
X622213Y414381D02*
X622213Y419084D01*
X623781Y420652D01*
X626916Y420652D01*
X628484Y419084D01*
X628484Y414381D01*
X625348Y423736D02*
X622213Y426872D01*
X631619Y426872D01*
X631619Y430007D02*
X631619Y423736D01*
X631619Y433091D02*
X631619Y439362D01*
X631619Y433091D02*
X625348Y439362D01*
X623781Y439362D01*
X622213Y437794D01*
X622213Y434659D01*
X623781Y433091D01*
X647213Y415381D02*
X656619Y415381D01*
X647213Y415381D02*
X647213Y420084D01*
X648781Y421652D01*
X651916Y421652D01*
X653484Y420084D01*
X653484Y415381D01*
X656619Y424736D02*
X656619Y431007D01*
X656619Y424736D02*
X650348Y431007D01*
X648781Y431007D01*
X647213Y429439D01*
X647213Y426304D01*
X648781Y424736D01*
X647213Y434091D02*
X647213Y440362D01*
X647213Y434091D02*
X651916Y434091D01*
X650348Y437227D01*
X650348Y438794D01*
X651916Y440362D01*
X655051Y440362D01*
X656619Y438794D01*
X656619Y435659D01*
X655051Y434091D01*
X672213Y415381D02*
X681619Y415381D01*
X672213Y415381D02*
X672213Y420084D01*
X673781Y421652D01*
X676916Y421652D01*
X678484Y420084D01*
X678484Y415381D01*
X673781Y424736D02*
X672213Y426304D01*
X672213Y429439D01*
X673781Y431007D01*
X675348Y431007D01*
X676916Y429439D01*
X676916Y427872D01*
X676916Y429439D02*
X678484Y431007D01*
X680051Y431007D01*
X681619Y429439D01*
X681619Y426304D01*
X680051Y424736D01*
X673781Y434091D02*
X672213Y435659D01*
X672213Y438794D01*
X673781Y440362D01*
X675348Y440362D01*
X676916Y438794D01*
X676916Y437227D01*
X676916Y438794D02*
X678484Y440362D01*
X680051Y440362D01*
X681619Y438794D01*
X681619Y435659D01*
X680051Y434091D01*
X698213Y415381D02*
X707619Y415381D01*
X698213Y415381D02*
X698213Y420084D01*
X699781Y421652D01*
X702916Y421652D01*
X704484Y420084D01*
X704484Y415381D01*
X699781Y424736D02*
X698213Y426304D01*
X698213Y429439D01*
X699781Y431007D01*
X701348Y431007D01*
X702916Y429439D01*
X702916Y427872D01*
X702916Y429439D02*
X704484Y431007D01*
X706051Y431007D01*
X707619Y429439D01*
X707619Y426304D01*
X706051Y424736D01*
X707619Y434091D02*
X707619Y440362D01*
X707619Y434091D02*
X701348Y440362D01*
X699781Y440362D01*
X698213Y438794D01*
X698213Y435659D01*
X699781Y434091D01*
X724213Y415381D02*
X733619Y415381D01*
X724213Y415381D02*
X724213Y420084D01*
X725781Y421652D01*
X728916Y421652D01*
X730484Y420084D01*
X730484Y415381D01*
X725781Y424736D02*
X724213Y426304D01*
X724213Y429439D01*
X725781Y431007D01*
X727348Y431007D01*
X728916Y429439D01*
X728916Y427872D01*
X728916Y429439D02*
X730484Y431007D01*
X732051Y431007D01*
X733619Y429439D01*
X733619Y426304D01*
X732051Y424736D01*
X724213Y434091D02*
X724213Y440362D01*
X724213Y434091D02*
X728916Y434091D01*
X727348Y437227D01*
X727348Y438794D01*
X728916Y440362D01*
X732051Y440362D01*
X733619Y438794D01*
X733619Y435659D01*
X732051Y434091D01*
X749213Y415381D02*
X758619Y415381D01*
X749213Y415381D02*
X749213Y420084D01*
X750781Y421652D01*
X753916Y421652D01*
X755484Y420084D01*
X755484Y415381D01*
X750781Y424736D02*
X749213Y426304D01*
X749213Y429439D01*
X750781Y431007D01*
X752348Y431007D01*
X753916Y429439D01*
X753916Y427872D01*
X753916Y429439D02*
X755484Y431007D01*
X757051Y431007D01*
X758619Y429439D01*
X758619Y426304D01*
X757051Y424736D01*
X758619Y438794D02*
X749213Y438794D01*
X753916Y434091D01*
X753916Y440362D01*
X773213Y421084D02*
X774781Y422652D01*
X773213Y421084D02*
X773213Y417949D01*
X774781Y416381D01*
X776348Y416381D01*
X777916Y417949D01*
X777916Y421084D01*
X779484Y422652D01*
X781051Y422652D01*
X782619Y421084D01*
X782619Y417949D01*
X781051Y416381D01*
X779484Y425736D02*
X773213Y425736D01*
X779484Y425736D02*
X782619Y428872D01*
X779484Y432007D01*
X773213Y432007D01*
X773213Y435091D02*
X782619Y435091D01*
X782619Y441362D02*
X773213Y435091D01*
X773213Y441362D02*
X782619Y441362D01*
X799781Y422652D02*
X798213Y421084D01*
X798213Y417949D01*
X799781Y416381D01*
X801348Y416381D01*
X802916Y417949D01*
X802916Y421084D01*
X804484Y422652D01*
X806051Y422652D01*
X807619Y421084D01*
X807619Y417949D01*
X806051Y416381D01*
X804484Y425736D02*
X798213Y425736D01*
X804484Y425736D02*
X807619Y428872D01*
X804484Y432007D01*
X798213Y432007D01*
X798213Y435091D02*
X807619Y435091D01*
X798213Y435091D02*
X798213Y439794D01*
X799781Y441362D01*
X802916Y441362D01*
X804484Y439794D01*
X804484Y435091D01*
X823213Y422652D02*
X823213Y416381D01*
X832619Y416381D01*
X832619Y422652D01*
X827916Y419516D02*
X827916Y416381D01*
X832619Y425736D02*
X823213Y425736D01*
X832619Y432007D01*
X823213Y432007D01*
X850213Y417949D02*
X851781Y416381D01*
X850213Y417949D02*
X850213Y421084D01*
X851781Y422652D01*
X853348Y422652D01*
X854916Y421084D01*
X854916Y419516D01*
X854916Y421084D02*
X856484Y422652D01*
X858051Y422652D01*
X859619Y421084D01*
X859619Y417949D01*
X858051Y416381D01*
X856484Y425736D02*
X850213Y425736D01*
X856484Y425736D02*
X859619Y428872D01*
X856484Y432007D01*
X850213Y432007D01*
X851781Y435091D02*
X850213Y436659D01*
X850213Y439794D01*
X851781Y441362D01*
X853348Y441362D01*
X854916Y439794D01*
X854916Y438227D01*
X854916Y439794D02*
X856484Y441362D01*
X858051Y441362D01*
X859619Y439794D01*
X859619Y436659D01*
X858051Y435091D01*
X877213Y9381D02*
X886619Y9381D01*
X877213Y9381D02*
X877213Y14084D01*
X878781Y15652D01*
X881916Y15652D01*
X883484Y14084D01*
X883484Y9381D01*
X886619Y18736D02*
X886619Y25007D01*
X886619Y18736D02*
X880348Y25007D01*
X878781Y25007D01*
X877213Y23439D01*
X877213Y20304D01*
X878781Y18736D01*
X878781Y28091D02*
X877213Y29659D01*
X877213Y32794D01*
X878781Y34362D01*
X880348Y34362D01*
X881916Y32794D01*
X881916Y31227D01*
X881916Y32794D02*
X883484Y34362D01*
X885051Y34362D01*
X886619Y32794D01*
X886619Y29659D01*
X885051Y28091D01*
X860619Y9381D02*
X851213Y9381D01*
X851213Y14084D01*
X852781Y15652D01*
X855916Y15652D01*
X857484Y14084D01*
X857484Y9381D01*
X860619Y18736D02*
X860619Y25007D01*
X860619Y18736D02*
X854348Y25007D01*
X852781Y25007D01*
X851213Y23439D01*
X851213Y20304D01*
X852781Y18736D01*
X860619Y28091D02*
X860619Y34362D01*
X860619Y28091D02*
X854348Y34362D01*
X852781Y34362D01*
X851213Y32794D01*
X851213Y29659D01*
X852781Y28091D01*
X835619Y13516D02*
X826213Y13516D01*
X826213Y10381D02*
X826213Y16652D01*
X826213Y19736D02*
X835619Y26007D01*
X835619Y19736D02*
X826213Y26007D01*
X809619Y9381D02*
X800213Y9381D01*
X800213Y14084D01*
X801781Y15652D01*
X804916Y15652D01*
X806484Y14084D01*
X806484Y9381D01*
X806484Y12516D02*
X809619Y15652D01*
X809619Y25007D02*
X800213Y18736D01*
X800213Y25007D02*
X809619Y18736D01*
X784619Y9381D02*
X775213Y9381D01*
X775213Y14084D01*
X776781Y15652D01*
X779916Y15652D01*
X781484Y14084D01*
X781484Y9381D01*
X784619Y18736D02*
X784619Y25007D01*
X784619Y18736D02*
X778348Y25007D01*
X776781Y25007D01*
X775213Y23439D01*
X775213Y20304D01*
X776781Y18736D01*
X778348Y28091D02*
X775213Y31227D01*
X784619Y31227D01*
X784619Y34362D02*
X784619Y28091D01*
X759619Y9381D02*
X750213Y9381D01*
X750213Y14084D01*
X751781Y15652D01*
X754916Y15652D01*
X756484Y14084D01*
X756484Y9381D01*
X753348Y18736D02*
X750213Y21872D01*
X759619Y21872D01*
X759619Y25007D02*
X759619Y18736D01*
X758051Y28091D02*
X759619Y29659D01*
X759619Y32794D01*
X758051Y34362D01*
X751781Y34362D01*
X750213Y32794D01*
X750213Y29659D01*
X751781Y28091D01*
X753348Y28091D01*
X754916Y29659D01*
X754916Y34362D01*
X731619Y9381D02*
X722213Y9381D01*
X722213Y14084D01*
X723781Y15652D01*
X726916Y15652D01*
X728484Y14084D01*
X728484Y9381D01*
X725348Y18736D02*
X722213Y21872D01*
X731619Y21872D01*
X731619Y25007D02*
X731619Y18736D01*
X723781Y28091D02*
X722213Y29659D01*
X722213Y32794D01*
X723781Y34362D01*
X725348Y34362D01*
X726916Y32794D01*
X728484Y34362D01*
X730051Y34362D01*
X731619Y32794D01*
X731619Y29659D01*
X730051Y28091D01*
X728484Y28091D01*
X726916Y29659D01*
X725348Y28091D01*
X723781Y28091D01*
X726916Y29659D02*
X726916Y32794D01*
X708619Y9381D02*
X699213Y9381D01*
X699213Y14084D01*
X700781Y15652D01*
X703916Y15652D01*
X705484Y14084D01*
X705484Y9381D01*
X699213Y18736D02*
X699213Y25007D01*
X699213Y18736D02*
X703916Y18736D01*
X702348Y21872D01*
X702348Y23439D01*
X703916Y25007D01*
X707051Y25007D01*
X708619Y23439D01*
X708619Y20304D01*
X707051Y18736D01*
X683619Y9381D02*
X674213Y9381D01*
X674213Y14084D01*
X675781Y15652D01*
X678916Y15652D01*
X680484Y14084D01*
X680484Y9381D01*
X677348Y18736D02*
X674213Y21872D01*
X683619Y21872D01*
X683619Y25007D02*
X683619Y18736D01*
X674213Y28091D02*
X674213Y34362D01*
X675781Y34362D01*
X682051Y28091D01*
X683619Y28091D01*
X658619Y9381D02*
X649213Y9381D01*
X649213Y14084D01*
X650781Y15652D01*
X653916Y15652D01*
X655484Y14084D01*
X655484Y9381D01*
X652348Y18736D02*
X649213Y21872D01*
X658619Y21872D01*
X658619Y25007D02*
X658619Y18736D01*
X650781Y31227D02*
X649213Y34362D01*
X650781Y31227D02*
X653916Y28091D01*
X657051Y28091D01*
X658619Y29659D01*
X658619Y32794D01*
X657051Y34362D01*
X655484Y34362D01*
X653916Y32794D01*
X653916Y28091D01*
X633619Y9381D02*
X624213Y9381D01*
X624213Y14084D01*
X625781Y15652D01*
X628916Y15652D01*
X630484Y14084D01*
X630484Y9381D01*
X633619Y23439D02*
X624213Y23439D01*
X628916Y18736D01*
X628916Y25007D01*
X608619Y9381D02*
X599213Y9381D01*
X599213Y14084D01*
X600781Y15652D01*
X603916Y15652D01*
X605484Y14084D01*
X605484Y9381D01*
X607051Y18736D02*
X600781Y18736D01*
X599213Y20304D01*
X599213Y23439D01*
X600781Y25007D01*
X607051Y25007D01*
X608619Y23439D01*
X608619Y20304D01*
X607051Y18736D01*
X600781Y25007D01*
X581619Y9381D02*
X572213Y9381D01*
X572213Y14084D01*
X573781Y15652D01*
X576916Y15652D01*
X578484Y14084D01*
X578484Y9381D01*
X581619Y18736D02*
X581619Y25007D01*
X581619Y18736D02*
X575348Y25007D01*
X573781Y25007D01*
X572213Y23439D01*
X572213Y20304D01*
X573781Y18736D01*
X556619Y9381D02*
X547213Y9381D01*
X547213Y14084D01*
X548781Y15652D01*
X551916Y15652D01*
X553484Y14084D01*
X553484Y9381D01*
X550348Y18736D02*
X547213Y21872D01*
X556619Y21872D01*
X556619Y25007D02*
X556619Y18736D01*
X547213Y28091D02*
X547213Y34362D01*
X547213Y28091D02*
X551916Y28091D01*
X550348Y31227D01*
X550348Y32794D01*
X551916Y34362D01*
X555051Y34362D01*
X556619Y32794D01*
X556619Y29659D01*
X555051Y28091D01*
X522781Y16652D02*
X521213Y15084D01*
X521213Y11949D01*
X522781Y10381D01*
X524348Y10381D01*
X525916Y11949D01*
X525916Y15084D01*
X527484Y16652D01*
X529051Y16652D01*
X530619Y15084D01*
X530619Y11949D01*
X529051Y10381D01*
X530619Y19736D02*
X521213Y19736D01*
X530619Y19736D02*
X530619Y24439D01*
X529051Y26007D01*
X522781Y26007D01*
X521213Y24439D01*
X521213Y19736D01*
X524348Y29091D02*
X521213Y32227D01*
X530619Y32227D01*
X530619Y35362D02*
X530619Y29091D01*
X496781Y15652D02*
X495213Y14084D01*
X495213Y10949D01*
X496781Y9381D01*
X498348Y9381D01*
X499916Y10949D01*
X499916Y14084D01*
X501484Y15652D01*
X503051Y15652D01*
X504619Y14084D01*
X504619Y10949D01*
X503051Y9381D01*
X504619Y18736D02*
X495213Y18736D01*
X504619Y18736D02*
X504619Y23439D01*
X503051Y25007D01*
X496781Y25007D01*
X495213Y23439D01*
X495213Y18736D01*
X495213Y29659D02*
X495213Y32794D01*
X495213Y29659D02*
X496781Y28091D01*
X503051Y28091D01*
X504619Y29659D01*
X504619Y32794D01*
X503051Y34362D01*
X496781Y34362D01*
X495213Y32794D01*
X471781Y16652D02*
X470213Y15084D01*
X470213Y11949D01*
X471781Y10381D01*
X478051Y10381D01*
X479619Y11949D01*
X479619Y15084D01*
X478051Y16652D01*
X479619Y19736D02*
X470213Y19736D01*
X479619Y19736D02*
X479619Y26007D01*
X479619Y29091D02*
X470213Y29091D01*
X476484Y29091D02*
X470213Y35362D01*
X474916Y30659D02*
X479619Y35362D01*
D13*
X432300Y350300D02*
X914900Y350300D01*
X914900Y96300D01*
X432300Y96300D01*
X432300Y350300D01*
X432300Y261400D02*
X457700Y261400D01*
X457700Y185200D01*
X432300Y185200D01*
X457700Y185200D02*
X495800Y185200D01*
X495800Y261400D01*
X457700Y261400D01*
D14*
X440085Y125683D02*
X439153Y124750D01*
X439153Y122886D01*
X440085Y121954D01*
X443814Y121954D01*
X444746Y122886D01*
X444746Y124750D01*
X443814Y125683D01*
X444746Y127567D02*
X439153Y127567D01*
X444746Y127567D02*
X444746Y131296D01*
X444746Y133180D02*
X439153Y133180D01*
X442882Y133180D02*
X439153Y136909D01*
X441950Y134112D02*
X444746Y136909D01*
X464553Y124750D02*
X465485Y125683D01*
X464553Y124750D02*
X464553Y122886D01*
X465485Y121954D01*
X466418Y121954D01*
X467350Y122886D01*
X467350Y124750D01*
X468282Y125683D01*
X469214Y125683D01*
X470146Y124750D01*
X470146Y122886D01*
X469214Y121954D01*
X470146Y127567D02*
X464553Y127567D01*
X470146Y127567D02*
X470146Y130363D01*
X469214Y131296D01*
X465485Y131296D01*
X464553Y130363D01*
X464553Y127567D01*
X464553Y134112D02*
X464553Y135977D01*
X464553Y134112D02*
X465485Y133180D01*
X469214Y133180D01*
X470146Y134112D01*
X470146Y135977D01*
X469214Y136909D01*
X465485Y136909D01*
X464553Y135977D01*
X489953Y124750D02*
X490885Y125683D01*
X489953Y124750D02*
X489953Y122886D01*
X490885Y121954D01*
X491818Y121954D01*
X492750Y122886D01*
X492750Y124750D01*
X493682Y125683D01*
X494614Y125683D01*
X495546Y124750D01*
X495546Y122886D01*
X494614Y121954D01*
X495546Y127567D02*
X489953Y127567D01*
X495546Y127567D02*
X495546Y130363D01*
X494614Y131296D01*
X490885Y131296D01*
X489953Y130363D01*
X489953Y127567D01*
X491818Y133180D02*
X489953Y135044D01*
X495546Y135044D01*
X495546Y133180D02*
X495546Y136909D01*
X515353Y121954D02*
X520946Y121954D01*
X515353Y121954D02*
X515353Y124750D01*
X516285Y125683D01*
X518150Y125683D01*
X519082Y124750D01*
X519082Y121954D01*
X517218Y127567D02*
X515353Y129431D01*
X520946Y129431D01*
X520946Y127567D02*
X520946Y131296D01*
X515353Y133180D02*
X515353Y136909D01*
X515353Y133180D02*
X518150Y133180D01*
X517218Y135044D01*
X517218Y135977D01*
X518150Y136909D01*
X520014Y136909D01*
X520946Y135977D01*
X520946Y134112D01*
X520014Y133180D01*
X540753Y121954D02*
X546346Y121954D01*
X540753Y121954D02*
X540753Y124750D01*
X541685Y125683D01*
X543550Y125683D01*
X544482Y124750D01*
X544482Y121954D01*
X546346Y127567D02*
X546346Y131296D01*
X542618Y131296D02*
X546346Y127567D01*
X542618Y131296D02*
X541685Y131296D01*
X540753Y130363D01*
X540753Y128499D01*
X541685Y127567D01*
X566153Y121954D02*
X571746Y121954D01*
X566153Y121954D02*
X566153Y124750D01*
X567085Y125683D01*
X568950Y125683D01*
X569882Y124750D01*
X569882Y121954D01*
X570814Y127567D02*
X567085Y127567D01*
X566153Y128499D01*
X566153Y130363D01*
X567085Y131296D01*
X570814Y131296D01*
X571746Y130363D01*
X571746Y128499D01*
X570814Y127567D01*
X567085Y131296D01*
X591553Y121954D02*
X597146Y121954D01*
X591553Y121954D02*
X591553Y124750D01*
X592485Y125683D01*
X594350Y125683D01*
X595282Y124750D01*
X595282Y121954D01*
X597146Y130363D02*
X591553Y130363D01*
X594350Y127567D01*
X594350Y131296D01*
X616953Y121954D02*
X622546Y121954D01*
X616953Y121954D02*
X616953Y124750D01*
X617885Y125683D01*
X619750Y125683D01*
X620682Y124750D01*
X620682Y121954D01*
X618818Y127567D02*
X616953Y129431D01*
X622546Y129431D01*
X622546Y127567D02*
X622546Y131296D01*
X617885Y135044D02*
X616953Y136909D01*
X617885Y135044D02*
X619750Y133180D01*
X621614Y133180D01*
X622546Y134112D01*
X622546Y135977D01*
X621614Y136909D01*
X620682Y136909D01*
X619750Y135977D01*
X619750Y133180D01*
X642353Y121954D02*
X647946Y121954D01*
X642353Y121954D02*
X642353Y124750D01*
X643285Y125683D01*
X645150Y125683D01*
X646082Y124750D01*
X646082Y121954D01*
X644218Y127567D02*
X642353Y129431D01*
X647946Y129431D01*
X647946Y127567D02*
X647946Y131296D01*
X642353Y133180D02*
X642353Y136909D01*
X643285Y136909D01*
X647014Y133180D01*
X647946Y133180D01*
X667753Y121954D02*
X673346Y121954D01*
X667753Y121954D02*
X667753Y124750D01*
X668685Y125683D01*
X670550Y125683D01*
X671482Y124750D01*
X671482Y121954D01*
X667753Y127567D02*
X667753Y131296D01*
X667753Y127567D02*
X670550Y127567D01*
X669618Y129431D01*
X669618Y130363D01*
X670550Y131296D01*
X672414Y131296D01*
X673346Y130363D01*
X673346Y128499D01*
X672414Y127567D01*
X693153Y121954D02*
X698746Y121954D01*
X693153Y121954D02*
X693153Y124750D01*
X694085Y125683D01*
X695950Y125683D01*
X696882Y124750D01*
X696882Y121954D01*
X695018Y127567D02*
X693153Y129431D01*
X698746Y129431D01*
X698746Y127567D02*
X698746Y131296D01*
X694085Y133180D02*
X693153Y134112D01*
X693153Y135977D01*
X694085Y136909D01*
X695018Y136909D01*
X695950Y135977D01*
X696882Y136909D01*
X697814Y136909D01*
X698746Y135977D01*
X698746Y134112D01*
X697814Y133180D01*
X696882Y133180D01*
X695950Y134112D01*
X695018Y133180D01*
X694085Y133180D01*
X695950Y134112D02*
X695950Y135977D01*
X718553Y121954D02*
X724146Y121954D01*
X718553Y121954D02*
X718553Y124750D01*
X719485Y125683D01*
X721350Y125683D01*
X722282Y124750D01*
X722282Y121954D01*
X720418Y127567D02*
X718553Y129431D01*
X724146Y129431D01*
X724146Y127567D02*
X724146Y131296D01*
X723214Y133180D02*
X724146Y134112D01*
X724146Y135977D01*
X723214Y136909D01*
X719485Y136909D01*
X718553Y135977D01*
X718553Y134112D01*
X719485Y133180D01*
X720418Y133180D01*
X721350Y134112D01*
X721350Y136909D01*
X743953Y124750D02*
X744885Y125683D01*
X743953Y124750D02*
X743953Y122886D01*
X744885Y121954D01*
X748614Y121954D01*
X749546Y122886D01*
X749546Y124750D01*
X748614Y125683D01*
X746750Y125683D01*
X746750Y123818D01*
X749546Y127567D02*
X743953Y127567D01*
X749546Y131296D01*
X743953Y131296D01*
X743953Y133180D02*
X749546Y133180D01*
X749546Y135977D01*
X748614Y136909D01*
X744885Y136909D01*
X743953Y135977D01*
X743953Y133180D01*
X769353Y121954D02*
X774946Y121954D01*
X769353Y121954D02*
X769353Y124750D01*
X770285Y125683D01*
X772150Y125683D01*
X773082Y124750D01*
X773082Y121954D01*
X774946Y127567D02*
X774946Y131296D01*
X771218Y131296D02*
X774946Y127567D01*
X771218Y131296D02*
X770285Y131296D01*
X769353Y130363D01*
X769353Y128499D01*
X770285Y127567D01*
X771218Y133180D02*
X769353Y135044D01*
X774946Y135044D01*
X774946Y133180D02*
X774946Y136909D01*
X794753Y121954D02*
X800346Y121954D01*
X794753Y121954D02*
X794753Y124750D01*
X795685Y125683D01*
X797550Y125683D01*
X798482Y124750D01*
X798482Y121954D01*
X798482Y123818D02*
X800346Y125683D01*
X800346Y131296D02*
X794753Y127567D01*
X794753Y131296D02*
X800346Y127567D01*
X820153Y123818D02*
X825746Y123818D01*
X820153Y121954D02*
X820153Y125683D01*
X820153Y127567D02*
X825746Y131296D01*
X825746Y127567D02*
X820153Y131296D01*
X845553Y121954D02*
X851146Y121954D01*
X845553Y121954D02*
X845553Y124750D01*
X846485Y125683D01*
X848350Y125683D01*
X849282Y124750D01*
X849282Y121954D01*
X851146Y127567D02*
X851146Y131296D01*
X847418Y131296D02*
X851146Y127567D01*
X847418Y131296D02*
X846485Y131296D01*
X845553Y130363D01*
X845553Y128499D01*
X846485Y127567D01*
X851146Y133180D02*
X851146Y136909D01*
X847418Y136909D02*
X851146Y133180D01*
X847418Y136909D02*
X846485Y136909D01*
X845553Y135977D01*
X845553Y134112D01*
X846485Y133180D01*
X870953Y121954D02*
X876546Y121954D01*
X870953Y121954D02*
X870953Y124750D01*
X871885Y125683D01*
X873750Y125683D01*
X874682Y124750D01*
X874682Y121954D01*
X876546Y127567D02*
X876546Y131296D01*
X872818Y131296D02*
X876546Y127567D01*
X872818Y131296D02*
X871885Y131296D01*
X870953Y130363D01*
X870953Y128499D01*
X871885Y127567D01*
X871885Y133180D02*
X870953Y134112D01*
X870953Y135977D01*
X871885Y136909D01*
X872818Y136909D01*
X873750Y135977D01*
X873750Y135044D01*
X873750Y135977D02*
X874682Y136909D01*
X875614Y136909D01*
X876546Y135977D01*
X876546Y134112D01*
X875614Y133180D01*
X896353Y124750D02*
X897285Y125683D01*
X896353Y124750D02*
X896353Y122886D01*
X897285Y121954D01*
X901014Y121954D01*
X901946Y122886D01*
X901946Y124750D01*
X901014Y125683D01*
X899150Y125683D01*
X899150Y123818D01*
X901946Y127567D02*
X896353Y127567D01*
X901946Y131296D01*
X896353Y131296D01*
X896353Y133180D02*
X901946Y133180D01*
X901946Y135977D01*
X901014Y136909D01*
X897285Y136909D01*
X896353Y135977D01*
X896353Y133180D01*
X903381Y308315D02*
X902449Y309247D01*
X902449Y311111D01*
X903381Y312043D01*
X904314Y312043D01*
X905246Y311111D01*
X905246Y310179D01*
X905246Y311111D02*
X906178Y312043D01*
X907110Y312043D01*
X908042Y311111D01*
X908042Y309247D01*
X907110Y308315D01*
X906178Y313928D02*
X902449Y313928D01*
X906178Y313928D02*
X908042Y315792D01*
X906178Y317656D01*
X902449Y317656D01*
X903381Y319541D02*
X902449Y320473D01*
X902449Y322337D01*
X903381Y323269D01*
X904314Y323269D01*
X905246Y322337D01*
X905246Y321405D01*
X905246Y322337D02*
X906178Y323269D01*
X907110Y323269D01*
X908042Y322337D01*
X908042Y320473D01*
X907110Y319541D01*
X877049Y317656D02*
X877049Y313928D01*
X882642Y313928D01*
X882642Y317656D01*
X879846Y315792D02*
X879846Y313928D01*
X882642Y319541D02*
X877049Y319541D01*
X882642Y323269D01*
X877049Y323269D01*
X852581Y312043D02*
X851649Y311111D01*
X851649Y309247D01*
X852581Y308315D01*
X853514Y308315D01*
X854446Y309247D01*
X854446Y311111D01*
X855378Y312043D01*
X856310Y312043D01*
X857242Y311111D01*
X857242Y309247D01*
X856310Y308315D01*
X855378Y313928D02*
X851649Y313928D01*
X855378Y313928D02*
X857242Y315792D01*
X855378Y317656D01*
X851649Y317656D01*
X851649Y319541D02*
X857242Y319541D01*
X851649Y319541D02*
X851649Y322337D01*
X852581Y323269D01*
X854446Y323269D01*
X855378Y322337D01*
X855378Y319541D01*
X827181Y312043D02*
X826249Y311111D01*
X826249Y309247D01*
X827181Y308315D01*
X828114Y308315D01*
X829046Y309247D01*
X829046Y311111D01*
X829978Y312043D01*
X830910Y312043D01*
X831842Y311111D01*
X831842Y309247D01*
X830910Y308315D01*
X829978Y313928D02*
X826249Y313928D01*
X829978Y313928D02*
X831842Y315792D01*
X829978Y317656D01*
X826249Y317656D01*
X826249Y319541D02*
X831842Y319541D01*
X831842Y323269D02*
X826249Y319541D01*
X826249Y323269D02*
X831842Y323269D01*
X806442Y308315D02*
X800849Y308315D01*
X800849Y311111D01*
X801781Y312043D01*
X803646Y312043D01*
X804578Y311111D01*
X804578Y308315D01*
X801781Y313928D02*
X800849Y314860D01*
X800849Y316724D01*
X801781Y317656D01*
X802714Y317656D01*
X803646Y316724D01*
X803646Y315792D01*
X803646Y316724D02*
X804578Y317656D01*
X805510Y317656D01*
X806442Y316724D01*
X806442Y314860D01*
X805510Y313928D01*
X806442Y322337D02*
X800849Y322337D01*
X803646Y319541D01*
X803646Y323269D01*
X781042Y308315D02*
X775449Y308315D01*
X775449Y311111D01*
X776381Y312043D01*
X778246Y312043D01*
X779178Y311111D01*
X779178Y308315D01*
X776381Y313928D02*
X775449Y314860D01*
X775449Y316724D01*
X776381Y317656D01*
X777314Y317656D01*
X778246Y316724D01*
X778246Y315792D01*
X778246Y316724D02*
X779178Y317656D01*
X780110Y317656D01*
X781042Y316724D01*
X781042Y314860D01*
X780110Y313928D01*
X775449Y319541D02*
X775449Y323269D01*
X775449Y319541D02*
X778246Y319541D01*
X777314Y321405D01*
X777314Y322337D01*
X778246Y323269D01*
X780110Y323269D01*
X781042Y322337D01*
X781042Y320473D01*
X780110Y319541D01*
X755642Y308315D02*
X750049Y308315D01*
X750049Y311111D01*
X750981Y312043D01*
X752846Y312043D01*
X753778Y311111D01*
X753778Y308315D01*
X750981Y313928D02*
X750049Y314860D01*
X750049Y316724D01*
X750981Y317656D01*
X751914Y317656D01*
X752846Y316724D01*
X752846Y315792D01*
X752846Y316724D02*
X753778Y317656D01*
X754710Y317656D01*
X755642Y316724D01*
X755642Y314860D01*
X754710Y313928D01*
X755642Y319541D02*
X755642Y323269D01*
X755642Y319541D02*
X751914Y323269D01*
X750981Y323269D01*
X750049Y322337D01*
X750049Y320473D01*
X750981Y319541D01*
X730242Y308315D02*
X724649Y308315D01*
X724649Y311111D01*
X725581Y312043D01*
X727446Y312043D01*
X728378Y311111D01*
X728378Y308315D01*
X725581Y313928D02*
X724649Y314860D01*
X724649Y316724D01*
X725581Y317656D01*
X726514Y317656D01*
X727446Y316724D01*
X727446Y315792D01*
X727446Y316724D02*
X728378Y317656D01*
X729310Y317656D01*
X730242Y316724D01*
X730242Y314860D01*
X729310Y313928D01*
X725581Y319541D02*
X724649Y320473D01*
X724649Y322337D01*
X725581Y323269D01*
X726514Y323269D01*
X727446Y322337D01*
X727446Y321405D01*
X727446Y322337D02*
X728378Y323269D01*
X729310Y323269D01*
X730242Y322337D01*
X730242Y320473D01*
X729310Y319541D01*
X704842Y308315D02*
X699249Y308315D01*
X699249Y311111D01*
X700181Y312043D01*
X702046Y312043D01*
X702978Y311111D01*
X702978Y308315D01*
X704842Y313928D02*
X704842Y317656D01*
X704842Y313928D02*
X701114Y317656D01*
X700181Y317656D01*
X699249Y316724D01*
X699249Y314860D01*
X700181Y313928D01*
X699249Y319541D02*
X699249Y323269D01*
X699249Y319541D02*
X702046Y319541D01*
X701114Y321405D01*
X701114Y322337D01*
X702046Y323269D01*
X703910Y323269D01*
X704842Y322337D01*
X704842Y320473D01*
X703910Y319541D01*
X679442Y308315D02*
X673849Y308315D01*
X673849Y311111D01*
X674781Y312043D01*
X676646Y312043D01*
X677578Y311111D01*
X677578Y308315D01*
X679442Y313928D02*
X679442Y317656D01*
X679442Y313928D02*
X675714Y317656D01*
X674781Y317656D01*
X673849Y316724D01*
X673849Y314860D01*
X674781Y313928D01*
X674781Y321405D02*
X673849Y323269D01*
X674781Y321405D02*
X676646Y319541D01*
X678510Y319541D01*
X679442Y320473D01*
X679442Y322337D01*
X678510Y323269D01*
X677578Y323269D01*
X676646Y322337D01*
X676646Y319541D01*
X654042Y308315D02*
X648449Y308315D01*
X648449Y311111D01*
X649381Y312043D01*
X651246Y312043D01*
X652178Y311111D01*
X652178Y308315D01*
X654042Y313928D02*
X654042Y317656D01*
X654042Y313928D02*
X650314Y317656D01*
X649381Y317656D01*
X648449Y316724D01*
X648449Y314860D01*
X649381Y313928D01*
X648449Y319541D02*
X648449Y323269D01*
X649381Y323269D01*
X653110Y319541D01*
X654042Y319541D01*
X628642Y308315D02*
X623049Y308315D01*
X623049Y311111D01*
X623981Y312043D01*
X625846Y312043D01*
X626778Y311111D01*
X626778Y308315D01*
X624914Y313928D02*
X623049Y315792D01*
X628642Y315792D01*
X628642Y313928D02*
X628642Y317656D01*
X628642Y322337D02*
X623049Y322337D01*
X625846Y319541D01*
X625846Y323269D01*
X603242Y308315D02*
X597649Y308315D01*
X597649Y311111D01*
X598581Y312043D01*
X600446Y312043D01*
X601378Y311111D01*
X601378Y308315D01*
X599514Y313928D02*
X597649Y315792D01*
X603242Y315792D01*
X603242Y313928D02*
X603242Y317656D01*
X603242Y319541D02*
X603242Y323269D01*
X603242Y319541D02*
X599514Y323269D01*
X598581Y323269D01*
X597649Y322337D01*
X597649Y320473D01*
X598581Y319541D01*
X573181Y312043D02*
X572249Y311111D01*
X572249Y309247D01*
X573181Y308315D01*
X576910Y308315D01*
X577842Y309247D01*
X577842Y311111D01*
X576910Y312043D01*
X575046Y312043D01*
X575046Y310179D01*
X577842Y313928D02*
X572249Y313928D01*
X577842Y317656D01*
X572249Y317656D01*
X572249Y319541D02*
X577842Y319541D01*
X577842Y322337D01*
X576910Y323269D01*
X573181Y323269D01*
X572249Y322337D01*
X572249Y319541D01*
X552442Y308315D02*
X546849Y308315D01*
X546849Y311111D01*
X547781Y312043D01*
X549646Y312043D01*
X550578Y311111D01*
X550578Y308315D01*
X548714Y313928D02*
X546849Y315792D01*
X552442Y315792D01*
X552442Y313928D02*
X552442Y317656D01*
X547781Y319541D02*
X546849Y320473D01*
X546849Y322337D01*
X547781Y323269D01*
X548714Y323269D01*
X549646Y322337D01*
X549646Y321405D01*
X549646Y322337D02*
X550578Y323269D01*
X551510Y323269D01*
X552442Y322337D01*
X552442Y320473D01*
X551510Y319541D01*
X522381Y312043D02*
X521449Y311111D01*
X521449Y309247D01*
X522381Y308315D01*
X523314Y308315D01*
X524246Y309247D01*
X524246Y311111D01*
X525178Y312043D01*
X526110Y312043D01*
X527042Y311111D01*
X527042Y309247D01*
X526110Y308315D01*
X527042Y313928D02*
X521449Y313928D01*
X527042Y313928D02*
X527042Y316724D01*
X526110Y317656D01*
X522381Y317656D01*
X521449Y316724D01*
X521449Y313928D01*
X527042Y319541D02*
X527042Y323269D01*
X527042Y319541D02*
X523314Y323269D01*
X522381Y323269D01*
X521449Y322337D01*
X521449Y320473D01*
X522381Y319541D01*
X496981Y312043D02*
X496049Y311111D01*
X496049Y309247D01*
X496981Y308315D01*
X497914Y308315D01*
X498846Y309247D01*
X498846Y311111D01*
X499778Y312043D01*
X500710Y312043D01*
X501642Y311111D01*
X501642Y309247D01*
X500710Y308315D01*
X501642Y313928D02*
X496049Y313928D01*
X501642Y313928D02*
X501642Y316724D01*
X500710Y317656D01*
X496981Y317656D01*
X496049Y316724D01*
X496049Y313928D01*
X496981Y319541D02*
X496049Y320473D01*
X496049Y322337D01*
X496981Y323269D01*
X497914Y323269D01*
X498846Y322337D01*
X498846Y321405D01*
X498846Y322337D02*
X499778Y323269D01*
X500710Y323269D01*
X501642Y322337D01*
X501642Y320473D01*
X500710Y319541D01*
X471581Y312043D02*
X470649Y311111D01*
X470649Y309247D01*
X471581Y308315D01*
X475310Y308315D01*
X476242Y309247D01*
X476242Y311111D01*
X475310Y312043D01*
X476242Y313928D02*
X470649Y313928D01*
X472514Y315792D01*
X470649Y317656D01*
X476242Y317656D01*
X476242Y319541D02*
X470649Y319541D01*
X476242Y319541D02*
X476242Y322337D01*
X475310Y323269D01*
X471581Y323269D01*
X470649Y322337D01*
X470649Y319541D01*
X445249Y317656D02*
X445249Y313928D01*
X448046Y313928D01*
X447114Y315792D01*
X447114Y316724D01*
X448046Y317656D01*
X449910Y317656D01*
X450842Y316724D01*
X450842Y314860D01*
X449910Y313928D01*
X448978Y319541D02*
X445249Y319541D01*
X448978Y319541D02*
X450842Y321405D01*
X448978Y323269D01*
X445249Y323269D01*
D10*
X435330Y452430D02*
X427710Y452430D01*
X431520Y448620D02*
X431520Y456240D01*
X421360Y441000D02*
X421372Y441997D01*
X421409Y442994D01*
X421470Y443990D01*
X421556Y444983D01*
X421666Y445975D01*
X421800Y446963D01*
X421958Y447948D01*
X422141Y448928D01*
X422347Y449904D01*
X422578Y450875D01*
X422832Y451839D01*
X423110Y452797D01*
X423411Y453748D01*
X423736Y454691D01*
X424083Y455626D01*
X424454Y456552D01*
X424847Y457469D01*
X425262Y458376D01*
X425699Y459272D01*
X426159Y460158D01*
X426640Y461031D01*
X427142Y461893D01*
X427665Y462742D01*
X428209Y463578D01*
X428773Y464401D01*
X429358Y465209D01*
X429962Y466003D01*
X430585Y466782D01*
X431227Y467545D01*
X431888Y468292D01*
X432567Y469023D01*
X433263Y469737D01*
X433977Y470433D01*
X434708Y471112D01*
X435455Y471773D01*
X436218Y472415D01*
X436997Y473038D01*
X437791Y473642D01*
X438599Y474227D01*
X439422Y474791D01*
X440258Y475335D01*
X441107Y475858D01*
X441969Y476360D01*
X442842Y476841D01*
X443728Y477301D01*
X444624Y477738D01*
X445531Y478153D01*
X446448Y478546D01*
X447374Y478917D01*
X448309Y479264D01*
X449252Y479589D01*
X450203Y479890D01*
X451161Y480168D01*
X452125Y480422D01*
X453096Y480653D01*
X454072Y480859D01*
X455052Y481042D01*
X456037Y481200D01*
X457025Y481334D01*
X458017Y481444D01*
X459010Y481530D01*
X460006Y481591D01*
X461003Y481628D01*
X462000Y481640D01*
X462997Y481628D01*
X463994Y481591D01*
X464990Y481530D01*
X465983Y481444D01*
X466975Y481334D01*
X467963Y481200D01*
X468948Y481042D01*
X469928Y480859D01*
X470904Y480653D01*
X471875Y480422D01*
X472839Y480168D01*
X473797Y479890D01*
X474748Y479589D01*
X475691Y479264D01*
X476626Y478917D01*
X477552Y478546D01*
X478469Y478153D01*
X479376Y477738D01*
X480272Y477301D01*
X481158Y476841D01*
X482031Y476360D01*
X482893Y475858D01*
X483742Y475335D01*
X484578Y474791D01*
X485401Y474227D01*
X486209Y473642D01*
X487003Y473038D01*
X487782Y472415D01*
X488545Y471773D01*
X489292Y471112D01*
X490023Y470433D01*
X490737Y469737D01*
X491433Y469023D01*
X492112Y468292D01*
X492773Y467545D01*
X493415Y466782D01*
X494038Y466003D01*
X494642Y465209D01*
X495227Y464401D01*
X495791Y463578D01*
X496335Y462742D01*
X496858Y461893D01*
X497360Y461031D01*
X497841Y460158D01*
X498301Y459272D01*
X498738Y458376D01*
X499153Y457469D01*
X499546Y456552D01*
X499917Y455626D01*
X500264Y454691D01*
X500589Y453748D01*
X500890Y452797D01*
X501168Y451839D01*
X501422Y450875D01*
X501653Y449904D01*
X501859Y448928D01*
X502042Y447948D01*
X502200Y446963D01*
X502334Y445975D01*
X502444Y444983D01*
X502530Y443990D01*
X502591Y442994D01*
X502628Y441997D01*
X502640Y441000D01*
X502628Y440003D01*
X502591Y439006D01*
X502530Y438010D01*
X502444Y437017D01*
X502334Y436025D01*
X502200Y435037D01*
X502042Y434052D01*
X501859Y433072D01*
X501653Y432096D01*
X501422Y431125D01*
X501168Y430161D01*
X500890Y429203D01*
X500589Y428252D01*
X500264Y427309D01*
X499917Y426374D01*
X499546Y425448D01*
X499153Y424531D01*
X498738Y423624D01*
X498301Y422728D01*
X497841Y421842D01*
X497360Y420969D01*
X496858Y420107D01*
X496335Y419258D01*
X495791Y418422D01*
X495227Y417599D01*
X494642Y416791D01*
X494038Y415997D01*
X493415Y415218D01*
X492773Y414455D01*
X492112Y413708D01*
X491433Y412977D01*
X490737Y412263D01*
X490023Y411567D01*
X489292Y410888D01*
X488545Y410227D01*
X487782Y409585D01*
X487003Y408962D01*
X486209Y408358D01*
X485401Y407773D01*
X484578Y407209D01*
X483742Y406665D01*
X482893Y406142D01*
X482031Y405640D01*
X481158Y405159D01*
X480272Y404699D01*
X479376Y404262D01*
X478469Y403847D01*
X477552Y403454D01*
X476626Y403083D01*
X475691Y402736D01*
X474748Y402411D01*
X473797Y402110D01*
X472839Y401832D01*
X471875Y401578D01*
X470904Y401347D01*
X469928Y401141D01*
X468948Y400958D01*
X467963Y400800D01*
X466975Y400666D01*
X465983Y400556D01*
X464990Y400470D01*
X463994Y400409D01*
X462997Y400372D01*
X462000Y400360D01*
X461003Y400372D01*
X460006Y400409D01*
X459010Y400470D01*
X458017Y400556D01*
X457025Y400666D01*
X456037Y400800D01*
X455052Y400958D01*
X454072Y401141D01*
X453096Y401347D01*
X452125Y401578D01*
X451161Y401832D01*
X450203Y402110D01*
X449252Y402411D01*
X448309Y402736D01*
X447374Y403083D01*
X446448Y403454D01*
X445531Y403847D01*
X444624Y404262D01*
X443728Y404699D01*
X442842Y405159D01*
X441969Y405640D01*
X441107Y406142D01*
X440258Y406665D01*
X439422Y407209D01*
X438599Y407773D01*
X437791Y408358D01*
X436997Y408962D01*
X436218Y409585D01*
X435455Y410227D01*
X434708Y410888D01*
X433977Y411567D01*
X433263Y412263D01*
X432567Y412977D01*
X431888Y413708D01*
X431227Y414455D01*
X430585Y415218D01*
X429962Y415997D01*
X429358Y416791D01*
X428773Y417599D01*
X428209Y418422D01*
X427665Y419258D01*
X427142Y420107D01*
X426640Y420969D01*
X426159Y421842D01*
X425699Y422728D01*
X425262Y423624D01*
X424847Y424531D01*
X424454Y425448D01*
X424083Y426374D01*
X423736Y427309D01*
X423411Y428252D01*
X423110Y429203D01*
X422832Y430161D01*
X422578Y431125D01*
X422347Y432096D01*
X422141Y433072D01*
X421958Y434052D01*
X421800Y435037D01*
X421666Y436025D01*
X421556Y437017D01*
X421470Y438010D01*
X421409Y439006D01*
X421372Y440003D01*
X421360Y441000D01*
D15*
X501375Y481015D02*
X503282Y479108D01*
X501375Y481015D02*
X497562Y481015D01*
X495655Y479108D01*
X495655Y471482D01*
X497562Y469575D01*
X501375Y469575D01*
X503282Y471482D01*
X507349Y477202D02*
X511162Y481015D01*
X511162Y469575D01*
X507349Y469575D02*
X514975Y469575D01*
D16*
X12000Y500000D02*
X12000Y605000D01*
X12000Y835000D01*
X12000Y940000D01*
X262000Y940000D01*
X362000Y940000D01*
X452000Y940000D01*
X452000Y715000D01*
X452000Y565000D01*
X452000Y500000D01*
X362000Y500000D01*
X12000Y500000D01*
X12000Y835000D02*
X172000Y835000D01*
X172000Y605000D01*
X12000Y605000D01*
X362000Y865000D02*
X362000Y940000D01*
X362000Y865000D02*
X262000Y865000D01*
X262000Y940000D01*
X377000Y565000D02*
X452000Y565000D01*
X377000Y565000D02*
X377000Y715000D01*
X452000Y715000D01*
X362000Y575000D02*
X362000Y500000D01*
X362000Y575000D02*
X262000Y575000D01*
X262000Y504100D01*
X422500Y732700D02*
X447900Y732700D01*
X422500Y732700D02*
X422500Y885100D01*
X447900Y885100D01*
X511000Y605000D02*
X511000Y500000D01*
X511000Y605000D02*
X511000Y835000D01*
X511000Y940000D01*
X761000Y940000D01*
X861000Y940000D01*
X951000Y940000D01*
X951000Y715000D01*
X951000Y565000D01*
X951000Y500000D01*
X861000Y500000D01*
X511000Y500000D01*
X511000Y835000D02*
X671000Y835000D01*
X671000Y605000D01*
X511000Y605000D01*
X861000Y865000D02*
X861000Y940000D01*
X861000Y865000D02*
X761000Y865000D01*
X761000Y940000D01*
X876000Y565000D02*
X951000Y565000D01*
X876000Y565000D02*
X876000Y715000D01*
X951000Y715000D01*
X861000Y575000D02*
X861000Y500000D01*
X861000Y575000D02*
X761000Y575000D01*
X761000Y504100D01*
X921500Y732700D02*
X946900Y732700D01*
X921500Y732700D02*
X921500Y885100D01*
X946900Y885100D01*
D10*
X836050Y407700D02*
X823350Y407700D01*
X836050Y407700D02*
X842400Y401350D01*
X842400Y388650D01*
X836050Y382300D01*
X797950Y407700D02*
X791600Y401350D01*
X797950Y407700D02*
X810650Y407700D01*
X817000Y401350D01*
X817000Y388650D01*
X810650Y382300D01*
X797950Y382300D01*
X791600Y388650D01*
X817000Y401350D02*
X823350Y407700D01*
X817000Y388650D02*
X823350Y382300D01*
X836050Y382300D01*
X759850Y407700D02*
X747150Y407700D01*
X759850Y407700D02*
X766200Y401350D01*
X766200Y388650D01*
X759850Y382300D01*
X766200Y401350D02*
X772550Y407700D01*
X785250Y407700D01*
X791600Y401350D01*
X791600Y388650D01*
X785250Y382300D01*
X772550Y382300D01*
X766200Y388650D01*
X721750Y407700D02*
X715400Y401350D01*
X721750Y407700D02*
X734450Y407700D01*
X740800Y401350D01*
X740800Y388650D01*
X734450Y382300D01*
X721750Y382300D01*
X715400Y388650D01*
X740800Y401350D02*
X747150Y407700D01*
X740800Y388650D02*
X747150Y382300D01*
X759850Y382300D01*
X683650Y407700D02*
X670950Y407700D01*
X683650Y407700D02*
X690000Y401350D01*
X690000Y388650D01*
X683650Y382300D01*
X690000Y401350D02*
X696350Y407700D01*
X709050Y407700D01*
X715400Y401350D01*
X715400Y388650D01*
X709050Y382300D01*
X696350Y382300D01*
X690000Y388650D01*
X645550Y407700D02*
X639200Y401350D01*
X645550Y407700D02*
X658250Y407700D01*
X664600Y401350D01*
X664600Y388650D01*
X658250Y382300D01*
X645550Y382300D01*
X639200Y388650D01*
X664600Y401350D02*
X670950Y407700D01*
X664600Y388650D02*
X670950Y382300D01*
X683650Y382300D01*
X607450Y407700D02*
X594750Y407700D01*
X607450Y407700D02*
X613800Y401350D01*
X613800Y388650D01*
X607450Y382300D01*
X613800Y401350D02*
X620150Y407700D01*
X632850Y407700D01*
X639200Y401350D01*
X639200Y388650D01*
X632850Y382300D01*
X620150Y382300D01*
X613800Y388650D01*
X569350Y407700D02*
X563000Y401350D01*
X569350Y407700D02*
X582050Y407700D01*
X588400Y401350D01*
X588400Y388650D01*
X582050Y382300D01*
X569350Y382300D01*
X563000Y388650D01*
X588400Y401350D02*
X594750Y407700D01*
X588400Y388650D02*
X594750Y382300D01*
X607450Y382300D01*
X531250Y407700D02*
X518550Y407700D01*
X531250Y407700D02*
X537600Y401350D01*
X537600Y388650D01*
X531250Y382300D01*
X537600Y401350D02*
X543950Y407700D01*
X556650Y407700D01*
X563000Y401350D01*
X563000Y388650D01*
X556650Y382300D01*
X543950Y382300D01*
X537600Y388650D01*
X512200Y388650D02*
X512200Y401350D01*
X518550Y407700D01*
X512200Y388650D02*
X518550Y382300D01*
X531250Y382300D01*
X842400Y401350D02*
X848750Y407700D01*
X861450Y407700D01*
X867800Y401350D01*
X867800Y388650D01*
X861450Y382300D01*
X848750Y382300D01*
X842400Y388650D01*
X505550Y47300D02*
X492850Y47300D01*
X486500Y53650D01*
X486500Y66350D01*
X492850Y72700D01*
X530950Y47300D02*
X537300Y53650D01*
X530950Y47300D02*
X518250Y47300D01*
X511900Y53650D01*
X511900Y66350D01*
X518250Y72700D01*
X530950Y72700D01*
X537300Y66350D01*
X511900Y53650D02*
X505550Y47300D01*
X511900Y66350D02*
X505550Y72700D01*
X492850Y72700D01*
X569050Y47300D02*
X581750Y47300D01*
X569050Y47300D02*
X562700Y53650D01*
X562700Y66350D01*
X569050Y72700D01*
X562700Y53650D02*
X556350Y47300D01*
X543650Y47300D01*
X537300Y53650D01*
X537300Y66350D01*
X543650Y72700D01*
X556350Y72700D01*
X562700Y66350D01*
X607150Y47300D02*
X613500Y53650D01*
X607150Y47300D02*
X594450Y47300D01*
X588100Y53650D01*
X588100Y66350D01*
X594450Y72700D01*
X607150Y72700D01*
X613500Y66350D01*
X588100Y53650D02*
X581750Y47300D01*
X588100Y66350D02*
X581750Y72700D01*
X569050Y72700D01*
X645250Y47300D02*
X657950Y47300D01*
X645250Y47300D02*
X638900Y53650D01*
X638900Y66350D01*
X645250Y72700D01*
X638900Y53650D02*
X632550Y47300D01*
X619850Y47300D01*
X613500Y53650D01*
X613500Y66350D01*
X619850Y72700D01*
X632550Y72700D01*
X638900Y66350D01*
X683350Y47300D02*
X689700Y53650D01*
X683350Y47300D02*
X670650Y47300D01*
X664300Y53650D01*
X664300Y66350D01*
X670650Y72700D01*
X683350Y72700D01*
X689700Y66350D01*
X664300Y53650D02*
X657950Y47300D01*
X664300Y66350D02*
X657950Y72700D01*
X645250Y72700D01*
X721450Y47300D02*
X734150Y47300D01*
X721450Y47300D02*
X715100Y53650D01*
X715100Y66350D01*
X721450Y72700D01*
X715100Y53650D02*
X708750Y47300D01*
X696050Y47300D01*
X689700Y53650D01*
X689700Y66350D01*
X696050Y72700D01*
X708750Y72700D01*
X715100Y66350D01*
X759550Y47300D02*
X765900Y53650D01*
X759550Y47300D02*
X746850Y47300D01*
X740500Y53650D01*
X740500Y66350D01*
X746850Y72700D01*
X759550Y72700D01*
X765900Y66350D01*
X740500Y53650D02*
X734150Y47300D01*
X740500Y66350D02*
X734150Y72700D01*
X721450Y72700D01*
X797650Y47300D02*
X810350Y47300D01*
X797650Y47300D02*
X791300Y53650D01*
X791300Y66350D01*
X797650Y72700D01*
X791300Y53650D02*
X784950Y47300D01*
X772250Y47300D01*
X765900Y53650D01*
X765900Y66350D01*
X772250Y72700D01*
X784950Y72700D01*
X791300Y66350D01*
X835750Y47300D02*
X842100Y53650D01*
X835750Y47300D02*
X823050Y47300D01*
X816700Y53650D01*
X816700Y66350D01*
X823050Y72700D01*
X835750Y72700D01*
X842100Y66350D01*
X816700Y53650D02*
X810350Y47300D01*
X816700Y66350D02*
X810350Y72700D01*
X797650Y72700D01*
X873850Y47300D02*
X886550Y47300D01*
X873850Y47300D02*
X867500Y53650D01*
X867500Y66350D01*
X873850Y72700D01*
X867500Y53650D02*
X861150Y47300D01*
X848450Y47300D01*
X842100Y53650D01*
X842100Y66350D01*
X848450Y72700D01*
X861150Y72700D01*
X867500Y66350D01*
X892900Y66350D02*
X892900Y53650D01*
X886550Y47300D01*
X892900Y66350D02*
X886550Y72700D01*
X873850Y72700D01*
X486500Y53650D02*
X480150Y47300D01*
X467450Y47300D01*
X461100Y53650D01*
X461100Y66350D01*
X467450Y72700D01*
X480150Y72700D01*
X486500Y66350D01*
M02*
