G04 EAGLE Gerber RS-274X export*
G75*
%MOMM*%
%FSLAX34Y34*%
%LPD*%
%INSoldermask Bottom*%
%IPPOS*%
%AMOC8*
5,1,8,0,0,1.08239X$1,22.5*%
G01*
%ADD10C,1.879600*%
%ADD11P,2.144431X8X22.500000*%
%ADD12C,1.981200*%
%ADD13C,3.203200*%
%ADD14C,1.727200*%


D10*
X445000Y109000D03*
X470400Y109000D03*
X495800Y109000D03*
X521200Y109000D03*
X546600Y109000D03*
X572000Y109000D03*
X597400Y109000D03*
X622800Y109000D03*
X648200Y109000D03*
X673600Y109000D03*
X699000Y109000D03*
X724400Y109000D03*
X749800Y109000D03*
X775200Y109000D03*
X800600Y109000D03*
X826000Y109000D03*
X851400Y109000D03*
X876800Y109000D03*
X902200Y109000D03*
X902200Y337600D03*
X876800Y337600D03*
X851400Y337600D03*
X826000Y337600D03*
X800600Y337600D03*
X775200Y337600D03*
X749800Y337600D03*
X724400Y337600D03*
X699000Y337600D03*
X673600Y337600D03*
X648200Y337600D03*
X622800Y337600D03*
X597400Y337600D03*
X572000Y337600D03*
X546600Y337600D03*
X521200Y337600D03*
X495800Y337600D03*
X470400Y337600D03*
X445000Y337600D03*
D11*
X479780Y441000D03*
D12*
X444220Y441000D03*
D13*
X32000Y520000D03*
X32000Y920000D03*
X432000Y920000D03*
X432000Y520000D03*
D10*
X295500Y466000D03*
X333600Y466000D03*
X473300Y643800D03*
X473300Y681900D03*
X295500Y974000D03*
X333600Y974000D03*
X473300Y770800D03*
X473300Y796200D03*
X473300Y821600D03*
X473300Y847000D03*
X473300Y745400D03*
X473300Y872400D03*
D13*
X531000Y520000D03*
X531000Y920000D03*
X931000Y920000D03*
X931000Y520000D03*
D10*
X794500Y466000D03*
X832600Y466000D03*
X972300Y643800D03*
X972300Y681900D03*
X794500Y974000D03*
X832600Y974000D03*
X972300Y770800D03*
X972300Y796200D03*
X972300Y821600D03*
X972300Y847000D03*
X972300Y745400D03*
X972300Y872400D03*
D14*
X524900Y402620D02*
X524900Y387380D01*
X550300Y387380D02*
X550300Y402620D01*
X575700Y402620D02*
X575700Y387380D01*
X601100Y387380D02*
X601100Y402620D01*
X626500Y402620D02*
X626500Y387380D01*
X651900Y387380D02*
X651900Y402620D01*
X677300Y402620D02*
X677300Y387380D01*
X702700Y387380D02*
X702700Y402620D01*
X728100Y402620D02*
X728100Y387380D01*
X753500Y387380D02*
X753500Y402620D01*
X778900Y402620D02*
X778900Y387380D01*
X804300Y387380D02*
X804300Y402620D01*
X829700Y402620D02*
X829700Y387380D01*
X855100Y387380D02*
X855100Y402620D01*
X880200Y67620D02*
X880200Y52380D01*
X854800Y52380D02*
X854800Y67620D01*
X829400Y67620D02*
X829400Y52380D01*
X804000Y52380D02*
X804000Y67620D01*
X778600Y67620D02*
X778600Y52380D01*
X753200Y52380D02*
X753200Y67620D01*
X727800Y67620D02*
X727800Y52380D01*
X702400Y52380D02*
X702400Y67620D01*
X677000Y67620D02*
X677000Y52380D01*
X651600Y52380D02*
X651600Y67620D01*
X626200Y67620D02*
X626200Y52380D01*
X600800Y52380D02*
X600800Y67620D01*
X575400Y67620D02*
X575400Y52380D01*
X550000Y52380D02*
X550000Y67620D01*
X524600Y67620D02*
X524600Y52380D01*
X499200Y52380D02*
X499200Y67620D01*
X473800Y67620D02*
X473800Y52380D01*
M02*
